<?xml version="1.0" encoding="UTF-8"?>
<svg id="_레이어_1" data-name="레이어_1" xmlns="http://www.w3.org/2000/svg" viewBox="0 0 106.1 30">
  <defs>
    <style>
      .cls-1 {
        fill: #c2002f;
      }

      .cls-2 {
        fill: #231815;
      }

      .cls-3 {
        fill: #0080c8;
      }

      .cls-4 {
        fill: #00933b;
      }
    </style>
  </defs>
  <g>
    <path class="cls-1" d="M15.09,3.6c.05.08.12.15.13.23.08.23.29.38.32.62,0,.08.11.11.17.15.06.08.02.16.13.27.05.03.01.12.02.2.05.03.11.07.16.11.49.76.53,1.65-.03,2.47-.09.09-.18.22-.21.34-.05.05-.14.09-.19.14,0,.08.06.12.12.19-.24.06-.27.27-.46.41-.05,0-.15.01-.2.02-.14.13-.28.19-.42.28-.04.04-.03.17-.03.2-.23.18-.57.3-.93.29-.05,0-.09.13-.13.13-.25.02-.55.01-.8.03-.1-.03-.16-.11-.27-.14-.1.01-.2.02-.3-.01-.16-.11-.37-.13-.53-.19-.1-.03-.29.07-.4,0-.34-.29-.67-.58-.85-.89-.12-.19-.33-.25-.4-.45,0-.08.03-.21-.08-.24-.21-.06-.12-.19-.13-.31-.06-.11-.07-.19-.19-.31-.06-.11.02-.28-.05-.44,0-.04.04-.09.04-.12-.08-.24.05-.49.02-.69-.01-.12.02-.29.06-.41.12-.25.24-.55.47-.81,0-.04-.01-.12-.02-.16.04-.05.09-.05.14-.1.08-.21.16-.38.29-.55.18-.22.46-.41.69-.63.14-.13.33-.23.45-.45.05-.04.2.02.25-.02.14-.13.34-.11.48-.21.14-.09.11.11.26.06.1,0,.15-.05.24-.1.15-.05.31.05.46.08.15-.01.3.01.47.12.22.14.72.09.8.37.12.19.34.33.46.52Z"/>
    <path class="cls-3" d="M23.53,6.77c0-.12,0-.2-.05-.33-.01-.12.09-.26.04-.43-.03-.05-.09-.1-.08-.14.08-.26.09-.5.07-.79-.02-.09-.05-.13-.08-.18,0-.04.02-.12.04-.19,0-.24-.07-.42-.14-.64-.02-.08-.09-.14-.1-.26-.03-.05-.09-.1-.09-.14.06-.35-.11-.63-.16-.96-.08-.38-.44-.62-.55-1.01,0-.04.12-.02.16-.02.28.26.59.57.67.95.05.13.03.25.09.34.24.29.28.67.32,1.04,0,.04.07.02.1.06,0,.04-.02.12,0,.16.18.2.07.42.11.63.02.09.05.13.08.18,0,.04-.1.14-.11.18.15.19.21.45.17.68.17.08.09.3.13.47.03.05.06.05.1.06.05-.07.1-.14.11-.22.02-.32.04-.6-.02-.89-.05-.13-.06-.26.03-.36-.07-.02-.09-.1-.12-.15-.13-.51-.18-1.08-.33-1.61,0,0,.04-.03.05-.07-.05-.46-.4-.89-.57-1.35-.03-.08-.16-.18-.22-.27,0,0,0-.04,0-.08.18.02.31.2.41.33.19.26.4.56.46.85.1.26.25.54.3.8.04.17.16.28.25.42.05.13.02.25.03.37.05.3.14.58.2.88.07.22.1.46.03.65-.1.34.13.71.22,1.01.05.13-.01.28-.07.39,0,.04.06.09.05.13-.06.15-.01.28-.04.43-.04.03.05.13,0,.2-.04.03-.08.03-.12.06-.06.11,0,.24-.03.36-.11.22-.06.51-.27.67-.08.02-.09.06-.13.09.04,0,.06.05.09.1-.04.03-.08.02-.12.05-.01.08.14.17.16.22-.06.31-.29.58-.28.95-.01.08-.04.19-.05.27-.07.19-.21.32-.28.5-.01.08-.16.09-.18.16-.09.1-.08.26-.15.41-.05.07-.16.05-.24.11-.1.14-.08.26-.15.41-.11.18-.24.37-.34.55-.12.26-.32.5-.54.7-.04,0-.11.02-.16.05-.11.22-.24.38-.48.49-.04,0-.09.16-.13.19-.17.12-.26.26-.46.38-.08.02-.12.05-.2-.09-.26.46-.61.83-.99,1.15-.2.12-.4.1-.53.23-.43.43-1.12.88-1.2.94-.03,0-.17.19-.17.19-.14.01-.06.02-.19,0,0,0,0,.22-.18.25-.37.07-.47.51-.5.68-.01.09-.08.03-.12.06-.04.04-.01.09-.06.13-.16.1-.3.3-.44.45-.04.04-.07-.02-.11.02-.04.04-.24.28-.31.5-.17.38-.36.71-.59.98-.06.06.13.32.12.4-.05.12-.16.14-.21.26-.05.3-.06.63-.11.94-.08.31.02.52.06.8.05.23-.01.53,0,.75.02.18.14.38.12.55,0,.27-.05.23,0,.46,0,.13-.05.26-.02.35-.01.18-.04.29-.05.46-.04.04-.11.13-.12.17-.03.44-.31.83-.62,1.12-.19.12-.35.3-.56.29-.11,0-.46.22-.58.25-.32.09-.57.09-.87.05-.34-.09-.6-.17-.83-.52-.14-.15-.37-.1-.46-.33-.03-.09-.22-.14-.25-.19-.18-.16-.27-.35-.4-.54-.09-.23-.02-.39-.13-.62-.11-.14-.16-.24-.27-.38-.15-.18.03-.45-.07-.63-.08-.05-.15-.14-.18-.23-.07-.18-.05-.44-.16-.63-.06-.23-.02-1.06.02-1.28,0-.05-.12-.11-.11-.15.02-.32.13-.64.1-.97.03-.18.02-.32.18-.47,0,0-.08-.06-.07-.11.09-.26.09-.46.14-.73,0-.04.1-.07.11-.12-.05-.2-.05-.6-.02-.78.02-.09.25-.22.3-.3,0-.04-.03-.16.05-.31.02-.04.08-.03.13-.06,0-.05-.02-.1-.01-.14.02-.13.25-.23.26-.32.09-.3.24-.43.4-.68.06-.11.08-.22.17-.32.04-.03.06,0,.07-.04,0-.04-.01-.12,0-.16.09-.1.21-.19.23-.31.06-.15.12-.25.21-.36.17-.12.33-.25.43-.43.09-.1.19-.08.28-.18.13-.13.16-.32.26-.46.23-.27.48-.46.72-.64.21-.16.47-.22.67-.33.21-.15.33-.45.53-.56.12-.09.27-.1.39-.19.12-.09.23-.27.41-.31.41-.11.12,0,.5-.15.24-.15.14-.19.38-.33.4-.23.61-.38.64-.37.04-.03.08-.06.1-.14.1-.14.61-.5.69-.52.08-.02.17.08.25-.02.05-.07-.05-.13,0-.2.13-.13.26-.31.38-.4.04-.03.14.03.22,0,.04-.03.06-.11.1-.14.05-.07-.04-.17,0-.24.06-.11.11-.22.19-.24.12-.05.28-.14.26-.22.03-.16.09-.3.25-.39,0-.04.02-.08.02-.12.09-.1.18-.16.27-.26.1-.14.06-.31.11-.42.18-.2.36-.36.41-.63-.01-.12-.09-.3-.03-.41.05-.07.2-.12.22-.19.03-.16-.05-.33-.06-.5.02-.12.15-.21.13-.33-.01-.33,0-.64-.04-.97.11-.02.13-.09.14-.17-.03-.25-.17-.48-.23-.74,0-.16.13-.29.12-.46-.01-.12-.13-.27-.26-.38-.12-.15-.04-.37-.08-.54-.04-.21-.19-.37-.22-.61-.01-.12-.16-.12-.21-.25-.04-.17-.08-.34-.08-.54-.02-.09-.13-.07-.2-.12-.14-.23-.09-.71-.4-.81.03-.16-.11-.19-.16-.32.18,0,.35.08.46.3.03.05.13.07.17.08.09.1.09.34.18.4.13.11.32.07.37.2.07.22.23.33.31.51,0,.04.01.12.04.17.13.11.14.23.23.33.21.25.42.5.33.84-.06.15.13.11.19.2.14.23.08.54.27.74-.04.4.16.76.28,1.11-.2.32-.09.87.07,1.19,0,0,.11-.01.12-.05.03-.19.39-.26.33-.35-.07-.22-.18-.67-.18-.87.02-.32.03-.6-.01-.93-.03-.05-.06-.09-.08-.14-.04-.17-.08-.34-.05-.53-.02-.09-.08-.14-.11-.22,0-.04.02-.12.03-.16.08-.02.18.04.25.05.06.05,0,.16.04.21.11.19.28.26.32.47,0,.04-.02.12-.03.15.03.25.18.44.21.65.01.12-.09.3-.04.43.16.32.17.68.14,1.04-.03.15.17.28.11.39-.06.11.01.12-.04.23,0,.04-.08.06-.09.1.1.22-.05.56-.09.76,0,.04.12.08.15-.06.02-.09.16-.08.24-.11.09-.06.15-.21.14-.37ZM24.29,7.54c0-.2.1-.34.06-.55-.07-.22-.23,0-.34.01.06.26-.04.43-.12.66-.05.07-.08.26.03.25.18.04.37-.13.37-.37ZM23.99,8.6c.04-.06.02-.19-.04-.24-.1-.06-.23.03-.28.14-.06.11-.01.28.14.27.03,0,.14-.1.19-.17Z"/>
    <path class="cls-3" d="M21.91,1.99c.19.14.26.38.41.57v.08c-.27.22-.5-.15-.57-.36-.1-.22-.21-.45-.4-.61,0-.04.02-.08.02-.12-.09-.1-.21-.25-.09-.3.05-.07.13.07.23.13.15.19.18.44.4.61Z"/>
    <path class="cls-3" d="M22.98,1s-.06.11-.07.14c-.12-.11-.25-.23-.35-.42-.03-.01-.1-.03-.13-.08-.03,0-.03-.05-.02-.09.11-.01.2.09.3.16.03,0,.08-.02.11-.01.1.07.15.16.16.29Z"/>
    <path class="cls-4" d="M7.05,8.13s.08.07.11.11c.06.04.12.04.18.02.06,0,.11.16.17.16.08.04.14.19.22.26.06.04.12.09.17.13.08.1.13.2.22.28.05.07.14.04.2.05.12.04.16.21.24.31.03,0,.08.1.08.14.06.04.11.11.2.14.03.04.02.1.05.13.21.34.49.56.67.93,0,0,.02.07.02.1.22.21.32.51.51.76.05.1.1.27.15.4.05.07.11.11.16.18.08.14.16.31.17.47,0,.06-.05.26-.16.15-.14-.14-.12-.33-.26-.44,0-.03-.04-.12-.06-.15-.06-.07-.16-.06-.18-.16,0-.1-.1-.18-.16-.24-.14-.2-.34-.28-.51-.48-.03,0-.06,0-.09.03-.03.06-.12.16-.04.26.12.07.17.2.31.27.09.07.11.26.16.43.06.07.11.13.2.17.09.07.05.17.13.28,0,.03-.03.06-.04.09.05.1.17.08.25.18.06-.06.15-.01.2.08-.1.09-.07.16-.11.25-.1.15.13.3.27.38.09,0,.08.17.16.24.05.1.2.11.28.25.03.07-.04.09-.07.16,0,.1.11.14.16.18.06.04.08.11.11.17-.09.03-.26-.1-.35-.1-.06-.02-.16-.15-.27-.18-.04,0-.07.08-.11.08-.05-.01-.11-.02-.17-.03-.06-.01-.21-.18-.28-.19-.07-.01-.16.12-.24.11-.27-.04-.28-.06-.36-.1-.1-.04-.19-.09-.28-.14-.06-.03-.04-.11-.1-.14-.05-.04-.17-.03-.22-.07-.21-.13-.41-.43-.59-.52-.12-.06-.22-.12-.35-.19-.07-.04-.11-.13-.19-.16-.25-.08-.45-.24-.74-.32-.54-.15-.99.16-1.43.38-.02,0-.07,0-.09.01-.1.09-.22.13-.32.2-.14.11-.33.14-.48.22-.05.03-.05.12-.1.14-.07.04-.2.05-.27.09-.06.04-.07.12-.13.16-.13.1-.25.18-.42.26-.1.05-.91.19-1.04.19-.21,0-.35.17-.66.17-.47,0-.95-.01-1.34-.3-.08-.07-.1-.27-.15-.31-.17-.11-.15-.34-.2-.5-.06-.04-.17-.05-.17-.14.06-.48.3-.92.6-1.25.07-.12.22-.18.23-.34,0,0,.26-.37.42-.52.03-.06-.02-.16.02-.23.24-.47.68-.79,1.04-1.22.09-.09.16-.21.31-.23.06,0,.12,0,.15-.05.07-.16.2-.24.29-.3.34-.23.63-.58,1.02-.65.06-.03.1-.09.16-.12.06-.06.18.01.24-.01.29-.13.56-.41.85-.45.06-.03.1-.09.12-.09.27.02.58-.21.83.04.22-.05.56,0,.7.12ZM9.08,10.96s0-.06,0-.1c-.12-.07-.17-.27-.31-.31-.03,0-.09.03-.09.06,0,.19.08.33.16.49.03-.13.12-.12.18-.02.03-.03.06-.09.06-.13Z"/>
  </g>
  <g>
    <path class="cls-2" d="M37.37,20.04l-1.34,1.39-3.72-3.63c-.49.87-1.07,1.6-1.75,2.21-.68.6-1.35,1.1-2.02,1.47l-1.3-1.48c.73-.37,1.36-.79,1.88-1.28.52-.49.94-1,1.27-1.54.33-.54.57-1.09.72-1.65.15-.56.23-1.11.23-1.65v-2.56h2.05v2.2c0,.43-.03.84-.08,1.23-.06.39-.13.77-.21,1.14l4.27,4.16ZM41.62,26.33h-1.94v-9.81h-4.05v-1.87h4.05v-4.98h1.94v16.66Z"/>
    <path class="cls-2" d="M59.19,19.05h-6.94v.92h3.44v4.3h-6.65v.82h7.09v1.87h-9.1v-4.47h6.63v-.73h-6.72v-1.79h3.35v-.92h-6.79v-1.83h15.69v1.83ZM55.52,13.15c0,.53-.11,1-.34,1.44-.23.43-.53.81-.91,1.13-.39.3-.85.54-1.38.71-.53.17-1.11.26-1.73.26-.59,0-1.14-.08-1.66-.24-.52-.16-.98-.39-1.38-.69-.39-.31-.7-.67-.92-1.11-.23-.43-.34-.92-.34-1.47s.11-1.05.33-1.49c.22-.45.52-.83.92-1.15.38-.32.83-.56,1.36-.73.52-.17,1.09-.26,1.7-.26s1.16.09,1.69.26c.53.17.99.42,1.38.73.39.31.7.68.93,1.13.23.45.35.94.35,1.49ZM53.51,13.13c0-.57-.23-1.03-.7-1.35-.46-.33-1.01-.49-1.65-.49s-1.21.16-1.66.49c-.45.32-.67.78-.67,1.36s.22,1,.67,1.32c.44.32,1,.47,1.66.47s1.18-.15,1.65-.44c.46-.29.7-.75.7-1.36Z"/>
    <path class="cls-2" d="M75.67,20.25h-15.67v-1.85h15.67v1.85ZM72.27,26.96h-1.96v-3.82h-7.01v-1.87h8.97v5.69ZM72.23,17.44h-8.86v-7.21h8.75v1.85h-6.81v.79h6.59v1.87h-6.59v.86h6.92v1.85Z"/>
    <path class="cls-2" d="M84.46,18.19h-7.45v-7.62h1.94v2.2h3.55v-2.2h1.96v7.62ZM82.51,16.34v-1.72h-3.55v1.72h3.55ZM89.98,26.96h-8.99v-4.6h6.54v-.95h-6.63v-1.85h8.64v4.6h-6.5v.95h6.94v1.85ZM90.12,19.03h-1.92v-1.78h-3.15v-1.83h3.15v-1.32h-3.15v-1.85h3.15v-2.58h1.92v9.36Z"/>
    <path class="cls-2" d="M102.07,20.09l-1.34,1.39-3.7-3.64c-.48.88-1.05,1.62-1.73,2.22-.68.6-1.36,1.1-2.06,1.47l-1.3-1.48c.74-.4,1.38-.85,1.9-1.34.52-.49.94-1,1.27-1.52.32-.54.55-1.08.7-1.63.15-.55.23-1.09.23-1.63v-2.62h2.05v2.25c0,.43-.03.83-.08,1.22-.05.38-.12.75-.21,1.11l4.27,4.19ZM106.08,26.33h-1.96V9.67h1.96v16.66Z"/>
  </g>
</svg>