<?xml version="1.0" encoding="UTF-8"?>
<svg id="_레이어_1" data-name="레이어_1" xmlns="http://www.w3.org/2000/svg" viewBox="0 0 119.39 24">
  <defs>
    <style>
      .cls-1 {
        fill: #e6002d;
      }

      .cls-2 {
        fill: #595757;
      }

      .cls-3 {
        fill: #003668;
      }
    </style>
  </defs>
  <g>
    <path class="cls-3" d="M18.53,11.45c-2.08-1.42-4.75-.84-6.15,1.29-1.17,1.78-2.94,2-3.62,2-2.23,0-3.76-1.57-4.21-3.19h0s0-.03-.01-.05c0-.02,0-.04-.01-.05-.18-.68-.22-1-.22-1.72,0-3.88,3.98-8.2,9.72-8.2s9.23,4.47,10.1,6.96c-.01-.04-.03-.09-.04-.13C22.4,3.49,17.79,0,12.37,0,5.54,0,0,5.54,0,12.37c0,6.1,4.4,11.33,10.51,11.33,4.87,0,8.15-2.73,9.65-6.5.82-2.06.24-4.48-1.63-5.75Z"/>
    <path class="cls-1" d="M24.19,8.73c-.72-2.42-4.11-7.2-10.18-7.2-5.74,0-9.72,4.32-9.72,8.2,0,.72.04,1.04.22,1.72-.07-.3-.11-.59-.11-.88,0-4.04,4.05-6.84,8.21-6.84,5.63,0,10.2,4.57,10.2,10.2,0,4.41-2.54,8.24-6.23,10.07h0c4.76-1.72,8.16-6.28,8.16-11.63,0-1.27-.17-2.38-.54-3.64Z"/>
  </g>
  <g>
    <path class="cls-2" d="M41.99,12.38v1.36h-4.86v1.91h-1.57v-1.91h-4.95v-1.36h11.38ZM31.53,11.12v-4.76h9.55v4.76h-9.55ZM33.07,14.62v2.4h8.16v1.36h-9.7v-3.76h1.54ZM39.55,7.68h-6.51v2.16h6.51v-2.16Z"/>
    <path class="cls-2" d="M51.36,17.35h-8.12v-1.35h3.26v-1.54c-.15-.04-.29-.08-.42-.14-.37-.15-.69-.35-.97-.6-.28-.26-.49-.56-.65-.9-.16-.34-.24-.7-.24-1.08s.08-.74.24-1.07c.16-.33.37-.63.65-.89.28-.26.6-.46.96-.6.37-.14.76-.21,1.17-.21s.81.07,1.16.21c.36.14.68.34.95.6.28.26.5.56.66.89.16.33.24.69.24,1.07s-.08.74-.24,1.08c-.16.34-.38.64-.66.9-.27.25-.58.45-.95.6-.15.07-.3.12-.46.15v1.53h3.4v1.35ZM46.39,7.44v-1.32h1.67v1.32h3.01v1.32h-7.69v-1.32h3.01ZM48.76,11.75c0-.41-.15-.76-.44-1.05-.3-.29-.66-.44-1.08-.44s-.79.15-1.08.44c-.29.29-.44.64-.44,1.05s.15.76.44,1.05c.3.3.66.44,1.08.44s.78-.15,1.08-.44c.3-.3.44-.65.44-1.05ZM53.76,18.59h-1.53V6.21h1.53v5.37h1.58v1.48h-1.58v5.52Z"/>
    <path class="cls-2" d="M56.02,8.76v-1.32h2.62v-1.32h1.62v1.32h2.47v1.32h-2.8l2.94,7.78-1.35.46-2.07-5.61-2.07,5.7-1.39-.44,2.96-7.9h-2.94ZM63.76,6.22h1.43v12.29h-1.43v-5.98h-1.61v-1.4h1.61v-4.91ZM66.35,6.21h1.48v12.38h-1.48V6.21Z"/>
    <path class="cls-2" d="M79.81,14.8v3.82h-1.54v-2.5h-8.3v-1.32h1.97v-1.44s-2.59,0-2.59,0v-1.33h11.38v1.33h-2.62v1.44h1.71ZM78.09,8.75c0,.39-.08.75-.25,1.1-.17.34-.38.65-.65.92-.28.25-.6.45-.97.6-.37.15-.76.23-1.18.23s-.81-.08-1.19-.23c-.37-.15-.7-.35-.98-.6-.27-.27-.49-.57-.65-.92-.17-.34-.25-.71-.25-1.1s.08-.75.25-1.1c.17-.34.38-.65.65-.92.28-.26.6-.47.98-.62.37-.15.77-.23,1.19-.23s.81.08,1.18.23c.37.15.69.36.97.62.27.27.49.57.65.92.17.34.25.71.25,1.1ZM73.36,14.8h3.33v-1.44h-3.32v1.44ZM76.58,8.75c0-.42-.15-.77-.45-1.06-.3-.29-.66-.44-1.09-.44s-.79.15-1.1.44c-.3.29-.46.65-.46,1.06s.15.77.46,1.07c.3.3.67.44,1.1.44s.79-.15,1.09-.44c.3-.3.45-.65.45-1.07Z"/>
    <path class="cls-2" d="M89.7,12.14v1.34h-7.39v-1.34h2.5v-2.69h1.46v2.69h3.44ZM87.78,11v-3.16h-5.12v-1.37h6.62v4.54h-1.5ZM84.41,14.46v2.51h8.56v1.36h-10.1v-3.87h1.54ZM92.63,13.91h-1.54v-7.7h1.54v3.03h1.58v1.47h-1.58v3.21Z"/>
    <path class="cls-2" d="M97.77,11.52v-2.41h1.46v2.41h3.44v1.29h-7.4v-1.29h2.5ZM100.74,10.41v-2.59h-5.12v-1.36h6.62v3.95h-1.5ZM104.48,16.13c0,.4-.08.77-.25,1.1-.17.34-.39.64-.67.91-.27.26-.59.47-.96.62-.37.15-.77.23-1.19.23s-.82-.08-1.19-.23c-.37-.15-.69-.36-.97-.62-.28-.27-.5-.57-.66-.91-.16-.34-.24-.7-.24-1.1s.08-.77.24-1.12c.16-.35.38-.65.66-.92.28-.25.6-.45.97-.6.37-.15.77-.23,1.19-.23s.82.08,1.19.23c.37.15.69.35.96.6.28.27.5.58.67.92.17.35.25.72.25,1.12ZM102.97,16.12c0-.42-.15-.79-.46-1.09-.31-.3-.67-.45-1.1-.45s-.79.15-1.1.45c-.31.3-.46.66-.46,1.09s.15.78.46,1.08c.31.29.68.44,1.1.44s.79-.15,1.1-.44c.31-.29.46-.65.46-1.08ZM105.59,13.02h-1.54v-6.81h1.54v2.53h1.58v1.44h-1.58v2.84Z"/>
    <path class="cls-2" d="M108.01,14.03h11.38v1.36h-4.93v3.19h-1.54v-3.19h-4.91v-1.36ZM110.44,7.98h6.51v-1.57h1.53v5.95h-9.54v-5.95h1.51v1.57ZM116.95,9.31h-6.51v1.71h6.51v-1.71Z"/>
  </g>
</svg>