<svg xmlns="http://www.w3.org/2000/svg" xmlns:xlink="http://www.w3.org/1999/xlink" width="56.611" height="70.732" viewBox="0 0 56.611 70.732">
  <defs>
    <clipPath id="clip-path">
      <path id="패스_3651" data-name="패스 3651" d="M15.279,41.35c.085-4.535,2.346-6.341,4.791-6.341h6.284V46.383h-6.81c-3.355,0-4.08-3.455-4.265-5.033m24.44-24.056a3.328,3.328,0,0,1,3.313-2.644c2.844,0,3.185,2.1,3.185,3.5s0,3.967-6.5,3.967ZM30.592,6.6a15.217,15.217,0,0,0-4.265,10.436V21.7H19.033c-6.839.64-17.061,6.441-17.061,19.9a3.206,3.206,0,0,0,0,.37c.4,7.109,5.4,17.744,17.516,17.744h6.839V72.743H39.606V59.691h11.6V46.383H39.662V35.009h2.644a16.325,16.325,0,0,0,11.374-3.952,15.971,15.971,0,0,0,4.877-12.3A16.466,16.466,0,0,0,53.781,6.375h.028A16.279,16.279,0,0,0,42.52,2.024c-.22-.01-.441-.014-.66-.014A16.126,16.126,0,0,0,30.592,6.6" transform="translate(-1.966 -2.01)"/>
    </clipPath>
  </defs>
  <g id="그룹_4453" data-name="그룹 4453" transform="translate(-1.966 -2.01)">
    <g id="그룹_4439" data-name="그룹 4439" transform="translate(1.966 2.01)" clip-path="url(#clip-path)">
      <rect id="사각형_688" data-name="사각형 688" width="62.259" height="76.391" transform="translate(-2.796 -2.858)"/>
    </g>
  </g>
</svg>
