<svg xmlns="http://www.w3.org/2000/svg" width="66.718" height="113.467" viewBox="0 0 66.718 113.467">
  <g id="그룹_4450" data-name="그룹 4450" transform="translate(-650.001 -18302)">
    <g id="그룹_4448" data-name="그룹 4448" transform="translate(654.001 18387.256)">
      <path id="패스_3852" data-name="패스 3852" d="M7.622,95.989c0,1.177.508,1.868,2.108,1.868a13.091,13.091,0,0,0,1.87-.142v-3.67h2.163v5.321a15.6,15.6,0,0,1-4.052.544c-2.959,0-4.378-1.253-4.378-3.65V91.1c0-2.489,1.454-3.651,4.595-3.651a14.964,14.964,0,0,1,3.47.4l-.252,2a16.049,16.049,0,0,0-3.4-.327c-1.6,0-2.126.653-2.126,1.89Z" transform="translate(-4.135 -87.451)" fill="#fff"/>
      <path id="패스_3853" data-name="패스 3853" d="M21,87.639c2.977,0,4.016,1.506,4.016,3.25v5.594c0,1.726-1.038,3.249-4.016,3.249h-4.5V87.639Zm-2.215,10.08h1.976c1.546,0,1.964-.619,1.964-1.781v-4.5c0-1.162-.418-1.781-1.964-1.781H18.782Z" transform="translate(-4.415 -87.456)" fill="#fff"/>
      <path id="패스_3854" data-name="패스 3854" d="M38.649,97.01l2.308-9.371h2.268l-3,12.094H37.14L34.925,90,32.71,99.733H29.622l-3-12.094H28.9l2.3,9.371,2.2-9.371h3.052Z" transform="translate(-4.669 -87.457)" fill="#fff"/>
      <path id="패스_3855" data-name="패스 3855" d="M45.326,87.639h7.411v2.014H47.613v2.925h4.723v2.016H47.613v3.126h5.124v2.013H45.326Z" transform="translate(-5.139 -87.456)" fill="#fff"/>
      <path id="패스_3856" data-name="패스 3856" d="M55.348,99.733V87.639h4.758c2.29,0,3.215.942,3.215,2.578v1.252a1.914,1.914,0,0,1-1.344,1.961,2.13,2.13,0,0,1,1.764,2.233v1.292c0,1.707-1.109,2.777-3.306,2.777Zm5.685-9.226c0-.672-.366-.981-1.2-.981h-2.2V92.7h2.177c.889,0,1.218-.416,1.218-1.125Zm.418,5.251c0-.82-.366-1.218-1.273-1.218h-2.54v3.3H59.98c1.034,0,1.471-.288,1.471-1.18Z" transform="translate(-5.39 -87.456)" fill="#fff"/>
      <path id="패스_3857" data-name="패스 3857" d="M11.75,113.569H7.267L6.5,116.076H4.1l3.817-12.095h3.193l3.817,12.095h-2.4Zm-3.92-1.98h3.34l-1.652-5.718Z" transform="translate(-4.104 -87.867)" fill="#fff"/>
      <path id="패스_3858" data-name="패스 3858" d="M27.025,113.353l2.308-9.371H31.6l-2.995,12.094H25.519L23.3,106.342l-2.216,9.733H18L15,103.982h2.268l2.308,9.371,2.2-9.371h3.052Z" transform="translate(-4.378 -87.865)" fill="#fff"/>
      <path id="패스_3859" data-name="패스 3859" d="M39.009,113.569H34.525l-.762,2.506h-2.4l3.813-12.095h3.2l3.814,12.095h-2.4Zm-3.921-1.98h3.343l-1.655-5.718Z" transform="translate(-4.788 -87.867)" fill="#fff"/>
      <path id="패스_3860" data-name="패스 3860" d="M50.9,116.076l-2.778-4H45.941v4H43.653V103.982h4.959c2.815,0,3.851,1.143,3.851,3.264v1.583a2.752,2.752,0,0,1-1.818,2.925l3,4.322ZM48.6,106H46.021v4.1H48.6c1.252,0,1.654-.452,1.654-1.468v-1.2c0-1.018-.437-1.436-1.654-1.436" transform="translate(-5.097 -87.865)" fill="#fff"/>
      <path id="패스_3861" data-name="패스 3861" d="M59.722,103.982c2.98,0,4.016,1.505,4.016,3.249v5.595c0,1.726-1.035,3.249-4.016,3.249h-4.5V103.982Zm-2.215,10.08h1.979c1.543,0,1.961-.62,1.961-1.781v-4.5c0-1.162-.418-1.782-1.961-1.782H57.507Z" transform="translate(-5.387 -87.865)" fill="#fff"/>
    </g>
    <g id="그룹_4449" data-name="그룹 4449" transform="translate(650.001 18302)">
      <rect id="사각형_694" data-name="사각형 694" width="66.718" height="75.757" fill="#1a1311"/>
      <path id="패스_3862" data-name="패스 3862" d="M49.1,49.233H37.6a.668.668,0,0,0-.716.606v5H45c2.261,0,4.092-2.512,4.092-5.607" transform="translate(-0.927 -1.236)" fill="#1a1311"/>
      <path id="패스_3863" data-name="패스 3863" d="M43.655,19.291V47.806a.667.667,0,0,1-.6.713h-5V23.382c0-2.26,2.512-4.091,5.607-4.091" transform="translate(-0.956 -0.484)" fill="#1a1311"/>
      <path id="패스_3864" data-name="패스 3864" d="M37.472,36.406H29.116a.666.666,0,0,0-.714.605V51.5h5a.666.666,0,0,0,.6-.713v-8.77h2.515c2.26,0,4.093-2.513,4.093-5.609Z" transform="translate(-0.714 -0.913)" fill="#1a1311"/>
      <path id="패스_3865" data-name="패스 3865" d="M48.325,49.713H36.376a.694.694,0,0,0-.744.63v5.2h8.439c2.351,0,4.254-2.612,4.254-5.829" transform="translate(-0.895 -1.248)" fill="#312e2c"/>
      <path id="패스_3866" data-name="패스 3866" d="M44.423,18.583V48.229a.694.694,0,0,1-.627.741h-5.2V22.835c0-2.35,2.612-4.252,5.829-4.252" transform="translate(-0.97 -0.466)" fill="#312e2c"/>
      <path id="패스_3867" data-name="패스 3867" d="M36.639,36.061H27.952a.692.692,0,0,0-.742.63v15.06H32.4a.693.693,0,0,0,.628-.742V41.892h2.614c2.35,0,4.255-2.613,4.255-5.831Z" transform="translate(-0.684 -0.905)" fill="#312e2c"/>
      <path id="패스_3868" data-name="패스 3868" d="M47.555,50.192H35.149a.721.721,0,0,0-.771.654v5.4h8.761c2.44,0,4.415-2.712,4.415-6.052" transform="translate(-0.864 -1.261)" fill="#484543"/>
      <path id="패스_3869" data-name="패스 3869" d="M45.192,17.874V48.651a.722.722,0,0,1-.651.771h-5.4V22.289c0-2.439,2.711-4.415,6.051-4.415" transform="translate(-0.983 -0.449)" fill="#484543"/>
      <path id="패스_3870" data-name="패스 3870" d="M35.807,35.717H26.788a.72.72,0,0,0-.771.653V52.007H31.41a.72.72,0,0,0,.651-.771V41.77h2.714c2.439,0,4.418-2.712,4.418-6.053Z" transform="translate(-0.654 -0.896)" fill="#484543"/>
      <path id="패스_3871" data-name="패스 3871" d="M46.784,50.673H33.923a.749.749,0,0,0-.8.679v5.6h9.084c2.529,0,4.578-2.812,4.578-6.274" transform="translate(-0.832 -1.272)" fill="#5e5b56"/>
      <path id="패스_3872" data-name="패스 3872" d="M45.96,17.166V49.073a.748.748,0,0,1-.676.8h-5.6V21.744c0-2.53,2.811-4.578,6.274-4.578" transform="translate(-0.997 -0.43)" fill="#5e5b56"/>
      <path id="패스_3873" data-name="패스 3873" d="M34.973,35.372H25.624a.746.746,0,0,0-.8.678v16.21h5.591a.746.746,0,0,0,.676-.8V41.647H33.9c2.529,0,4.58-2.812,4.58-6.275Z" transform="translate(-0.624 -0.888)" fill="#5e5b56"/>
      <path id="패스_3874" data-name="패스 3874" d="M46.014,51.152H32.7a.775.775,0,0,0-.83.7V57.65h9.407c2.619,0,4.74-2.912,4.74-6.5" transform="translate(-0.801 -1.284)" fill="#726e67"/>
      <path id="패스_3875" data-name="패스 3875" d="M46.73,16.458V49.5a.776.776,0,0,1-.7.829H40.233V21.2c0-2.621,2.909-4.741,6.5-4.741" transform="translate(-1.011 -0.413)" fill="#726e67"/>
      <path id="패스_3876" data-name="패스 3876" d="M34.139,35.027H24.46a.771.771,0,0,0-.828.7V52.513h5.79a.772.772,0,0,0,.7-.827V41.526h2.914c2.619,0,4.742-2.912,4.742-6.5Z" transform="translate(-0.594 -0.879)" fill="#726e67"/>
      <path id="패스_3877" data-name="패스 3877" d="M45.243,51.632H31.469a.8.8,0,0,0-.857.727v5.993H40.34c2.709,0,4.9-3.012,4.9-6.72" transform="translate(-0.769 -1.296)" fill="#868074"/>
      <path id="패스_3878" data-name="패스 3878" d="M47.5,15.75V49.92a.8.8,0,0,1-.726.857H40.78V20.653c0-2.709,3.009-4.9,6.719-4.9" transform="translate(-1.025 -0.396)" fill="#868074"/>
      <path id="패스_3879" data-name="패스 3879" d="M33.307,34.682H23.3a.8.8,0,0,0-.857.727V52.766h5.987a.8.8,0,0,0,.722-.855V41.4h3.014c2.708,0,4.9-3.01,4.9-6.721Z" transform="translate(-0.564 -0.871)" fill="#868074"/>
      <path id="패스_3880" data-name="패스 3880" d="M44.473,52.112H30.241a.827.827,0,0,0-.884.751v6.192H39.408c2.8,0,5.065-3.111,5.065-6.942" transform="translate(-0.738 -1.309)" fill="#988f7f"/>
      <path id="패스_3881" data-name="패스 3881" d="M48.267,15.042v35.3a.829.829,0,0,1-.751.885H41.326V20.108c0-2.8,3.108-5.066,6.941-5.066" transform="translate(-1.038 -0.377)" fill="#988f7f"/>
      <path id="패스_3882" data-name="패스 3882" d="M32.474,34.337H22.134a.826.826,0,0,0-.887.751V53.021h6.187a.825.825,0,0,0,.746-.884V41.28h3.114c2.8,0,5.067-3.11,5.067-6.943Z" transform="translate(-0.534 -0.862)" fill="#988f7f"/>
      <path id="패스_3883" data-name="패스 3883" d="M43.7,52.593H29.015a.855.855,0,0,0-.914.774v6.389H38.476c2.887,0,5.226-3.21,5.226-7.164" transform="translate(-0.706 -1.32)" fill="#a89b86"/>
      <path id="패스_3884" data-name="패스 3884" d="M49.037,14.334V50.766a.856.856,0,0,1-.775.914H41.872V19.561c0-2.889,3.208-5.227,7.165-5.227" transform="translate(-1.052 -0.36)" fill="#a89b86"/>
      <path id="패스_3885" data-name="패스 3885" d="M31.64,33.993H20.969a.852.852,0,0,0-.916.775V53.274h6.385a.85.85,0,0,0,.77-.912v-11.2h3.213c2.888,0,5.23-3.209,5.23-7.165Z" transform="translate(-0.504 -0.854)" fill="#a89b86"/>
      <path id="패스_3886" data-name="패스 3886" d="M42.932,53.072H27.79a.881.881,0,0,0-.943.8v6.588h10.7c2.977,0,5.389-3.311,5.389-7.387" transform="translate(-0.675 -1.332)" fill="#b6a589"/>
      <path id="패스_3887" data-name="패스 3887" d="M49.806,13.625V51.189a.883.883,0,0,1-.8.942H42.419V19.015c0-2.978,3.306-5.39,7.387-5.39" transform="translate(-1.066 -0.342)" fill="#b6a589"/>
      <path id="패스_3888" data-name="패스 3888" d="M30.807,33.648h-11a.879.879,0,0,0-.945.8V53.529h6.583a.879.879,0,0,0,.794-.941V41.037h3.313c2.977,0,5.392-3.31,5.392-7.389Z" transform="translate(-0.474 -0.845)" fill="#b6a589"/>
      <path id="패스_3889" data-name="패스 3889" d="M42.161,53.552h-15.6a.908.908,0,0,0-.97.823v6.786H36.61c3.066,0,5.551-3.41,5.551-7.609" transform="translate(-0.643 -1.345)" fill="#c0ac8a"/>
      <path id="패스_3890" data-name="패스 3890" d="M50.575,12.917V51.612a.911.911,0,0,1-.826.971H42.964V18.47c0-3.069,3.406-5.553,7.611-5.553" transform="translate(-1.079 -0.324)" fill="#c0ac8a"/>
      <path id="패스_3891" data-name="패스 3891" d="M29.974,33.3H18.642a.905.905,0,0,0-.973.823V53.782H24.45a.9.9,0,0,0,.817-.968v-11.9H28.68c3.066,0,5.555-3.409,5.555-7.611Z" transform="translate(-0.445 -0.837)" fill="#c0ac8a"/>
    </g>
  </g>
</svg>
