<svg xmlns="http://www.w3.org/2000/svg" xmlns:xlink="http://www.w3.org/1999/xlink" width="52.575" height="100.513" viewBox="0 0 52.575 100.513">
  <defs>
    <clipPath id="clip-path">
      <rect id="사각형_693" data-name="사각형 693" width="52.575" height="100.513" fill="none"/>
    </clipPath>
  </defs>
  <g id="그룹_4446" data-name="그룹 4446" clip-path="url(#clip-path)">
    <path id="패스_3812" data-name="패스 3812" d="M3.294,93.185c0,1.054.457,1.678,1.9,1.678a12.043,12.043,0,0,0,1.686-.141V91.428h1.95v4.8a14.105,14.105,0,0,1-3.654.492c-2.635,0-3.944-1.133-3.944-3.285V88.775c0-2.24,1.309-3.285,4.137-3.285a13.2,13.2,0,0,1,3.127.36l-.228,1.757a13.96,13.96,0,0,0-3.057-.3c-1.441,0-1.915.589-1.915,1.7Z" transform="translate(-0.15 -10.397)" fill="#231815"/>
    <path id="패스_3813" data-name="패스 3813" d="M16.439,85.68c2.635,0,3.619,1.353,3.619,2.925v5.042c0,1.555-.94,2.925-3.619,2.925H12.39V85.68Zm-1.985,9.065h1.757c1.4,0,1.757-.562,1.757-1.607V89.1c0-1.045-.378-1.607-1.757-1.607H14.454Z" transform="translate(-1.507 -10.421)" fill="#231815"/>
    <path id="패스_3814" data-name="패스 3814" d="M33.359,94.121l2.073-8.441h2.047L34.773,96.572H32l-2.029-8.766-2,8.784H25.225L22.52,85.7h2.047l2.082,8.441L28.625,85.7h2.749Z" transform="translate(-2.739 -10.421)" fill="#231815"/>
    <path id="패스_3815" data-name="패스 3815" d="M41.22,85.68H47.9v1.809H43.284v2.635h4.251v1.818H43.284v2.8H47.9v1.809H41.22Z" transform="translate(-5.013 -10.421)" fill="#231815"/>
    <path id="패스_3816" data-name="패스 3816" d="M51.25,96.572V85.68h4.286c2.055,0,2.89.878,2.89,2.319v1.124a1.756,1.756,0,0,1-1.212,1.757,1.915,1.915,0,0,1,1.59,2.012v1.159c0,1.537-.993,2.5-2.978,2.5Zm5.121-8.309c0-.606-.334-.878-1.08-.878H53.305v2.864h1.968c.8,0,1.1-.369,1.1-1.01Zm.369,4.726c0-.738-.325-1.1-1.142-1.1H53.305v2.978h2.117c.931,0,1.318-.255,1.318-1.063Z" transform="translate(-6.233 -10.421)" fill="#231815"/>
    <path id="패스_3817" data-name="패스 3817" d="M6.886,110.652H2.846l-.685,2.257H0L3.443,102H6.316l3.443,10.892H7.6ZM3.373,108.9h3l-1.493-5.139Z" transform="translate(0 -12.405)" fill="#231815"/>
    <path id="패스_3818" data-name="패스 3818" d="M21.73,110.459,23.812,102H25.85l-2.7,10.892H20.378l-2-8.784-1.994,8.784H13.623L10.9,102h2.047l2.073,8.441L17,102h2.776Z" transform="translate(-1.326 -12.405)" fill="#231815"/>
    <path id="패스_3819" data-name="패스 3819" d="M34.146,110.652H30.106l-.685,2.257H27.26L30.694,102h2.881l3.434,10.892H34.849ZM30.633,108.9h3.013l-1.511-5.139Z" transform="translate(-3.315 -12.405)" fill="#231815"/>
    <path id="패스_3820" data-name="패스 3820" d="M46.094,112.909l-2.5-3.593H41.614v3.593H39.55V102h4.471c2.53,0,3.514,1.028,3.514,2.943v1.449a2.476,2.476,0,0,1-1.643,2.635l2.705,3.891Zm-2.153-9.082H41.6v3.7h2.319c1.133,0,1.493-.4,1.493-1.318v-1.08c.026-.922-.4-1.3-1.493-1.3Z" transform="translate(-4.81 -12.405)" fill="#231815"/>
    <path id="패스_3821" data-name="패스 3821" d="M55.178,102c2.635,0,3.61,1.353,3.61,2.925v5.042c0,1.555-.931,2.925-3.61,2.925H51.12V102Zm-2,9.082h1.757c1.4,0,1.757-.562,1.757-1.607v-4.058c0-1.045-.369-1.607-1.757-1.607H53.175Z" transform="translate(-6.217 -12.405)" fill="#231815"/>
    <path id="패스_3822" data-name="패스 3822" d="M49.3,53H34.19a.878.878,0,0,0-.94.8v6.57H43.922C46.891,60.343,49.3,57.04,49.3,53" transform="translate(-4.044 -6.446)" fill="#fff"/>
    <path id="패스_3823" data-name="패스 3823" d="M42.317,9.3V46.807a.878.878,0,0,1-.791.94H35V14.676c0-3,3.25-5.376,7.317-5.376" transform="translate(-4.257 -1.131)" fill="#fff"/>
    <path id="패스_3824" data-name="패스 3824" d="M32.8,34.26H21.81a.878.878,0,0,0-.94.8V54.093h6.57a.878.878,0,0,0,.791-.931V41.629h3.294c2.969,0,5.376-3.3,5.376-7.37Z" transform="translate(-2.538 -4.166)" fill="#fff"/>
    <path id="패스_3825" data-name="패스 3825" d="M48.1,53.669H32.395a.879.879,0,0,0-.971.776c0,.019,0,.04,0,.059v6.825H42.514c3.092,0,5.586-3.426,5.586-7.659" transform="translate(-3.821 -6.527)" fill="#ededed"/>
    <path id="패스_3826" data-name="패스 3826" d="M43.4,8.26V47.225a.877.877,0,0,1-.775.971l-.051,0H35.74V13.855c0-3.092,3.434-5.6,7.659-5.6" transform="translate(-4.347 -1.005)" fill="#ededed"/>
    <path id="패스_3827" data-name="패스 3827" d="M31.523,33.759H20.1a.878.878,0,0,0-.979.765q0,.03-.005.061v19.8h6.834a.878.878,0,0,0,.831-.923q0-.03-.005-.061V41.419h3.434c3.083,0,5.586-3.434,5.586-7.659Z" transform="translate(-2.325 -4.105)" fill="#ededed"/>
    <path id="패스_3828" data-name="패스 3828" d="M46.912,54.37h-16.3a.949.949,0,0,0-1.019.873v7.1H41.106c3.206-.018,5.806-3.584,5.806-7.976" transform="translate(-3.599 -6.612)" fill="#d8d9d9"/>
    <path id="패스_3829" data-name="패스 3829" d="M44.489,7.23V47.679a.949.949,0,0,1-.878,1.01H36.54V13.036c0-3.206,3.566-5.806,7.949-5.806" transform="translate(-4.444 -0.879)" fill="#d8d9d9"/>
    <path id="패스_3830" data-name="패스 3830" d="M30.224,33.26H18.41a.94.94,0,0,0-1.009.865V54.692h7.089a.948.948,0,0,0,.878-1.014V41.209h3.54c3.206,0,5.806-3.557,5.806-7.949Z" transform="translate(-2.116 -4.045)" fill="#d8d9d9"/>
    <path id="패스_3831" data-name="패스 3831" d="M45.719,55.07H28.854a.993.993,0,0,0-1.054.878V63.3H39.7c3.329.018,6.017-3.68,6.017-8.23" transform="translate(-3.381 -6.697)" fill="#c2c3c4"/>
    <path id="패스_3832" data-name="패스 3832" d="M45.579,6.2V48.134a.975.975,0,0,1-.878,1.045H37.34V12.217c0-3.329,3.689-6.017,8.239-6.017" transform="translate(-4.541 -0.754)" fill="#c2c3c4"/>
    <path id="패스_3833" data-name="패스 3833" d="M28.993,32.75H16.7a.984.984,0,0,0-1.045.878v21.3h7.334a.975.975,0,0,0,.878-1.045V41h3.7c3.329,0,6.026-3.689,6.026-8.248Z" transform="translate(-1.903 -3.983)" fill="#c2c3c4"/>
    <path id="패스_3834" data-name="패스 3834" d="M44.525,55.77H27.019a1.019,1.019,0,0,0-1.089.878v7.616H38.289c3.443.044,6.236-3.777,6.236-8.494" transform="translate(-3.154 -6.782)" fill="#abacad"/>
    <path id="패스_3835" data-name="패스 3835" d="M46.668,5.16V48.587a1.019,1.019,0,0,1-.922,1.089H38.13V11.4c0-3.443,3.83-6.236,8.538-6.236" transform="translate(-4.637 -0.628)" fill="#abacad"/>
    <path id="패스_3836" data-name="패스 3836" d="M27.728,32.249H15.009a1.01,1.01,0,0,0-1.089.878v22.1h7.607a1.01,1.01,0,0,0,.878-1.08V40.814h3.882c3.443,0,6.236-3.821,6.236-8.538Z" transform="translate(-1.693 -3.922)" fill="#abacad"/>
    <path id="패스_3837" data-name="패스 3837" d="M43.336,56.47H25.224a1.055,1.055,0,0,0-1.124.957v7.905H36.88c3.566-.026,6.456-4.005,6.456-8.863" transform="translate(-2.931 -6.868)" fill="#939393"/>
    <path id="패스_3838" data-name="패스 3838" d="M47.774,4.13V49.041a1.054,1.054,0,0,1-.949,1.124H38.92V10.577c.009-3.566,3.961-6.447,8.854-6.447" transform="translate(-4.734 -0.502)" fill="#939393"/>
    <path id="패스_3839" data-name="패스 3839" d="M26.46,31.75H13.284a1.045,1.045,0,0,0-1.124.949V55.536h7.905a1.054,1.054,0,0,0,.949-1.124V40.577h3.961c3.557,0,6.447-3.953,6.447-8.784Z" transform="translate(-1.479 -3.861)" fill="#939393"/>
    <path id="패스_3840" data-name="패스 3840" d="M42.13,57.17h-18.7a1.089,1.089,0,0,0-1.159.984V66.3H35.446c3.707,0,6.684-4.093,6.684-9.126" transform="translate(-2.709 -6.953)" fill="#797979"/>
    <path id="패스_3841" data-name="패스 3841" d="M48.848,3.1V49.5a1.089,1.089,0,0,1-.975,1.159H39.73V9.758c0-3.68,4.084-6.658,9.118-6.658" transform="translate(-4.832 -0.377)" fill="#797979"/>
    <path id="패스_3842" data-name="패스 3842" d="M25.2,31.24H11.6a1.089,1.089,0,0,0-1.159.993V55.8h8.125a1.08,1.08,0,0,0,.984-1.159V40.366h4.093c3.672,0,6.658-4.084,6.658-9.126Z" transform="translate(-1.27 -3.799)" fill="#797979"/>
    <path id="패스_3843" data-name="패스 3843" d="M40.941,57.87H21.617a1.115,1.115,0,0,0-1.177.993v8.4H34.108c3.759.026,6.834-4.19,6.834-9.39" transform="translate(-2.486 -7.038)" fill="#5f5d5d"/>
    <path id="패스_3844" data-name="패스 3844" d="M49.936,2.07V49.95a1.124,1.124,0,0,1-.99,1.245l-.029,0h-8.4V8.939c0-3.8,4.216-6.869,9.416-6.869" transform="translate(-4.928 -0.252)" fill="#5f5d5d"/>
    <path id="패스_3845" data-name="패스 3845" d="M23.9,30.74H9.842A1.125,1.125,0,0,0,8.7,31.759V56.081h8.389a1.116,1.116,0,0,0,1.01-1.195V40.156h4.225c3.795,0,6.878-4.216,6.878-9.416Z" transform="translate(-1.058 -3.739)" fill="#5f5d5d"/>
    <path id="패스_3846" data-name="패스 3846" d="M39.741,58.57H19.829a1.159,1.159,0,0,0-1.239,1.054v8.652H32.644c3.926,0,7.1-4.348,7.1-9.706" transform="translate(-2.261 -7.123)" fill="#413e3d"/>
    <path id="패스_3847" data-name="패스 3847" d="M51.026,1V50.4a1.16,1.16,0,0,1-1.045,1.239H41.32V8.115C41.32,4.2,45.668,1,51.026,1" transform="translate(-5.025 -0.122)" fill="#413e3d"/>
    <path id="패스_3848" data-name="패스 3848" d="M22.661,30.24H8.2A1.151,1.151,0,0,0,7,31.285v25.1h8.652a1.15,1.15,0,0,0,1.01-1.247V39.946h4.392c3.918,0,7.089-4.348,7.089-9.662Z" transform="translate(-0.851 -3.678)" fill="#413e3d"/>
    <path id="패스_3849" data-name="패스 3849" d="M38.555,59.269h-20.5a1.186,1.186,0,0,0-1.274,1.08v8.924H31.256c4.032,0,7.3-4.489,7.3-10" transform="translate(-2.041 -7.208)" fill="#231815"/>
    <path id="패스_3850" data-name="패스 3850" d="M52.116,0V50.858a1.186,1.186,0,0,1-1.08,1.274H42.12V7.334c0-4.067,4.471-7.334,10-7.334" transform="translate(-5.123 0)" fill="#231815"/>
    <path id="패스_3851" data-name="패스 3851" d="M21.391,29.74H6.459A1.186,1.186,0,0,0,5.22,30.847V56.653h8.916a1.185,1.185,0,0,0,1.072-1.274V39.736h4.48c4.032,0,7.3-4.5,7.3-10Z" transform="translate(-0.635 -3.617)" fill="#231815"/>
  </g>
</svg>
