<svg id="Layer_1" data-name="Layer 1" xmlns="http://www.w3.org/2000/svg" width="65.24" height="87.545" viewBox="0 0 65.24 87.545">
  <path id="패스_3892" data-name="패스 3892" d="M64.879,11.349.51,0V53.942l55.139,9.708Z" transform="translate(0.362)" fill="#d22127"/>
  <path id="패스_3893" data-name="패스 3893" d="M39.759,15.766,29.795,32.243l-3.4-18.818L22.7,12.758,12.754,29.149,9.4,10.416,4.96,9.63,9.831,35.336l3.589.632,9.9-16.1,3.5,18.459,3.658.649L40.819,22.193l1.692,8.922-3.162-.547-2.393,3.863L43.3,35.559l1.2,5.9,4.17.735L44.118,16.535Z" transform="translate(3.518 6.83)" fill="#fff"/>
  <path id="패스_3894" data-name="패스 3894" d="M10.563,40.18,8.255,48.794h-1.4l-1.572-5.23-1.59,5.23H2.29L0,40.18H1.743l1.333,5.435L4.649,40.18H5.914l1.572,5.435L8.819,40.18Z" transform="translate(0 28.496)" fill="#d22127"/>
  <path id="패스_3895" data-name="패스 3895" d="M12.327,48.794H6.67V40.18h5.657v1.5H8.345V43.7h3.384v1.5H8.345V47.29h3.982Z" transform="translate(4.73 28.496)" fill="#d22127"/>
  <path id="패스_3896" data-name="패스 3896" d="M16.892,46.289a2.325,2.325,0,0,1-.718,1.812,2.718,2.718,0,0,1-1.914.667H10.67V40.222h3.418a2.82,2.82,0,0,1,1.948.65,2.256,2.256,0,0,1,.7,1.709,1.983,1.983,0,0,1-.359,1.162,1.846,1.846,0,0,1-.7.615,2.034,2.034,0,0,1,.786.615,2.154,2.154,0,0,1,.393,1.316m-1.795-3.641a.923.923,0,0,0-.308-.718,1.094,1.094,0,0,0-.8-.273H12.242V43.64h1.709a1.111,1.111,0,0,0,.82-.273.923.923,0,0,0,.291-.718m.12,3.555a.957.957,0,0,0-.273-.735,1.06,1.06,0,0,0-.855-.325H12.345v2.119h1.709a1.094,1.094,0,0,0,.838-.308,1.025,1.025,0,0,0,.291-.752" transform="translate(7.567 28.523)" fill="#d22127"/>
  <path id="패스_3897" data-name="패스 3897" d="M22.715,48.766H21.005l-.513-1.521H17.382l-.513,1.521H15.16l3.128-8.546h1.3Zm-2.7-2.94L18.972,42.7l-1.094,3.128Z" transform="translate(10.752 28.524)" fill="#d22127"/>
  <path id="패스_3898" data-name="패스 3898" d="M29.68,40.18l-2.307,8.614h-1.4l-1.59-5.23-1.572,5.23h-1.4L19.1,40.18h1.76l1.333,5.435,1.555-5.435h1.265l1.572,5.435,1.333-5.435Z" transform="translate(13.546 28.496)" fill="#d22127"/>
  <path id="패스_3899" data-name="패스 3899" d="M32.313,48.766H30.6l-.5-1.521H26.929l-.53,1.521H24.69l3.128-8.546h1.316ZM29.6,45.826,28.638,42.7l-1.094,3.128Z" transform="translate(17.51 28.524)" fill="#d22127"/>
  <path id="패스_3900" data-name="패스 3900" d="M35.93,48.767H33.982l-1.709-3.418H31.059v3.418H29.35V40.221h3.418a2.718,2.718,0,0,1,2.051.786,2.478,2.478,0,0,1,.769,1.778,2.393,2.393,0,0,1-.461,1.47,2.342,2.342,0,0,1-1.111.786Zm-2.051-5.982a1.077,1.077,0,0,0-.342-.82,1.231,1.231,0,0,0-.872-.308h-1.59v2.256h1.59a1.231,1.231,0,0,0,.872-.308,1.077,1.077,0,0,0,.342-.82" transform="translate(20.815 28.523)" fill="#d22127"/>
  <path id="패스_3901" data-name="패스 3901" d="M39.819,44.425v.547a7.2,7.2,0,0,1-.12,1.572,2.752,2.752,0,0,1-.752,1.384,2.444,2.444,0,0,1-.991.615,3.88,3.88,0,0,1-1.282.222H33.58V40.22h3.094a3.88,3.88,0,0,1,1.282.205,2.7,2.7,0,0,1,.991.615,2.854,2.854,0,0,1,.752,1.367,6.94,6.94,0,0,1,.12,1.538Zm-1.709,0a10.117,10.117,0,0,0,0-1.487,1.521,1.521,0,0,0-.291-.735,1.35,1.35,0,0,0-.53-.41,1.812,1.812,0,0,0-.735-.137H35.289v5.606h1.265a1.538,1.538,0,0,0,1.162-.581,1.572,1.572,0,0,0,.291-.752,11.4,11.4,0,0,0,0-1.555" transform="translate(23.815 28.524)" fill="#d22127"/>
  <path id="패스_3902" data-name="패스 3902" d="M13.539,54.057H12.8l-1.453-5.623h0L9.9,54.057H9.129L7.42,47.22h.786l1.384,5.623h0l1.453-5.623h.786l1.419,5.623h0l1.419-5.623h.752Z" transform="translate(5.262 33.489)" fill="#2e2c2f"/>
  <path id="패스_3903" data-name="패스 3903" d="M12.28,54.02v-.684h1.487V47.884H12.28V47.2h3.743v.684H14.536v5.452h1.487v.684Z" transform="translate(8.709 33.474)" fill="#2e2c2f"/>
  <path id="패스_3904" data-name="패스 3904" d="M19.1,54.044l-3.418-5.538h0v5.521H15V47.19h.786l3.418,5.4h0V47.207h.718v6.837Z" transform="translate(10.638 33.467)" fill="#2e2c2f"/>
  <path id="패스_3905" data-name="패스 3905" d="M22.553,54.044l-3.418-5.538h0v5.521H18.4V47.19h.786l3.418,5.4h0V47.207h.718v6.837Z" transform="translate(13.049 33.467)" fill="#2e2c2f"/>
  <path id="패스_3906" data-name="패스 3906" d="M21.81,54.027V47.19h4.153v.684H22.545V50.13H25.28v.684H22.545v2.513h3.418v.684Z" transform="translate(15.468 33.467)" fill="#2e2c2f"/>
  <path id="패스_3907" data-name="패스 3907" d="M28.617,54.028l-1.829-2.7H25.506v2.7H24.72V47.192h2.342a2.324,2.324,0,0,1,1.5.444,1.88,1.88,0,0,1,.735,1.572,1.948,1.948,0,0,1-1.709,2.034l1.914,2.769Zm-.12-4.8c0-.906-.684-1.35-1.709-1.35h-1.35v2.769h1.47c1.077,0,1.709-.461,1.709-1.419Z" transform="translate(17.532 33.466)" fill="#2e2c2f"/>
  <path id="패스_3908" data-name="패스 3908" d="M.24,53.766v-.53L.907,52.6c1.59-1.521,2.342-2.325,2.342-3.265a1.111,1.111,0,0,0-1.231-1.214,2.068,2.068,0,0,0-1.316.53l-.273-.6a2.752,2.752,0,0,1,1.709-.632,1.709,1.709,0,0,1,1.9,1.812c0,1.145-.82,2.085-2.137,3.418l-.5.461h2.8v.7Z" transform="translate(0.17 33.626)" fill="#d22127"/>
  <path id="패스_3909" data-name="패스 3909" d="M4.131,48.266h0l-1.06.6L2.9,48.215l1.367-.735h.684v6.239h-.82Z" transform="translate(2.057 33.673)" fill="#d22127"/>
</svg>
