<svg id="영문로고" xmlns="http://www.w3.org/2000/svg" xmlns:xlink="http://www.w3.org/1999/xlink" width="1254.4" height="191.936" viewBox="0 0 1254.4 191.936">
  <defs>
    <clipPath id="clip-path">
      <rect id="사각형_1058" data-name="사각형 1058" width="1254.4" height="191.936" fill="#151515"/>
    </clipPath>
  </defs>
  <g id="그룹_5146" data-name="그룹 5146" clip-path="url(#clip-path)">
    <path id="패스_4121" data-name="패스 4121" d="M355.37,190.894c-1.3,0-11.443-.4-14.8-.779V156.74c2.612.238,7.349.67,7.944.718,1.768.144,3.856.289,5.925.289a28.987,28.987,0,0,0,8.412-1.091,24.664,24.664,0,0,0,17.431-23.485V3.669h36.565V129.3a61.6,61.6,0,0,1-61.478,61.592" transform="translate(96.74 1.042)" fill="#151515"/>
    <rect id="사각형_1057" data-name="사각형 1057" width="36.565" height="182.514" transform="translate(365.054 4.711)" fill="#151515"/>
    <path id="패스_4122" data-name="패스 4122" d="M828.484,186.183,739.389,56.73V186.183H703.843V3.669h36.291l89.1,129.454V3.669h35.545V186.183Z" transform="translate(199.928 1.042)" fill="#151515"/>
    <path id="패스_4123" data-name="패스 4123" d="M427.749,186.183V3.669h122.94V36.878H463.3V78.322h82.693V111.53H463.3v41.445h87.394v33.208Z" transform="translate(121.503 1.042)" fill="#151515"/>
    <path id="패스_4124" data-name="패스 4124" d="M631.877,191.936c-55.388,0-82.312-31.391-82.312-95.968S576.489,0,631.877,0c28.764,0,49.377,8.129,63.014,24.852,12.987,15.925,19.3,39.187,19.3,71.117s-6.312,55.187-19.3,71.112c-13.638,16.725-34.251,24.855-63.014,24.855m0-159.048c-31.47,0-46.766,20.633-46.766,63.08s15.3,63.079,46.766,63.079,46.766-20.633,46.766-63.079-15.3-63.08-46.766-63.08" transform="translate(156.105 0)" fill="#151515"/>
    <path id="패스_4125" data-name="패스 4125" d="M212.332,191.936c-55.388,0-82.313-31.391-82.313-95.968S156.944,0,212.332,0c28.764,0,49.377,8.129,63.014,24.852,12.987,15.925,19.3,39.187,19.3,71.117s-6.312,55.187-19.3,71.112c-13.638,16.725-34.251,24.855-63.014,24.855m0-159.048c-31.47,0-46.767,20.633-46.767,63.08s15.3,63.079,46.767,63.079S259.1,138.414,259.1,95.969s-15.3-63.08-46.766-63.08" transform="translate(36.932 0)" fill="#151515"/>
    <path id="패스_4126" data-name="패스 4126" d="M937.56,191.936c-55.388,0-82.312-31.391-82.312-95.968S882.172,0,937.56,0C965.7,0,982.426,1.936,1005.6,13.271L992.87,42.858c-20.522-8.655-43.36-9.969-55.311-9.969-31.47,0-46.766,20.633-46.766,63.08s15.3,63.079,46.766,63.079c16.247,0,28.5-2.072,37.463-6.338l.9-.428V112.573H939.13V79.365h72.335v94.229c-8.675,6.079-19.254,10.7-31.457,13.734-12.282,3.057-26.563,4.608-42.448,4.608" transform="translate(242.935 0)" fill="#151515"/>
    <path id="패스_4127" data-name="패스 4127" d="M92.818,81.867,58.024,69.325C46.231,65.075,39.4,60.82,39.4,51.644c0-12.98,14.492-18.791,28.854-18.791h1.55c15.647,0,29.088,7.934,31.26,18.456l.253,1.228h35.394l-.123-1.653c-1-13.453-8.154-26.069-20.153-35.522C103.866,5.457,87.305,0,69.808,0h-1.55C31.055,0,4.052,21.719,4.052,51.644c0,22.209,13.86,38.464,41.192,48.312L80.04,112.5c13.181,4.748,25.377,10.943,25.377,24,0,9.077-9.484,22.58-35.609,22.58h-1.55c-13.642,0-29.974-7.069-32.573-18.487l-.272-1.2H0l.125,1.655c1.018,13.456,8.319,26.07,20.56,35.521,12.825,9.906,29.721,15.361,47.573,15.361h1.55c17.684,0,34.415-4.646,47.113-13.082C132.3,168.639,140.767,153.6,140.767,136.5c0-24.787-16.133-43.169-47.949-54.634" transform="translate(0 0.001)" fill="#151515"/>
  </g>
</svg>
