<?xml version="1.0" encoding="UTF-8"?>
<svg id="_레이어_2" data-name="레이어 2" xmlns="http://www.w3.org/2000/svg" xmlns:xlink="http://www.w3.org/1999/xlink" viewBox="0 0 300 100">
  <defs>
    <style>
      .cls-1 {
        fill: none;
      }

      .cls-1, .cls-2 {
        stroke-width: 0px;
      }

      .cls-3 {
        clip-path: url(#clippath);
      }

      .cls-2 {
        fill: #fff;
      }
    </style>
    <clipPath id="clippath">
      <rect class="cls-1" width="300" height="100"/>
    </clipPath>
  </defs>
  <g id="_레이어_2-2" data-name=" 레이어 2">
    <g class="cls-3">
      <g id="_레이어_2-3" data-name="레이어 2">
        <g id="_레이어_1-2" data-name="레이어 1-2">
          <path class="cls-2" d="M202.67,38.46v2.11q0,.08-.08.08h-.9v-2.18l-1.88-2.94h1.05l1.35,2.11,1.28-2.11h1.05l-1.88,2.94Z"/>
          <path class="cls-2" d="M208.85,38.84c0,.08-.08.23-.08.3-.08.08-.15.15-.3.15h-2.18v.08c0,.15,0,.3.15.38.08.08.15.15.3.23s.3.08.38.08h1.73v.6c0,.08-.08.08-.15.08-.23,0-.38.08-.6.08h-.53c-.53.08-1.13-.08-1.58-.38-.3-.3-.53-.68-.53-1.13v-.75c0-.23.08-.45.15-.6.08-.15.23-.3.38-.45.15-.15.3-.23.53-.23.15-.08.38-.08.53-.08h.3c.23,0,.38,0,.6.08.15.08.38.15.53.23s.3.23.38.38.15.38.15.53l-.15.45ZM207.04,37.71c-.23,0-.38.08-.53.15-.15.15-.23.3-.23.53v.08h1.66q.08,0,.08-.08v-.08c0-.08,0-.23-.08-.3-.08-.15-.23-.23-.38-.3h-.53Z"/>
          <path class="cls-2" d="M211.48,40.65c-.23,0-.45,0-.6-.15-.15-.08-.3-.15-.45-.3-.15-.15-.23-.3-.3-.45-.08-.15-.08-.38-.08-.6v-.75c0-.23,0-.38.08-.6.08-.15.15-.3.3-.45.15-.15.3-.23.45-.3.23-.08.45-.08.68-.08h.53c.23,0,.45,0,.6.08s.3.15.45.3c.15.15.23.3.3.45.08.23.08.38.08.6v.68c0,.23,0,.45-.08.6s-.15.3-.3.45c-.15.15-.3.23-.45.3-.15.08-.38.08-.6.08l-.6.15ZM211.78,39.97c.23,0,.38-.08.53-.23s.23-.38.23-.6v-.6c0-.08,0-.23-.08-.3,0-.08-.08-.15-.15-.23-.08-.08-.15-.15-.23-.15-.08-.08-.23-.08-.38-.08h-.23c-.23,0-.38.08-.53.23s-.15.38-.15.6v.68c0,.23.08.45.23.6s.3.23.53.23l.23-.15Z"/>
          <path class="cls-2" d="M219.46,40.57q0,.08-.08.15h-.75v-2.71c0-.08-.08-.08-.08-.15-.08,0-.08-.08-.15-.08h-.75v2.86h-.9v-2.94h-.9q-.08,0-.08.08v2.71c0,.08-.08.15-.15.15h-.75v-3.31c0-.15.08-.3.23-.3h3.16c.23,0,.45,0,.68.08.15,0,.3.08.38.23.08.08.15.23.23.38s.08.38.08.53l-.15,2.33Z"/>
          <path class="cls-2" d="M221.79,35.38v1.13l-.08.08-.38.6-.08.08h-.23q-.08,0-.08-.08v-1.81s.83,0,.83,0Z"/>
          <path class="cls-2" d="M226.08,37.79h-1.81c-.08,0-.08.08-.15.08,0,.08-.08.08-.08.15s0,.08.08.15c0,.08.08.08.08.08l.15.08.15.08.83.23c.15,0,.23.08.38.15.15.08.23.15.3.23.08.08.15.15.23.3.08.08.08.23.08.38s0,.38-.08.53-.15.23-.3.3c-.15.08-.3.15-.45.15-.23,0-.45.08-.68.08h-.83c-.3,0-.53,0-.75-.08v-.75l.75.08h.98c.08,0,.15,0,.23-.08.08,0,.08-.08.15-.08.08-.08.08-.15.08-.15,0-.08,0-.15-.08-.23s-.23-.08-.3-.15l-.75-.15c-.15,0-.3-.08-.45-.15-.15-.08-.23-.15-.38-.23-.08-.08-.15-.15-.23-.3s-.08-.23-.08-.38c0-.3.08-.6.3-.75.3-.23.68-.3,1.05-.23h.75l.75.08.08.6Z"/>
          <path class="cls-2" d="M229.7,37.18c0-.23.08-.45.15-.68.08-.23.23-.38.38-.53s.38-.23.53-.3c.23-.08.38-.08.6-.15h1.05c.3,0,.68,0,.98.08v.75c-.3,0-.6-.08-.98-.08h-.98c-.15,0-.23.08-.38.08-.08.08-.23.08-.3.23-.08.08-.15.15-.15.23s-.08.23-.08.3v1.66c0,.15,0,.3.08.45.08.23.3.45.53.6.15.08.3.08.45.08h.83c.3,0,.6-.08.83-.08v.68q0,.08-.08.08h0c-.3,0-.6.08-.83.08h-.9c-.3,0-.6-.08-.83-.15-.23-.08-.45-.23-.6-.38s-.3-.3-.38-.53-.15-.45-.15-.68l.23-1.73Z"/>
          <path class="cls-2" d="M237.6,40.35c0,.08,0,.15-.08.15q-.08.08-.15.08h-1.81c-.15,0-.3,0-.45-.08-.15,0-.23-.08-.3-.15-.08-.08-.15-.15-.23-.3s-.08-.3-.08-.45v-.53c0-.08,0-.23.08-.3.08-.08.15-.15.23-.23s.23-.15.3-.15c.15-.08.3-.08.38-.08h1.2v-.15c0-.08,0-.15-.08-.23,0-.08-.08-.08-.15-.15-.08,0-.15-.08-.23-.08h-.98c-.23,0-.38,0-.53.08v-.68h1.58c.15,0,.38,0,.53.08.15,0,.3.08.45.15.15.08.23.23.23.38,0,.08.08.23.08.3v2.33h0ZM236.7,38.99h-.9c-.15,0-.23,0-.3.08-.08.08-.08.15-.08.23v.3c0,.23.08.38.38.38h.9q.08,0,.08-.08l-.08-.9Z"/>
          <path class="cls-2" d="M242.19,40.57v.08h-.83v-2.26c0-.23-.08-.38-.23-.53-.15-.08-.38-.15-.53-.15h-.6q-.08,0-.08.08v2.79q0,.08-.08.08h-.83v-3.46q0-.08.08-.15t.15-.08h1.58c.23,0,.45,0,.68.08.15.08.3.15.45.23.15.08.23.23.23.38.08.23.08.38.08.6l-.08,2.33Z"/>
          <path class="cls-2" d="M246.33,37.79h-1.51c-.15,0-.23.08-.3.15-.08.08-.15.15-.15.3-.08.15-.08.3-.08.38v.45c0,.15,0,.3.08.45,0,.08.08.23.15.23.08.08.23.15.3.15.15,0,.3.08.45.08h1.13v.6c0,.08,0,.15-.08.15h-1.2c-.3,0-.6,0-.83-.15-.23-.08-.38-.23-.53-.38s-.23-.3-.23-.53c-.08-.23-.08-.45-.08-.6v-.53c0-.45.15-.83.45-1.13.38-.3.83-.38,1.35-.38h1.2l-.15.75Z"/>
          <path class="cls-2" d="M250.85,38.84c0,.08-.08.23-.08.3-.08.08-.15.15-.3.15h-2.18v.08c0,.15,0,.3.15.38.08.08.15.15.3.23s.3.08.45.08h1.73v.6c0,.08-.08.15-.15.15h0c-.23,0-.38.08-.6.08h-.53c-.53.08-1.13-.08-1.58-.38-.3-.3-.53-.68-.53-1.13v-.75c0-.23.08-.45.15-.6.08-.15.23-.3.38-.45.15-.15.3-.23.53-.23.15-.08.38-.08.53-.08h.38c.23,0,.38,0,.6.08.15.08.38.15.53.23s.3.23.38.38.15.38.15.53l-.3.38ZM248.97,37.71c-.23,0-.38.08-.53.15-.15.15-.23.3-.23.53v.08h1.66q.08,0,.08-.08v-.08c0-.08,0-.23-.08-.3,0-.08-.08-.15-.15-.15-.08-.08-.15-.08-.23-.08h-.53v-.08Z"/>
          <path class="cls-2" d="M254.46,37.71h-.9c-.15,0-.3.08-.45.15-.08.15-.15.3-.15.45v2.11c0,.08-.08.15-.15.15h-.75v-2.26c-.08-.68.38-1.2,1.05-1.28h1.35v.68Z"/>
          <path class="cls-2" d="M261.76,40.57s0,.08,0,0c0,.08-.08.08,0,0l-.9.08v-2.26h-2.11v2.18q0,.08-.08.08h-.83v-5.12h.9v2.11h2.11v-2.11h.9v5.04h0Z"/>
          <path class="cls-2" d="M264.62,40.65c-.23,0-.45,0-.6-.15-.15-.08-.3-.15-.45-.3-.15-.15-.23-.3-.3-.45-.08-.15-.08-.38-.08-.6v-.75c0-.23,0-.38.08-.6.08-.15.15-.3.3-.45.15-.15.3-.23.45-.3.23-.08.45-.08.6-.08h.53c.23,0,.45,0,.6.08s.3.15.45.3c.15.15.23.3.3.45.08.23.08.38.08.6v.68c0,.23,0,.45-.08.6s-.15.3-.3.45c-.15.15-.3.23-.45.3-.15.08-.38.08-.6.08l-.53.15ZM265,39.97c.23,0,.38-.08.53-.23s.23-.38.15-.6v-.6c0-.08,0-.23-.08-.3-.08-.23-.15-.38-.38-.45-.08-.08-.23-.08-.38-.08h-.23c-.23,0-.38.08-.53.23s-.15.38-.15.6v.68c0,.23.08.45.23.6s.3.23.53.23l.3-.08Z"/>
          <path class="cls-2" d="M270.49,37.79h-1.81c-.08,0-.08.08-.15.08,0,.08-.08.08-.08.15s0,.08.08.15c0,.08.08.08.08.08l.15.08.15.08.83.23c.15,0,.23.08.38.15.15.08.23.15.3.23s.15.15.23.3c.08.08.08.23.08.38s0,.38-.08.53-.15.23-.3.3c-.15.08-.3.15-.45.15-.23,0-.45.08-.68.08h-.83c-.3,0-.53,0-.75-.08v-.75l.75.08h.98c.08,0,.15,0,.23-.08.08,0,.15-.08.15-.08.08-.08.08-.15.08-.15,0-.08-.08-.15-.08-.23-.08-.08-.23-.08-.3-.15l-.75-.15c-.15,0-.3-.08-.45-.15-.15-.08-.23-.15-.38-.23-.08-.08-.15-.15-.23-.3s-.08-.23-.08-.38c0-.3.08-.6.3-.75.3-.23.68-.3,1.05-.23h.75l.75.08.08.6Z"/>
          <path class="cls-2" d="M275.16,39.37c0,.23,0,.45-.08.6s-.15.3-.3.38c-.15.08-.3.15-.53.23-.23.08-.45.08-.68.08h-.75v1.28c0,.15-.08.15-.15.15h-.75v-4.74c0-.08,0-.15.08-.15q.08-.08.15-.08h1.66c.38,0,.75.08,1.05.3.23.23.38.6.3.98v.98ZM273.65,37.71h-.75s-.08,0-.08.08v2.11h1.05c.08,0,.15-.08.23-.08.08-.08.08-.15.15-.15,0-.08.08-.23,0-.3v-1.05c0-.15,0-.3-.15-.45-.15-.08-.3-.15-.45-.15h0Z"/>
          <path class="cls-2" d="M277.42,36.58h-.98v-.98h.98v.98ZM277.42,40.5c0,.08,0,.15-.08.15h-.75v-3.61h.9l-.08,3.46Z"/>
          <path class="cls-2" d="M279.9,37.03h.83v.6q0,.08-.08.08h-.75v1.88c0,.15,0,.23.08.23.08.08.15.08.3.08h.75v.75h-.98c-.68,0-.98-.3-.98-.9v-2.03h-.53v-.75h.53v-1.05h.9l-.08,1.13Z"/>
          <path class="cls-2" d="M285.02,40.35c0,.08,0,.15-.08.15q-.08.08-.15.08h-1.81c-.15,0-.3,0-.38-.08-.15,0-.23-.08-.3-.15-.08-.08-.15-.15-.23-.3-.08-.15-.08-.3-.08-.45v-.53c0-.08,0-.23.08-.3.08-.08.15-.15.23-.23.08-.08.23-.15.3-.15.15-.08.3-.08.38-.08h1.2v-.38c0-.08-.08-.08-.15-.15-.08,0-.15-.08-.23-.08h-.98c-.23,0-.38,0-.53.08v-.68h1.58c.15,0,.38,0,.53.08.15,0,.3.08.38.15.15.08.23.23.23.38,0,.08.08.23.08.3v.3l-.08,2.03ZM284.12,38.99h-.9c-.15,0-.23,0-.3.08s-.08.15-.08.23v.3c0,.23.08.38.38.38h.9s.08,0,.08-.08v-.9h-.08Z"/>
          <path class="cls-2" d="M287.28,40.5q0,.08-.08.15l-.08.08h-.75v-5.12h.9v4.89Z"/>
          <path class="cls-2" d="M199.51,15.58c0,.75-.15,1.51-.45,2.18-.3.68-.75,1.2-1.28,1.73-.53.53-1.2.9-1.96,1.2s-1.58.38-2.41.38-1.58-.15-2.33-.38c-.68-.23-1.35-.6-1.96-1.13-.53-.45-.98-1.05-1.28-1.73-.38-.68-.53-1.43-.45-2.18,0-.75.15-1.51.45-2.18.3-.68.75-1.28,1.28-1.73.6-.53,1.2-.9,1.96-1.13.75-.3,1.58-.38,2.33-.45.83,0,1.58.15,2.41.45.68.3,1.35.68,1.88,1.13.53.53.98,1.05,1.28,1.73.38.6.53,1.35.53,2.11ZM196.5,15.58c0-.38-.08-.83-.23-1.13-.08-.15-.15-.38-.3-.53s-.23-.3-.38-.45-.3-.23-.45-.38c-.15-.08-.3-.23-.53-.3-.38-.15-.75-.23-1.13-.23s-.83.08-1.2.23c-.38.15-.68.38-.98.6-.6.53-.9,1.28-.83,2.11,0,.38.08.83.23,1.2s.38.68.68.9c.3.3.6.45.98.6.38.15.75.23,1.2.23.38,0,.75-.08,1.13-.23.38-.15.68-.38.9-.6.3-.3.53-.6.68-.9.15-.3.23-.68.23-1.13ZM206.06,31.92h-11.44c-.9.08-1.73-.15-2.48-.6-.6-.45-.98-1.13-.9-1.88v-6.55h14.83v9.03ZM202.97,29.36v-3.84h-8.73v3.24c0,.45.23.68.75.68l7.98-.08ZM199.66,16.79h3.24v-2.56h-3.24v-2.41h3.31v-2.18h3.09v11.82h-3.09v-2.33h-3.24l-.08-2.33Z"/>
          <path class="cls-2" d="M209.15,20.02c1.43-.68,2.71-1.58,3.76-2.71.83-.9,1.35-1.96,1.58-3.16h-4.14v-2.56h4.67v-2.11h3.09v2.11h4.44v2.56h-4.22c0,.45.15.83.3,1.2.23.53.6,1.05,1.05,1.43.53.6,1.05,1.05,1.66,1.51.38.23.68.45,1.05.68s.83.45,1.35.68l-1.05.9-1.05.98c-1.13-.45-2.18-1.05-3.16-1.88-.83-.6-1.51-1.43-2.03-2.33-.23.45-.53.98-.9,1.35-.3.45-.75.83-1.13,1.2-.98.83-2.03,1.58-3.24,2.11-.15-.15-.38-.3-.53-.45s-.3-.3-.53-.53c-.15-.15-.38-.3-.53-.45s-.3-.3-.45-.53ZM228.12,27.4c0,.75-.15,1.51-.6,2.18-.38.68-.9,1.2-1.51,1.66-.6.45-1.35.75-2.11.98s-1.58.38-2.33.38c-.83,0-1.66-.08-2.41-.38-.75-.23-1.43-.6-2.11-1.05-.6-.45-1.13-.98-1.43-1.66-.38-.68-.53-1.43-.53-2.18s.15-1.58.6-2.26c.38-.68.9-1.2,1.51-1.66s1.35-.75,2.11-.98,1.58-.38,2.33-.38c.83,0,1.66.15,2.41.38s1.43.6,2.11,1.05c.6.45,1.05,1.05,1.43,1.66.3.83.53,1.51.53,2.26h0ZM225.03,27.4c0-.38-.08-.83-.3-1.13-.23-.3-.53-.6-.83-.83-.3-.23-.68-.45-1.13-.53-.38-.15-.83-.15-1.2-.15-.45,0-.9.08-1.28.15-.38.08-.75.3-1.13.53-.3.23-.6.53-.75.9-.38.75-.38,1.58,0,2.33.23.3.45.6.83.83s.68.38,1.13.45c.38.08.83.15,1.2.15.45,0,.83-.08,1.28-.15.38-.08.75-.3,1.13-.53.3-.23.53-.53.75-.83.23-.38.3-.75.3-1.2h0ZM228.27,17.01v4.59h-3.09v-11.97h3.09v4.74h3.54v2.56l-3.54.08Z"/>
          <path class="cls-2" d="M233.23,23.71v-2.41h5.49v-1.2c-.53-.15-1.05-.3-1.58-.6-.45-.23-.9-.6-1.2-.98-.38-.38-.6-.83-.83-1.28s-.3-.98-.3-1.51c0-.75.23-1.51.68-2.18h-1.73v-2.18h4.89v-2.11h3.16v2.11h4.82v2.18h-1.73c.45.6.68,1.35.68,2.18,0,.53-.08,1.05-.3,1.51-.23.45-.45.9-.83,1.28s-.75.68-1.2.9c-.45.3-.98.45-1.51.6v1.2c1.28,0,2.63-.08,3.91-.23,1.05-.15,2.03-.38,3.01-.68v-10.69h3.09v6.17h3.61v2.56h-3.54v7.45h-3.09v-3.24c-.68.23-1.43.45-2.11.53-.75.15-1.51.23-2.33.3s-1.58.15-2.41.15h-2.33l-6.32.15ZM251.98,31.84h-11.74c-.83.08-1.73-.15-2.48-.6-.6-.38-.98-1.13-.9-1.88v-4.22h3.09v3.39c0,.45.23.68.75.68h11.37l-.08,2.63ZM242.42,15.81c0-.53-.23-1.05-.6-1.43-.45-.38-1.05-.53-1.66-.53-.6-.08-1.2.15-1.66.6-.38.38-.6.9-.6,1.43s.23,1.05.68,1.43c.45.38,1.05.6,1.58.6.6,0,1.2-.15,1.66-.6.38-.45.6-.98.6-1.51Z"/>
          <path class="cls-2" d="M263.04,20.78c-1.2.08-2.48-.3-3.46-.98-.9-.68-1.43-1.81-1.35-2.94v-6.55h3.09v3.01h5.42v-3.01h3.09v1.73h3.54v-2.41h3.09v11.97h-3.09v-2.71h-3.54v1.88h-6.77ZM266.73,15.81h-5.42v.45c0,.23,0,.53.08.75s.15.45.38.6c.15.23.38.38.68.45.38.15.75.15,1.05.15h3.24v-2.41ZM275.99,27.4c0,.75-.15,1.51-.53,2.11s-.83,1.2-1.35,1.66c-.3.23-.68.45-.98.6-.38.15-.68.3-1.05.45-.83.23-1.66.38-2.56.38-.83,0-1.66-.15-2.48-.38-.75-.23-1.43-.6-2.03-1.05-.6-.45-1.05-.98-1.43-1.66s-.53-1.43-.53-2.18.15-1.51.53-2.26c.38-.68.83-1.2,1.43-1.66.6-.45,1.28-.83,2.03-1.05.83-.23,1.66-.38,2.48-.38s1.73.15,2.56.38c.38.15.75.3,1.05.45.38.15.68.38.98.6.6.45,1.05,1.05,1.43,1.66.23.83.45,1.58.45,2.33ZM272.9,27.4c0-.38-.08-.75-.23-1.13-.23-.3-.45-.6-.75-.83-.15-.15-.3-.23-.53-.3-.15-.08-.38-.15-.6-.23-.45-.15-.9-.15-1.35-.23-.45,0-.9.08-1.35.23-.38.15-.75.3-1.13.53-.3.23-.6.53-.75.9-.23.38-.3.75-.3,1.13s.08.75.3,1.13c.23.3.45.6.75.83.15.15.3.23.53.3l.6.23.75.08c.23,0,.45.08.68.08s.45,0,.68-.08l.68-.15.6-.23c.15-.08.38-.15.53-.3.3-.23.53-.53.75-.83.08-.38.15-.75.15-1.13ZM273.28,16.56v-2.11h-3.54v2.11h3.54Z"/>
          <path class="cls-2" d="M286,24.91v-3.24h-5.27v-2.26h8.66c.6,0,1.28-.08,1.88-.15,1.28-.08,2.56-.3,3.76-.6l.23,2.26c-.98.23-2.03.38-3.09.53-.53.08-1.13.15-1.66.15l-1.66.08v3.31l-2.86-.08ZM293.6,13.85c0,.6-.15,1.28-.45,1.81-.3.53-.68.98-1.2,1.28-.53.38-1.13.6-1.81.83-1.43.38-2.94.38-4.37,0-.6-.15-1.2-.45-1.73-.83-.45-.38-.9-.83-1.13-1.35-.3-.53-.45-1.13-.45-1.73,0-.68.15-1.28.45-1.88.3-.53.68-.98,1.2-1.35s1.13-.68,1.73-.83c.68-.23,1.43-.3,2.18-.3s1.58.08,2.33.3c.68.15,1.28.53,1.81.9.45.38.83.83,1.13,1.35.15.68.3,1.2.3,1.81ZM300,32.07h-12.19c-.9.08-1.73-.15-2.48-.6-.6-.38-.98-1.13-.9-1.88v-3.91h3.09v3.16c0,.45.23.68.75.68h11.74v2.56ZM290.74,13.85c0-.6-.23-1.2-.75-1.51-.6-.38-1.28-.53-1.96-.53-.68-.08-1.43.15-2.03.53-.45.38-.75.9-.75,1.51s.3,1.13.75,1.43c.6.38,1.28.53,1.96.53.38,0,.68-.08,1.05-.15.3-.08.6-.23.83-.45.23-.15.45-.38.6-.6.23-.23.3-.45.3-.75ZM291.87,22.58h4.82v-12.95h3.09v17.09h-3.09v-1.96h-4.82v-2.18Z"/>
          <path class="cls-2" d="M130.19,28.08h-6.1c-3.31,0-5.95-2.63-5.95-5.95s2.63-5.95,5.95-5.95h11.59v-7.38h-11.59c-7.38,0-13.32,5.95-13.32,13.32s5.95,13.32,13.32,13.32h12.72-.23c0-7.15-5.57-7.38-6.4-7.38Z"/>
          <path class="cls-2" d="M98.72,15.36h0v5.57c0,3.99-3.24,7.23-7.23,7.23s-7.23-3.24-7.23-7.23v-12.04h-7.38v12.04c0,8.05,6.55,14.6,14.6,14.6s14.6-6.55,14.6-14.6h0v-12.04c-7.68,0-7.38,6.47-7.38,6.47Z"/>
          <path class="cls-2" d="M155.1,8.81c-8.05,0-14.6,6.55-14.6,14.6v12.12h7.38v-12.04c0-3.99,3.24-7.23,7.23-7.23s7.23,3.24,7.23,7.23v5.57h0s-.3,6.47,7.38,6.47v-12.04c0-8.13-6.55-14.68-14.6-14.68Z"/>
          <path class="cls-2" d="M144.34,8.88c2.48,0,4.44-2.03,4.44-4.44S146.75,0,144.34,0s-4.44,2.03-4.44,4.44h0c-.08,2.41,1.96,4.44,4.44,4.44h0Z"/>
          <path class="cls-2" d="M104.52,33.12c-2.48,0-4.44,2.03-4.44,4.44s2.03,4.44,4.44,4.44,4.44-2.03,4.44-4.44h0c0-2.48-2.03-4.44-4.44-4.44Z"/>
          <path class="cls-2" d="M199.51,15.58c0,.75-.15,1.51-.45,2.18-.3.68-.75,1.2-1.28,1.73-.53.53-1.2.9-1.96,1.2s-1.58.38-2.41.38-1.58-.15-2.33-.38c-.68-.23-1.35-.6-1.96-1.13-.53-.45-.98-1.05-1.28-1.73-.38-.68-.53-1.43-.45-2.18,0-.75.15-1.51.45-2.18.3-.68.75-1.28,1.28-1.73.6-.53,1.2-.9,1.96-1.13.75-.3,1.58-.38,2.33-.45.83,0,1.58.15,2.41.45.68.3,1.35.68,1.88,1.13.53.53.98,1.05,1.28,1.73.38.6.53,1.35.53,2.11ZM196.5,15.58c0-.38-.08-.83-.23-1.13-.08-.15-.15-.38-.3-.53s-.23-.3-.38-.45-.3-.23-.45-.38c-.15-.08-.3-.23-.53-.3-.38-.15-.75-.23-1.13-.23s-.83.08-1.2.23c-.38.15-.68.38-.98.6-.6.53-.9,1.28-.83,2.11,0,.38.08.83.23,1.2s.38.68.68.9c.3.3.6.45.98.6.38.15.75.23,1.2.23.38,0,.75-.08,1.13-.23.38-.15.68-.38.9-.6.3-.3.53-.6.68-.9.15-.3.23-.68.23-1.13ZM206.06,31.92h-11.44c-.9.08-1.73-.15-2.48-.6-.6-.45-.98-1.13-.9-1.88v-6.55h14.83v9.03ZM202.97,29.36v-3.84h-8.73v3.24c0,.45.23.68.75.68l7.98-.08ZM199.66,16.79h3.24v-2.56h-3.24v-2.41h3.31v-2.18h3.09v11.82h-3.09v-2.33h-3.24l-.08-2.33Z"/>
          <path class="cls-2" d="M209.15,20.02c1.43-.68,2.71-1.58,3.76-2.71.83-.9,1.35-1.96,1.58-3.16h-4.14v-2.56h4.67v-2.11h3.09v2.11h4.44v2.56h-4.22c0,.45.15.83.3,1.2.23.53.6,1.05,1.05,1.43.53.6,1.05,1.05,1.66,1.51.38.23.68.45,1.05.68s.83.45,1.35.68l-1.05.9-1.05.98c-1.13-.45-2.18-1.05-3.16-1.88-.83-.6-1.51-1.43-2.03-2.33-.23.45-.53.98-.9,1.35-.3.45-.75.83-1.13,1.2-.98.83-2.03,1.58-3.24,2.11-.15-.15-.38-.3-.53-.45s-.3-.3-.53-.53c-.15-.15-.38-.3-.53-.45s-.3-.3-.45-.53ZM228.12,27.4c0,.75-.15,1.51-.6,2.18-.38.68-.9,1.2-1.51,1.66-.6.45-1.35.75-2.11.98s-1.58.38-2.33.38c-.83,0-1.66-.08-2.41-.38-.75-.23-1.43-.6-2.11-1.05-.6-.45-1.13-.98-1.43-1.66-.38-.68-.53-1.43-.53-2.18s.15-1.58.6-2.26c.38-.68.9-1.2,1.51-1.66s1.35-.75,2.11-.98,1.58-.38,2.33-.38c.83,0,1.66.15,2.41.38s1.43.6,2.11,1.05c.6.45,1.05,1.05,1.43,1.66.3.83.53,1.51.53,2.26h0ZM225.03,27.4c0-.38-.08-.83-.3-1.13-.23-.3-.53-.6-.83-.83-.3-.23-.68-.45-1.13-.53-.38-.15-.83-.15-1.2-.15-.45,0-.9.08-1.28.15-.38.08-.75.3-1.13.53-.3.23-.6.53-.75.9-.38.75-.38,1.58,0,2.33.23.3.45.6.83.83s.68.38,1.13.45c.38.08.83.15,1.2.15.45,0,.83-.08,1.28-.15.38-.08.75-.3,1.13-.53.3-.23.53-.53.75-.83.23-.38.3-.75.3-1.2h0ZM228.27,17.01v4.59h-3.09v-11.97h3.09v4.74h3.54v2.56l-3.54.08Z"/>
          <path class="cls-2" d="M233.23,23.71v-2.41h5.49v-1.2c-.53-.15-1.05-.3-1.58-.6-.45-.23-.9-.6-1.2-.98-.38-.38-.6-.83-.83-1.28s-.3-.98-.3-1.51c0-.75.23-1.51.68-2.18h-1.73v-2.18h4.89v-2.11h3.16v2.11h4.82v2.18h-1.73c.45.6.68,1.35.68,2.18,0,.53-.08,1.05-.3,1.51-.23.45-.45.9-.83,1.28s-.75.68-1.2.9c-.45.3-.98.45-1.51.6v1.2c1.28,0,2.63-.08,3.91-.23,1.05-.15,2.03-.38,3.01-.68v-10.69h3.09v6.17h3.61v2.56h-3.54v7.45h-3.09v-3.24c-.68.23-1.43.45-2.11.53-.75.15-1.51.23-2.33.3s-1.58.15-2.41.15h-2.33l-6.32.15ZM251.98,31.84h-11.74c-.83.08-1.73-.15-2.48-.6-.6-.38-.98-1.13-.9-1.88v-4.22h3.09v3.39c0,.45.23.68.75.68h11.37l-.08,2.63ZM242.42,15.81c0-.53-.23-1.05-.6-1.43-.45-.38-1.05-.53-1.66-.53-.6-.08-1.2.15-1.66.6-.38.38-.6.9-.6,1.43s.23,1.05.68,1.43c.45.38,1.05.6,1.58.6.6,0,1.2-.15,1.66-.6.38-.45.6-.98.6-1.51Z"/>
          <path class="cls-2" d="M263.04,20.78c-1.2.08-2.48-.3-3.46-.98-.9-.68-1.43-1.81-1.35-2.94v-6.55h3.09v3.01h5.42v-3.01h3.09v1.73h3.54v-2.41h3.09v11.97h-3.09v-2.71h-3.54v1.88h-6.77ZM266.73,15.81h-5.42v.45c0,.23,0,.53.08.75s.15.45.38.6c.15.23.38.38.68.45.38.15.75.15,1.05.15h3.24v-2.41ZM275.99,27.4c0,.75-.15,1.51-.53,2.11s-.83,1.2-1.35,1.66c-.3.23-.68.45-.98.6-.38.15-.68.3-1.05.45-.83.23-1.66.38-2.56.38-.83,0-1.66-.15-2.48-.38-.75-.23-1.43-.6-2.03-1.05-.6-.45-1.05-.98-1.43-1.66s-.53-1.43-.53-2.18.15-1.51.53-2.26c.38-.68.83-1.2,1.43-1.66.6-.45,1.28-.83,2.03-1.05.83-.23,1.66-.38,2.48-.38s1.73.15,2.56.38c.38.15.75.3,1.05.45.38.15.68.38.98.6.6.45,1.05,1.05,1.43,1.66.23.83.45,1.58.45,2.33ZM272.9,27.4c0-.38-.08-.75-.23-1.13-.23-.3-.45-.6-.75-.83-.15-.15-.3-.23-.53-.3-.15-.08-.38-.15-.6-.23-.45-.15-.9-.15-1.35-.23-.45,0-.9.08-1.35.23-.38.15-.75.3-1.13.53-.3.23-.6.53-.75.9-.23.38-.3.75-.3,1.13s.08.75.3,1.13c.23.3.45.6.75.83.15.15.3.23.53.3l.6.23.75.08c.23,0,.45.08.68.08s.45,0,.68-.08l.68-.15.6-.23c.15-.08.38-.15.53-.3.3-.23.53-.53.75-.83.08-.38.15-.75.15-1.13ZM273.28,16.56v-2.11h-3.54v2.11h3.54Z"/>
          <path class="cls-2" d="M286,24.91v-3.24h-5.27v-2.26h8.66c.6,0,1.28-.08,1.88-.15,1.28-.08,2.56-.3,3.76-.6l.23,2.26c-.98.23-2.03.38-3.09.53-.53.08-1.13.15-1.66.15l-1.66.08v3.31l-2.86-.08ZM293.6,13.85c0,.6-.15,1.28-.45,1.81-.3.53-.68.98-1.2,1.28-.53.38-1.13.6-1.81.83-1.43.38-2.94.38-4.37,0-.6-.15-1.2-.45-1.73-.83-.45-.38-.9-.83-1.13-1.35-.3-.53-.45-1.13-.45-1.73,0-.68.15-1.28.45-1.88.3-.53.68-.98,1.2-1.35s1.13-.68,1.73-.83c.68-.23,1.43-.3,2.18-.3s1.58.08,2.33.3c.68.15,1.28.53,1.81.9.45.38.83.83,1.13,1.35.15.68.3,1.2.3,1.81ZM300,32.07h-12.19c-.9.08-1.73-.15-2.48-.6-.6-.38-.98-1.13-.9-1.88v-3.91h3.09v3.16c0,.45.23.68.75.68h11.74v2.56ZM290.74,13.85c0-.6-.23-1.2-.75-1.51-.6-.38-1.28-.53-1.96-.53-.68-.08-1.43.15-2.03.53-.45.38-.75.9-.75,1.51s.3,1.13.75,1.43c.6.38,1.28.53,1.96.53.38,0,.68-.08,1.05-.15.3-.08.6-.23.83-.45.23-.15.45-.38.6-.6.23-.23.3-.45.3-.75ZM291.87,22.58h4.82v-12.95h3.09v17.09h-3.09v-1.96h-4.82v-2.18Z"/>
        </g>
      </g>
    </g>
  </g>
</svg>