<?xml version="1.0" encoding="UTF-8"?>
<svg id="_레이어_2" data-name="레이어 2" xmlns="http://www.w3.org/2000/svg" xmlns:xlink="http://www.w3.org/1999/xlink" viewBox="0 0 300 100">
  <defs>
    <style>
      .cls-1 {
        fill: none;
      }

      .cls-1, .cls-2 {
        stroke-width: 0px;
      }

      .cls-3 {
        clip-path: url(#clippath);
      }

      .cls-2 {
        fill: #fff;
      }
    </style>
    <clipPath id="clippath">
      <rect class="cls-1" width="300" height="100"/>
    </clipPath>
  </defs>
  <g id="_레이어_2-2" data-name=" 레이어 2">
    <g class="cls-3">
      <g>
        <path class="cls-2" d="M149.26,11.75h-8.59s-1.85-.11-1.85-2.5c0,0-.44-2.29,2.18-2.72h13.27V2.39h-13.05s-7.07-.22-7.24,7.24c0,0,.17,6.15,6.58,6.04h7.72s3.05.33,2.83,3.48c0,0,.22,2.72-3.59,3.16h-14.14v4.13h15.77s7.29-.44,7.07-7.61c0,0,.33-6.42-6.96-7.07h0Z"/>
        <path class="cls-2" d="M170.8,15.99h-7.89v3.92h8.16c5.93.22,5.33-3.92,5.33-3.92,0-6.2-8.97-6.36-8.97-6.36-10.23-.22-10.06,8.7-10.06,8.7.38,8.16,8.65,7.78,8.65,7.78h9.63v-3.86h-9.41c-4.24-.38-4.46-4.3-4.46-4.3.71-4.62,5.44-4.41,5.44-4.41,3.37.05,4.08,1.47,4.08,1.47.6,1.03-.49.98-.49.98h0Z"/>
        <path class="cls-2" d="M187.34,9.41c-10.29.05-9.74,8.76-9.74,8.76,0,0,0,8.87,9.96,8.49,9.96-.38,9.36-8.32,9.36-8.32,0,0,.76-8.98-9.57-8.92h0ZM187.23,22.36c-5.17,0-5.11-4.41-5.11-4.41,0,0-.11-4.19,5.06-4.35,4.84-.15,5,4.3,5,4.3,0,0,.22,4.46-4.95,4.46Z"/>
        <path class="cls-2" d="M213.61,25.68h1.91v-3.86c-2.34.11-2.5-1.74-2.5-1.74v-10.17h-4.24v9.79s.11,2.56-3.27,2.45c-3.37-.11-3.26-2.61-3.26-2.61v-9.52h-4.3v11.32c0,2.72,3.59,5,7.51,5s5.66-1.74,5.66-1.74c1.03,1.25,2.5,1.09,2.5,1.09h0Z"/>
        <path class="cls-2" d="M231.45,36.55v-10.88h1.3s6.47-.33,6.69-7.24c0,0-.11-5.87-6.25-5.98-6.15-.11-6.42,6.31-6.42,6.31v3.05h-4.35s-1.58.16-1.47-2.01V0h-4.46v19.8s.11,5.17,5.11,5.88h5.28v9.52s-13.49-3.21-14.74,6.36c0,0-.32,5.52,8.54,6.36,0,0,7.18.6,10.01-6.8,0,0,18.44,8.38,26.98.22l-2.78-3.59s-6.42,6.58-23.45-1.2h0ZM220.74,43.95c-3.86-.16-3.75-2.39-3.75-2.39-.05-.87.87-2.99,4.68-2.94,3.81.05,4.84.87,4.84.87.05.98-1.9,4.62-5.77,4.46h0ZM233.09,17.08c1.79,0,1.74,1.8,1.74,1.8,0,0,.16,2.99-3.37,2.72v-2.72s-.16-1.8,1.63-1.8Z"/>
        <path class="cls-2" d="M257.73,32.64v-10.61h-4.51v.93c-3.05-1.9-5.77-1.58-5.77-1.58-9.03.05-9.09,8.87-9.09,8.87.38,6.04,4.79,8.49,9.47,8.54,4.68.05,6.64-2.23,6.64-2.23,1.3,1.74,3.05,1.41,3.05,1.41h2.39v-3.97c-2.07,0-2.18-1.36-2.18-1.36h0ZM248.16,34.38c-5.06.22-5.06-4.24-5.06-4.24,0,0-.11-4.46,4.95-4.46s5.11,4.3,5.11,4.3c0,0,.05,4.19-5,4.41h0Z"/>
        <path class="cls-2" d="M276.5,32.48v-6.75c-.43-3.37-3.21-4.08-6.42-4.41-3.21-.33-5.17,1.47-5.17,1.47v-.82h-4.14v15.88h4.24v-10.5s.16-2.23,3.54-2.29c3.88-.06,3.65,3.16,3.65,3.16v4.84c.76,4.84,4.73,4.51,4.73,4.51h2.01v-3.81c-2.34.33-2.45-1.3-2.45-1.3h0Z"/>
        <path class="cls-2" d="M297.49,31.88V11.69h-4.35v10.28c-1.63-.82-5.16-1.14-5.16-1.14-5.77.06-9.14,4.19-9.09,8.81.05,4.62,3.54,8.59,8.76,8.59s7.07-2.5,7.07-2.5c.92,2.07,3.26,1.69,3.26,1.69h2.01v-3.81c-2.61.16-2.5-1.74-2.5-1.74h0ZM293.58,29.75c0,3.75-4.24,4.24-5.06,4.19-.82-.05-4.95-.38-4.95-4.3,0-4.3,5.06-4.46,5.06-4.46,5.55.27,4.95,4.57,4.95,4.57h0Z"/>
      </g>
    </g>
  </g>
</svg>