<?xml version="1.0" encoding="UTF-8"?>
<svg id="_레이어_2" data-name="레이어 2" xmlns="http://www.w3.org/2000/svg" xmlns:xlink="http://www.w3.org/1999/xlink" viewBox="0 0 300 100">
  <defs>
    <style>
      .cls-1 {
        fill: none;
      }

      .cls-1, .cls-2 {
        stroke-width: 0px;
      }

      .cls-3 {
        clip-path: url(#clippath);
      }

      .cls-2 {
        fill: #fff;
      }
    </style>
    <clipPath id="clippath">
      <rect class="cls-1" width="300" height="100"/>
    </clipPath>
  </defs>
  <g id="_레이어_2-2" data-name=" 레이어 2">
    <g class="cls-3">
      <g id="Layer_1-2" data-name="Layer 1-2">
        <g id="_그룹_1" data-name=" 그룹 1">
          <path id="_패스_1" data-name=" 패스 1" class="cls-2" d="M294.11,13.38c-3.25,0-5.89-2.64-5.89-5.89s2.64-5.89,5.89-5.89,5.89,2.64,5.89,5.89-2.64,5.89-5.89,5.89M294.11,3.08c-2.45,0-4.42,1.98-4.42,4.42s1.98,4.42,4.42,4.42,4.42-1.98,4.42-4.42-1.98-4.41-4.42-4.42"/>
          <path id="_패스_2" data-name=" 패스 2" class="cls-2" d="M294.28,8.51h-.98v1.77s-.03.08-.08.08h-1.31s-.08-.03-.08-.08h0v-5.6s.03-.08.08-.08h2.67c1.09-.05,2.02.79,2.07,1.89v.1c0,.68-.38,1.3-.98,1.63l1.12,2.01s0,.08-.03.1h-1.44s-.05-.02-.07-.04l-.98-1.81v.03ZM293.3,7.27h1.26c.33.01.6-.24.61-.57v-.07c.02-.34-.23-.63-.57-.64h-1.3v1.28h0Z"/>
          <path id="_패스_3" data-name=" 패스 3" class="cls-2" d="M254.68,22.2v16.06c0,.3-.23.53-.53.53h-4.72c-.3,0-.53-.23-.53-.53h0v-15.7c0-3.75-2.04-5.84-5.2-5.84-3.42,0-5.84,2.19-5.84,7.06v14.46c0,.3-.23.53-.53.53h-4.72c-.3,0-.53-.23-.53-.53h0v-15.7c0-3.75-1.88-5.84-5.03-5.84s-5.94,2.19-5.94,7.06v14.46c0,.3-.23.53-.53.53h-4.72c-.3,0-.53-.23-.53-.53h0V12.56c0-.3.23-.53.53-.53h4.72c.3,0,.53.23.53.53h0v2.68c1.67-2.58,4.59-4.07,7.65-3.9,3.13-.13,6.06,1.5,7.6,4.23,1.77-2.78,4.9-4.39,8.19-4.23,6.05,0,10.12,4.18,10.12,10.86"/>
          <path id="_패스_4" data-name=" 패스 4" class="cls-2" d="M257.93,5.3c.37-2.36,2.58-3.99,4.94-3.62,1.06.2,1.94.97,2.28,1.99.9,2.57-1.48,5.32-4.06,5.32-1.75.03-3.19-1.37-3.22-3.12,0-.19.01-.39.04-.58M259.25,12.01h4.72c.3,0,.53.23.53.53v25.71c0,.3-.23.53-.53.53h-4.72c-.3,0-.53-.23-.53-.53h0V12.56c0-.3.23-.53.53-.53h0"/>
          <path id="_패스_5" data-name=" 패스 5" class="cls-2" d="M205.87,30.44v-12.85h4.63c.2,0,.4-.12.48-.32l2.05-4.5c.12-.26,0-.58-.26-.7-.07-.03-.14-.05-.22-.05h-6.68v-6.68c0-.3-.23-.53-.53-.53-.07,0-.15.02-.22.05l-4.72,2.14c-.19.08-.32.28-.32.48v22.95c0,6.84,3.4,9.34,11.94,8.41.26-.03.47-.25.47-.53v-4.16c0-.3-.23-.53-.53-.53h-.02c-4.03.18-6.08.09-6.08-3.18"/>
          <path id="_패스_6" data-name=" 패스 6" class="cls-2" d="M268.56,38.26c0,.3.23.53.53.53h4.72c.3,0,.53-.23.53-.53V.53C274.34.23,274.1,0,273.81,0,273.74,0,273.65.02,273.59.05l-4.72,2.14c-.19.08-.32.28-.32.48v35.59Z"/>
          <path id="_패스_7" data-name=" 패스 7" class="cls-2" d="M278.39,2.67v35.59c0,.3.23.53.53.53h4.72c.3,0,.53-.23.53-.53h0V.53C284.17.23,283.94,0,283.64,0,283.57,0,283.49.02,283.43.05l-4.72,2.14c-.19.08-.32.28-.32.48"/>
          <path id="_패스_8" data-name=" 패스 8" class="cls-2" d="M197.23,24.61c-.41-7.8-7.05-13.79-14.85-13.38-7.8.41-13.79,7.05-13.38,14.85.38,7.23,6.16,13,13.38,13.38,7.83.38,14.47-5.67,14.85-13.49.02-.45.02-.91,0-1.37M191.48,25.34c-.75,4.71-4.76,8.21-9.53,8.35-3.91.11-7.18-2.98-7.29-6.89-.01-.49.02-.98.11-1.47.75-4.71,4.76-8.21,9.53-8.35,3.91-.11,7.18,2.98,7.29,6.89.01.49-.02.98-.11,1.47"/>
          <path id="_패스_9" data-name=" 패스 9" class="cls-2" d="M165.41,1.65l-4.72,2.14c-.19.08-.32.28-.32.48v11.55c-2.18-2.96-5.7-4.65-9.37-4.49-7.29,0-13.33,6.1-13.33,14.09s6.04,14.08,13.33,14.08c3.69.15,7.21-1.56,9.37-4.56v3.32c0,.3.23.53.53.53h4.72c.3,0,.53-.23.53-.53h0V2.14c0-.3-.23-.53-.53-.53-.07,0-.15.02-.22.05M160.48,25.36c-.78,4.83-4.88,8.42-9.77,8.56-4.02.11-7.36-3.05-7.47-7.06-.01-.5.02-1,.11-1.5.78-4.83,4.88-8.42,9.77-8.56,4.02-.11,7.36,3.05,7.47,7.06.01.5-.02,1-.11,1.5"/>
        </g>
      </g>
    </g>
  </g>
</svg>