<?xml version="1.0" encoding="UTF-8"?>
<svg id="_레이어_2" data-name="레이어 2" xmlns="http://www.w3.org/2000/svg" xmlns:xlink="http://www.w3.org/1999/xlink" viewBox="0 0 300 100">
  <defs>
    <style>
      .cls-1 {
        fill: none;
      }

      .cls-1, .cls-2 {
        stroke-width: 0px;
      }

      .cls-3 {
        clip-path: url(#clippath);
      }

      .cls-2 {
        fill: #fff;
      }
    </style>
    <clipPath id="clippath">
      <rect class="cls-1" width="300" height="100"/>
    </clipPath>
  </defs>
  <g id="_레이어_2-2" data-name=" 레이어 2">
    <g class="cls-3">
      <g id="BI">
        <path class="cls-2" d="M186.44,13.06c-3.94-4.17-10.66-4.17-14.6-.23-3.94,3.94-4.17,10.66-.23,14.6,3.94,4.17,10.66,4.17,14.6.23,2.09-1.85,3.01-4.63,3.24-7.42,0-2.55-1.16-5.1-3.01-7.18ZM179.02,25.57c-2.78,0-5.1-2.32-5.1-5.1s2.32-5.1,5.1-5.1,5.1,2.32,5.1,5.1h0c0,2.78-2.32,5.1-5.1,5.1h0Z"/>
        <path class="cls-2" d="M218.42,10.05h0c1.39,0,2.55,1.16,2.55,2.55v15.53c0,1.39-1.16,2.55-2.55,2.55h0c-1.39,0-2.55-1.16-2.55-2.55v-15.3c-.23-1.62.93-2.78,2.55-2.78Z"/>
        <path class="cls-2" d="M161.64,24.18c-2.09,1.85-5.33,1.85-7.42,0-2.09-2.09-2.09-5.33,0-7.18.93-.93,2.32-1.39,3.71-1.39s2.55.46,3.48,1.62c.93,1.16,2.78,1.16,3.71,0,1.16-.93,1.16-2.78,0-3.71-4.17-3.94-10.66-3.94-14.6,0s-3.94,10.66,0,14.6c3.94,3.94,10.66,3.94,14.6,0,.93-1.16.93-2.78,0-3.71-.93-1.39-2.55-1.39-3.48-.23h0Z"/>
        <path class="cls-2" d="M262.68,19.78c-1.39,0-2.55,1.16-2.55,2.55v2.32c-.93.46-1.85.93-2.78.93-2.78,0-5.1-2.32-5.1-5.1s2.32-5.1,5.1-5.1c1.39,0,2.78.46,3.71,1.39,1.16.93,2.78.7,3.71-.23.93-.93.93-2.32,0-3.48-4.17-3.94-10.66-3.94-14.6,0-3.94,4.17-3.94,10.66,0,14.6s10.66,3.94,14.6,0c.46-.46.7-1.16.7-1.85v-3.48c0-1.39-1.16-2.55-2.78-2.55Z"/>
        <path class="cls-2" d="M241.13,10.05c-1.39,0-2.55,1.16-2.78,2.55v8.34l-8.34-9.96h0c-.93-1.16-2.55-1.16-3.71-.23-.46.46-.93,1.16-.93,1.85v15.53c0,1.39,1.16,2.55,2.55,2.55s2.55-1.16,2.55-2.55v-8.34l8.34,9.96h0c.93,1.16,2.55,1.16,3.71.23.46-.46.93-1.16.93-1.85v-15.3c.23-1.62-.93-2.78-2.32-2.78Z"/>
        <path class="cls-2" d="M208.22,13.06c-1.85-1.85-4.63-3.01-7.42-3.01h-5.33c-1.39,0-2.55,1.16-2.55,2.55v15.53c0,1.39,1.16,2.55,2.55,2.55h5.33c5.79,0,10.43-4.63,10.43-10.43,0-2.55-.93-5.1-3.01-7.18h0ZM204.51,24.18c-.93.93-2.32,1.39-3.71,1.39h-2.55v-10.2h2.55c2.78,0,5.1,2.32,5.1,5.1h0c.23,1.39-.46,2.55-1.39,3.71Z"/>
        <path class="cls-2" d="M258.74,38.32h0c-1.62,0-2.78,1.16-2.78,2.55v7.65h0c.23,2.78-1.85,5.33-4.63,5.33s-5.33-1.85-5.33-4.63v-8.34c0-1.39-1.16-2.55-2.55-2.55h-.23c-1.39,0-2.55,1.16-2.55,2.55h0v7.65c0,5.79,4.63,10.43,10.43,10.43s10.43-4.63,10.43-10.43v-7.65c-.23-1.39-1.39-2.55-2.78-2.55h0Z"/>
        <path class="cls-2" d="M161.64,52.22c-2.09,2.09-5.33,2.09-7.18,0s-2.09-5.33,0-7.18c.93-.93,2.32-1.39,3.71-1.39s2.55.46,3.71,1.39c1.16.93,2.78.7,3.71-.23.93-.93.93-2.32,0-3.48-4.17-3.94-10.66-3.94-14.6,0-3.94,4.17-3.94,10.66,0,14.6,3.94,3.94,10.66,3.94,14.6,0,.93-.93.93-2.78,0-3.71-1.39-.93-3.01-.93-3.94,0Z"/>
        <path class="cls-2" d="M229.31,38.32h-6.95c-3.01,0-5.33,2.32-5.33,5.33v12.75c0,1.39,1.16,2.55,2.55,2.55s2.55-1.16,2.55-2.55v-2.55h6.95c4.4,0,7.88-3.48,7.88-7.88h0c.23-4.17-3.24-7.65-7.65-7.65h0ZM229.31,48.75h-6.95v-5.1h6.95c1.39-.23,2.55.93,2.78,2.32.23,1.39-.93,2.55-2.32,2.78h-.46Z"/>
        <path class="cls-2" d="M280.99,40.87h0c0-1.39-1.16-2.55-2.78-2.55h-7.65c-3.71,0-6.49,3.01-6.49,6.49h0c0,3.71,3.01,6.49,6.49,6.49h5.33c.7,0,1.16.46,1.16,1.16h0c0,.7-.46,1.16-1.16,1.16h-9.27c-1.39,0-2.55,1.16-2.55,2.55h0c0,1.39,1.16,2.55,2.55,2.55h9.27c3.48,0,6.49-2.78,6.49-6.49h0c0-3.71-3.01-6.49-6.49-6.49h-5.33c-.7,0-1.16-.46-1.16-1.16h0c0-.7.46-1.16,1.16-1.16h7.65c1.62.23,2.78-.93,2.78-2.55Z"/>
        <path class="cls-2" d="M188.52,55.24l-7.88-15.53h0c-.23-.46-.7-.93-1.16-1.16h0c-1.39-.7-2.78-.23-3.48,1.16h0l-7.88,15.53c-.7,1.39-.23,2.78,1.16,3.48h0c1.39.7,2.78.23,3.48-1.16h0l5.56-10.89,5.56,10.89c.7,1.39,2.32,1.85,3.48,1.16h0c1.39-.46,1.85-2.09,1.16-3.48h0Z"/>
        <path class="cls-2" d="M211,38.32c-.7,0-1.39.23-1.85.7l-6.72,6.72h0l-6.72-6.72c-.46-.46-1.16-.7-1.85-.7h0c-1.39,0-2.55,1.16-2.55,2.55v15.53c0,1.39,1.16,2.55,2.55,2.55h0c1.39,0,2.55-1.16,2.55-2.55v-9.04l4.17,4.17c.93.93,2.78.93,3.71,0h0l4.17-4.17v9.04c0,1.39,1.16,2.55,2.55,2.55s2.55-1.16,2.55-2.55v-15.53c0-1.39-1.16-2.55-2.55-2.55Z"/>
        <path class="cls-2" d="M290.72.78c-7.18-2.55-14.83,1.39-17.38,8.57-2.55,7.18,1.39,14.83,8.57,17.38,2.09.7,4.4.93,6.49.46-.46,2.32-1.62,4.17-3.24,5.79-.23.46-.46.93-.46,1.39,0,.93.93,1.85,1.85,1.85h0c.46,0,.7-.23,1.16-.46h0c6.72-5.33,12.28-12.05,12.28-21.55.23-6.03-3.48-11.59-9.27-13.44Z"/>
      </g>
    </g>
  </g>
</svg>