<?xml version="1.0" encoding="UTF-8"?>
<svg id="_레이어_2" data-name="레이어 2" xmlns="http://www.w3.org/2000/svg" xmlns:xlink="http://www.w3.org/1999/xlink" viewBox="0 0 300 100">
  <defs>
    <style>
      .cls-1 {
        fill: none;
      }

      .cls-1, .cls-2 {
        stroke-width: 0px;
      }

      .cls-3 {
        clip-path: url(#clippath);
      }

      .cls-2 {
        fill: #fff;
      }
    </style>
    <clipPath id="clippath">
      <rect class="cls-1" width="300" height="100"/>
    </clipPath>
  </defs>
  <g id="_레이어_2-2" data-name=" 레이어 2">
    <g class="cls-3">
      <g id="Layer_1-2" data-name="Layer 1-2">
        <g>
          <g>
            <path class="cls-2" d="M110.56,29.23c-1.29,0-2.38.95-2.57,2.22-5.15,7.29-15.32,10.02-22.96,5.52,5.49-5.98,7.45-20.34.92-25.78-2.79-2.19-6.89-2.31-9.7-.33-7.77,6.1-5.64,20.03.78,26.7-7.73,3.87-17.1.83-22.19-6.17-.58-3.09-5.12-2.71-5.16.45,0,17.5,14.24,31.75,31.75,31.75s31.75-14.24,31.75-31.75c0-1.44-1.17-2.61-2.61-2.61h0ZM76.31,23.64c-.31-2.46-.08-4.99.64-7.12.42-1.15.96-2.05,1.64-2.68,2.46-2.35,6.87-1.13,8.13,2.12,2.89,6.11.33,14.55-4.94,18.54-2.97-2.83-4.95-6.78-5.46-10.87ZM81.42,58.37c-13.08,0-24.3-9.8-26.22-22.6,5.48,8.1,17.55,10.66,25.63,5.03,8.52,5.75,21.11,3.41,26.83-5.14-1.88,12.85-13.1,22.71-26.24,22.71h0Z"/>
            <path class="cls-2" d="M80.63,6.86c4.53-.12,4.53-6.75,0-6.86-4.53.12-4.53,6.75,0,6.86Z"/>
          </g>
          <g>
            <g>
              <g>
                <path class="cls-2" d="M126.2,61.35c.52,0,.99-.2,1.37-.59l.02-.02v-1.42h-1.63v.38h1.23v.88c-.27.23-.62.36-.99.36-1.09,0-1.47-.79-1.47-1.47,0-.43.15-.82.41-1.09.26-.26.63-.4,1.06-.4.4,0,.81.16,1.08.43l.05.05.26-.28-.05-.05c-.36-.36-.83-.55-1.34-.55-.55,0-1.02.18-1.37.53-.34.34-.52.82-.52,1.37,0,.93.58,1.86,1.89,1.86h0Z"/>
                <polygon class="cls-2" points="129.97 58.68 129.33 60.18 129.11 60.73 128.29 58.68 127.87 58.68 128.89 61.2 128.4 62.34 128.82 62.34 130.35 58.78 130.39 58.68 129.97 58.68"/>
                <path class="cls-2" d="M133.18,60.11c.05-.44-.05-.82-.29-1.08-.23-.26-.59-.4-1-.4-.76,0-1.34.58-1.34,1.35s.55,1.35,1.34,1.35c.46,0,.89-.19,1.13-.5l.05-.05-.29-.23-.05.06c-.16.2-.5.35-.84.35-.41,0-.85-.24-.92-.77h2.22v-.07h0ZM131.88,59.01c.55,0,.89.3.93.81h-1.86c.08-.49.44-.81.92-.81Z"/>
                <path class="cls-2" d="M134.88,58.63c-.77,0-1.34.57-1.34,1.37s.55,1.34,1.34,1.34,1.34-.55,1.34-1.34-.56-1.37-1.34-1.37ZM134.88,60.95c-.56,0-.95-.4-.95-.95s.4-.99.95-.99.95.41.95.99-.39.95-.95.95Z"/>
                <path class="cls-2" d="M139.03,61.3v-1.51c0-.71-.47-1.16-1.2-1.16-.33,0-.61.12-.81.33v-.29h-.39v2.62h.4v-1.45c0-.47.33-.82.8-.83h.02c.25,0,.45.07.59.21.14.13.21.33.21.57v1.5h.4-.02Z"/>
                <path class="cls-2" d="M139.4,61.78v.07c0,.64.5,1.06,1.25,1.06s1.25-.4,1.25-1.06c0-.4-.2-.71-.58-.9.35-.22.57-.62.57-1.05,0-.34-.09-.61-.28-.85l.25-.29-.27-.24-.25.29c-.2-.12-.46-.2-.69-.2-.74,0-1.23.51-1.23,1.28s.52,1.27,1.23,1.27c.42,0,.87.18.87.67,0,.63-.66.68-.87.68-.41,0-.85-.18-.85-.68v-.07h-.4v.02ZM140.65,59.02c.52,0,.85.35.85.89,0,.47-.4.88-.85.88-.56,0-.85-.44-.85-.88,0-.66.43-.89.85-.89Z"/>
                <path class="cls-2" d="M144.63,61.86c0-.4-.2-.71-.58-.9.35-.22.57-.62.57-1.05,0-.34-.09-.61-.28-.85l.25-.29-.27-.24-.25.29c-.2-.12-.46-.2-.69-.2-.74,0-1.23.51-1.23,1.28s.52,1.27,1.23,1.27c.42,0,.86.18.86.67,0,.63-.66.68-.86.68-.41,0-.85-.18-.85-.68v-.07h-.4v.07c0,.64.5,1.06,1.25,1.06s1.25-.4,1.25-1.06v.02ZM143.38,59.03c.52,0,.85.35.85.89,0,.47-.4.88-.85.88-.55,0-.85-.44-.85-.88,0-.66.43-.89.85-.89Z"/>
                <rect class="cls-2" x="144.98" y="58.67" width=".4" height="2.64"/>
                <path class="cls-2" d="M144.91,57.94c0,.18.14.27.27.27s.27-.09.27-.27c0-.36-.54-.36-.54,0Z"/>
                <path class="cls-2" d="M148.06,60.92v.39h.39v-3.66h-.39v1.41c-.22-.26-.56-.41-.95-.41-.79,0-1.32.54-1.32,1.35s.53,1.35,1.31,1.35c.38,0,.73-.16.96-.43ZM147.12,60.96c-.57,0-.94-.38-.94-.96,0-.71.49-.97.94-.97.54,0,.94.4.94.96s-.39.97-.94.97Z"/>
                <path class="cls-2" d="M150.23,61.34c.78,0,1.34-.55,1.34-1.34s-.56-1.37-1.34-1.37-1.34.57-1.34,1.37.55,1.34,1.34,1.34ZM150.23,59.01c.55,0,.95.41.95.99s-.39.95-.95.95-.95-.4-.95-.95.4-.99.95-.99Z"/>
                <path class="cls-2" d="M156.95,59.48c0-.55-.19-1.04-.53-1.39-.33-.33-.78-.5-1.32-.5-1.27,0-1.85.95-1.85,1.88s.57,1.89,1.85,1.89,1.84-.98,1.85-1.89h0ZM155.11,60.97c-.98,0-1.43-.78-1.44-1.49,0-.44.14-.83.41-1.1.25-.26.61-.39,1.02-.39.99,0,1.44.75,1.44,1.49s-.45,1.49-1.44,1.49Z"/>
                <path class="cls-2" d="M158.47,58c.12,0,.21.04.34.12l.06.04.19-.29-.05-.04c-.16-.12-.34-.19-.54-.19-.54,0-.82.32-.82.92v.15h-.5v.36h.5v2.24h.39v-2.24h.82v-.36h-.82v-.15c0-.49.24-.55.42-.55h0Z"/>
                <path class="cls-2" d="M160.76,58.7h-.82v-.15c0-.49.24-.55.42-.55.12,0,.21.04.34.12l.06.04.19-.29-.05-.04c-.16-.12-.34-.19-.54-.19-.54,0-.82.32-.82.92v.15h-.5v.36h.5v2.24h.39v-2.24h.82v-.36h0Z"/>
                <path class="cls-2" d="M161.07,57.94c0,.18.14.27.27.27s.27-.09.27-.27c0-.36-.54-.36-.54,0h0Z"/>
                <rect class="cls-2" x="161.14" y="58.67" width=".4" height="2.64"/>
                <path class="cls-2" d="M164.3,60.88l-.27-.27-.05.05c-.18.18-.43.29-.68.29-.48,0-.96-.29-.96-.96s.48-.96.96-.96c.26,0,.51.1.69.27l.05.05.26-.26-.05-.05c-.26-.26-.6-.4-.95-.4-.79,0-1.35.55-1.35,1.34s.57,1.34,1.35,1.34c.36,0,.7-.14.95-.4l.05-.05v.02Z"/>
                <path class="cls-2" d="M166.75,60.6c-.16.2-.5.35-.84.35-.41,0-.85-.24-.92-.77h2.22v-.07c.05-.44-.05-.82-.29-1.08-.23-.26-.59-.4-1-.4-.76,0-1.34.58-1.34,1.35s.55,1.35,1.34,1.35c.46,0,.89-.19,1.13-.5l.05-.05-.29-.23-.05.06h0ZM165.91,59.01c.55,0,.89.3.93.81h-1.86c.08-.49.44-.81.92-.81Z"/>
                <path class="cls-2" d="M168.97,60c0,.79.55,1.34,1.34,1.34s1.34-.55,1.34-1.34-.56-1.37-1.34-1.37-1.34.57-1.34,1.37ZM170.3,60.95c-.56,0-.95-.4-.95-.95s.4-.99.95-.99.95.41.95.99-.39.95-.95.95Z"/>
                <path class="cls-2" d="M173.52,58.7h-.82v-.15c0-.49.24-.55.42-.55.12,0,.21.04.34.12l.06.04.19-.29-.05-.04c-.16-.12-.34-.19-.54-.19-.54,0-.82.32-.82.92v.15h-.5v.36h.5v2.24h.39v-2.24h.82v-.36h0Z"/>
                <polygon class="cls-2" points="177.94 58.05 177.94 57.64 175.37 57.64 175.37 61.3 178 61.3 178 60.9 175.78 60.9 175.78 59.65 177.84 59.65 177.84 59.27 175.78 59.27 175.78 58.05 177.94 58.05"/>
                <path class="cls-2" d="M180.94,61.3v-3.66h-.39v1.41c-.22-.26-.56-.41-.95-.41-.79,0-1.32.54-1.32,1.35s.53,1.35,1.31,1.35c.38,0,.73-.16.96-.43v.39h.39,0ZM179.6,60.95c-.57,0-.94-.38-.94-.96,0-.71.49-.97.94-.97.54,0,.94.4.94.96s-.39.97-.94.97Z"/>
                <path class="cls-2" d="M183.44,60.13c0,.47-.33.82-.8.83h-.02c-.25,0-.45-.07-.59-.21-.14-.13-.21-.33-.21-.57v-1.5h-.4v1.51c0,.71.47,1.16,1.2,1.16.33,0,.61-.12.81-.33v.29h.39v-2.63h-.4v1.45h.02Z"/>
                <path class="cls-2" d="M185.53,59.03c.26,0,.51.1.69.27l.05.05.26-.26-.05-.05c-.26-.26-.6-.4-.95-.4-.79,0-1.35.55-1.35,1.34s.57,1.34,1.35,1.34c.36,0,.7-.14.95-.4l.05-.05-.27-.27-.05.05c-.18.18-.43.29-.68.29-.48,0-.96-.29-.96-.96s.48-.96.96-.96v.02Z"/>
                <path class="cls-2" d="M189,60.93v.38h.4v-2.62h-.4v.38c-.23-.26-.56-.41-.94-.41-.76,0-1.34.57-1.34,1.34s.57,1.35,1.34,1.35c.37,0,.7-.15.94-.42ZM188.06,59.03c.66,0,.96.5.96.96,0,.26-.09.49-.24.67-.17.19-.42.3-.72.3-.54,0-.94-.4-.94-.96s.4-.96.94-.96h0Z"/>
                <path class="cls-2" d="M190.91,61.34c.15,0,.31-.05.5-.13l.06-.03-.14-.33-.07.03c-.12.06-.25.09-.35.09-.29,0-.38-.12-.38-.5v-1.44h.85v-.35h-.85v-.75l-.39.04v.71h-.53v.35h.53v1.44c0,.59.25.87.77.87h0Z"/>
                <rect class="cls-2" x="191.79" y="58.67" width=".4" height="2.64"/>
                <path class="cls-2" d="M191.72,57.94c0,.18.14.27.27.27s.27-.09.27-.27c0-.36-.54-.36-.54,0h0Z"/>
                <path class="cls-2" d="M194.01,58.63c-.77,0-1.34.57-1.34,1.37s.55,1.34,1.34,1.34,1.34-.55,1.34-1.34-.56-1.37-1.34-1.37ZM194.01,60.95c-.56,0-.95-.4-.95-.95s.4-.99.95-.99.95.41.95.99-.39.95-.95.95Z"/>
                <path class="cls-2" d="M197.77,59.8v1.5h.4v-1.51c0-.71-.47-1.16-1.2-1.16-.33,0-.61.12-.81.33v-.29h-.39v2.62h.4v-1.45c0-.47.33-.82.8-.83h.02c.25,0,.45.07.59.21.14.13.21.33.21.57h-.02Z"/>
              </g>
              <g>
                <path class="cls-2" d="M202.75,57.93h-.55l-2.06,2.42-.02.02.07.42h2.14v.79h.42v-.79h.44v-.42h-.44v-2.45h0ZM200.65,60.38l1.68-1.98v1.98h-1.68Z"/>
                <path class="cls-2" d="M203.45,61.37c0,.08.03.16.09.2.05.05.12.07.19.07.13,0,.27-.09.27-.27,0-.36-.54-.36-.54,0h0Z"/>
                <polygon class="cls-2" points="205.26 57.93 204.25 57.93 204.25 58.32 204.84 58.32 204.84 61.21 204.25 61.21 204.25 61.6 205.85 61.6 205.85 61.21 205.26 61.21 205.26 57.93"/>
                <path class="cls-2" d="M207.74,59.32c-.33,0-.74.05-1.05.36v-.75c0-.43.5-.66.99-.66.58,0,.97.23.99.58v.07h.42v-.08c-.05-.58-.61-.95-1.42-.95-.68,0-1.41.33-1.41,1.05v1.54c0,.86.78,1.16,1.46,1.16s1.45-.3,1.45-1.16-.78-1.16-1.44-1.16h0ZM208.78,60.48c0,.7-.79.75-1.03.75-.17,0-.61-.03-.86-.29-.12-.12-.19-.28-.18-.47,0-.56.63-.76,1.05-.76s1.03.2,1.03.77h0Z"/>
                <rect class="cls-2" x="211.05" y="57.93" width=".41" height="3.66"/>
                <path class="cls-2" d="M213.25,58.92c-.33,0-.61.12-.81.33v-.29h-.39v2.62h.4v-1.45c0-.47.33-.82.8-.83h.02c.25,0,.45.07.59.21.14.13.21.33.21.57v1.5h.4v-1.51c0-.71-.47-1.16-1.2-1.16h-.02Z"/>
                <path class="cls-2" d="M216.01,60.07l-.09-.02c-.36-.06-.65-.13-.66-.37,0-.08.02-.15.08-.2.11-.11.33-.18.57-.18h.02c.27,0,.5.04.72.24l.05.05.25-.26-.05-.05c-.25-.23-.59-.35-.99-.35-.36,0-.67.1-.85.29-.13.13-.19.29-.19.48,0,.57.57.66,1.02.74.44.07.75.14.75.42-.02.36-.5.4-.7.4-.36,0-.68-.15-.85-.39l-.05-.07-.29.26.03.05c.22.33.64.53,1.15.53.25,0,1.07-.05,1.09-.76.02-.61-.58-.72-1.02-.79v-.02Z"/>
                <path class="cls-2" d="M218.88,61.16c-.12.06-.25.09-.35.09-.29,0-.38-.12-.38-.5v-1.44h.85v-.35h-.85v-.75l-.39.04v.71h-.53v.35h.53v1.44c0,.59.25.87.77.87.15,0,.31-.05.5-.13l.06-.03-.14-.33-.07.03h0Z"/>
                <rect class="cls-2" x="219.42" y="58.96" width=".4" height="2.64"/>
                <path class="cls-2" d="M219.35,58.23c0,.18.14.27.27.27s.27-.09.27-.27c0-.36-.54-.35-.54,0h0Z"/>
                <path class="cls-2" d="M221.81,61.16c-.12.06-.25.09-.35.09-.29,0-.38-.12-.38-.5v-1.44h.85v-.35h-.85v-.75l-.39.04v.71h-.53v.35h.53v1.44c0,.59.25.87.77.87.15,0,.31-.05.5-.13l.06-.03-.14-.33-.07.03h0Z"/>
                <path class="cls-2" d="M224.34,60.42c0,.47-.33.82-.79.83h-.02c-.25,0-.45-.07-.59-.21-.14-.13-.21-.33-.21-.57v-1.5h-.4v1.51c0,.71.47,1.16,1.2,1.16.33,0,.61-.12.81-.33v.29h.39v-2.63h-.4v1.45h0Z"/>
                <path class="cls-2" d="M226.68,61.16c-.12.06-.25.09-.35.09-.29,0-.38-.12-.38-.5v-1.44h.85v-.35h-.85v-.75l-.39.04v.71h-.53v.35h.53v1.44c0,.59.25.87.77.87.15,0,.31-.05.5-.13l.06-.03-.14-.33-.07.03h0Z"/>
                <path class="cls-2" d="M228.4,58.93c-.76,0-1.34.58-1.34,1.35s.55,1.35,1.34,1.35c.46,0,.89-.19,1.13-.5l.05-.05-.29-.23-.05.06c-.16.2-.5.35-.84.35-.41,0-.85-.24-.92-.77h2.22v-.07c.05-.44-.05-.82-.29-1.08-.23-.26-.59-.4-1-.4h0ZM228.4,59.3c.55,0,.89.3.93.81h-1.86c.08-.49.44-.81.92-.81Z"/>
                <path class="cls-2" d="M232.63,58.29c.12,0,.21.04.34.12l.06.04.19-.29-.05-.04c-.16-.12-.34-.19-.54-.19-.54,0-.82.32-.82.92v.15h-.5v.36h.5v2.24h.39v-2.24h.82v-.36h-.82v-.15c0-.49.24-.55.42-.55h0Z"/>
                <path class="cls-2" d="M234.48,58.92c-.77,0-1.34.57-1.34,1.37s.55,1.34,1.34,1.34,1.34-.55,1.34-1.34-.56-1.37-1.34-1.37ZM234.48,61.24c-.56,0-.95-.4-.95-.95s.4-.99.95-.99.95.41.95.99-.39.95-.95.95Z"/>
                <path class="cls-2" d="M237.4,58.94c-.32,0-.61.11-.78.3v-.28h-.38v2.62h.4v-1.52c0-.42.33-.75.75-.75.14,0,.27.04.38.1l.06.04.18-.33-.06-.04c-.17-.1-.36-.16-.54-.16h0Z"/>
                <polygon class="cls-2" points="240.04 57.93 239.62 57.93 239.62 61.6 242.01 61.6 242.01 61.19 240.04 61.19 240.04 57.93"/>
                <rect class="cls-2" x="242.34" y="58.96" width=".4" height="2.64"/>
                <path class="cls-2" d="M242.27,58.23c0,.18.14.27.27.27s.27-.09.27-.27c0-.36-.54-.36-.54,0h0Z"/>
                <path class="cls-2" d="M244.36,57.92c-.54,0-.82.32-.82.92v.15h-.5v.36h.5v2.24h.39v-2.24h.82v-.36h-.82v-.15c0-.49.24-.55.42-.55.12,0,.21.04.34.12l.06.04.19-.29-.05-.04c-.16-.12-.34-.19-.54-.19h0Z"/>
                <path class="cls-2" d="M246.37,58.93c-.76,0-1.34.58-1.34,1.35s.55,1.35,1.34,1.35c.46,0,.89-.19,1.13-.5l.05-.05-.29-.23-.05.06c-.16.2-.5.35-.84.35-.41,0-.85-.24-.92-.77h2.22v-.07c.05-.44-.05-.82-.29-1.08-.23-.26-.59-.4-1-.4h0ZM246.37,59.3c.55,0,.89.3.93.81h-1.86c.08-.49.44-.81.92-.81Z"/>
                <path class="cls-2" d="M251.68,59.34c-.23-.26-.57-.41-.94-.41-.76,0-1.34.57-1.34,1.34s.57,1.35,1.34,1.35c.37,0,.7-.15.94-.42v.38h.4v-2.62h-.4v.38ZM250.74,59.31c.66,0,.96.5.96.96,0,.26-.09.49-.24.67-.17.19-.43.3-.72.3-.54,0-.94-.4-.94-.96s.4-.96.94-.96h0Z"/>
                <path class="cls-2" d="M253.79,58.92c-.33,0-.61.12-.81.33v-.29h-.39v2.62h.4v-1.45c0-.47.33-.82.8-.83h.02c.25,0,.45.07.59.21.14.13.21.33.21.57v1.5h.4v-1.51c0-.71-.47-1.16-1.2-1.16h-.02Z"/>
                <path class="cls-2" d="M257.62,59.34c-.22-.26-.56-.41-.95-.41-.79,0-1.32.54-1.32,1.35s.53,1.35,1.31,1.35c.38,0,.73-.16.96-.43v.39h.39v-3.66h-.39v1.41h0ZM256.67,61.25c-.57,0-.94-.38-.94-.96,0-.71.49-.97.94-.97.54,0,.94.4.94.96s-.39.97-.94.97Z"/>
                <path class="cls-2" d="M261.34,59.51h-.04c-.61-.12-1.02-.23-1.02-.6,0-.62.89-.64.99-.64.38,0,.77.06,1,.44l.04.06.35-.21-.05-.06c-.35-.52-.79-.63-1.34-.63-.48,0-.92.15-1.16.4-.17.17-.26.4-.25.65,0,.71.72.85,1.36.98.67.12,1.1.24,1.09.68,0,.61-.73.67-1.05.67-.41,0-.94-.2-1.13-.6l-.03-.06-.37.19.03.06c.29.59.97.8,1.51.8.34,0,1.46-.08,1.47-1.06,0-.81-.75-.95-1.41-1.07h0Z"/>
                <path class="cls-2" d="M265.43,59.34c-.23-.26-.56-.41-.94-.41-.76,0-1.34.57-1.34,1.34s.57,1.35,1.34,1.35c.37,0,.7-.15.94-.42v.38h.4v-2.62h-.4v.38ZM264.49,59.32c.66,0,.96.5.96.96,0,.26-.09.49-.24.67-.17.19-.43.3-.72.3-.54,0-.94-.4-.94-.96s.4-.96.94-.96h0Z"/>
                <path class="cls-2" d="M267.41,57.92c-.54,0-.82.32-.82.92v.15h-.5v.36h.5v2.24h.39v-2.24h.82v-.36h-.82v-.15c0-.49.24-.55.42-.55.12,0,.21.04.34.12l.06.04.19-.29-.05-.04c-.16-.12-.34-.19-.54-.19h0Z"/>
                <path class="cls-2" d="M269.42,58.93c-.76,0-1.34.58-1.34,1.35s.55,1.35,1.34,1.35c.46,0,.89-.19,1.13-.5l.05-.05-.29-.23-.05.06c-.16.2-.5.35-.84.35-.41,0-.85-.24-.92-.77h2.22v-.07c.05-.44-.05-.82-.29-1.08-.23-.26-.59-.4-1-.4h0ZM269.42,59.3c.55,0,.89.3.93.81h-1.86c.08-.49.44-.81.92-.81Z"/>
                <path class="cls-2" d="M272.55,61.16c-.12.06-.25.09-.35.09-.29,0-.38-.12-.38-.5v-1.44h.85v-.35h-.85v-.75l-.39.04v.71h-.53v.35h.53v1.44c0,.59.25.87.77.87.15,0,.31-.05.5-.13l.06-.03-.14-.33s-.07.03-.07.03Z"/>
                <polygon class="cls-2" points="274.38 60.47 274.16 61.03 273.34 58.96 272.92 58.96 273.94 61.49 273.45 62.63 273.87 62.63 275.4 59.06 275.45 58.96 275.02 58.96 274.38 60.47"/>
                <polygon class="cls-2" points="277.57 59.94 279.63 59.94 279.63 59.55 277.57 59.55 277.57 58.34 279.73 58.34 279.73 57.93 277.16 57.93 277.16 61.6 279.79 61.6 279.79 61.18 277.57 61.18 277.57 59.94"/>
                <path class="cls-2" d="M282.34,59.34c-.22-.26-.56-.41-.95-.41-.79,0-1.32.54-1.32,1.35s.53,1.35,1.31,1.35c.38,0,.73-.16.96-.43v.39h.39v-3.66h-.39v1.41h0ZM281.39,61.25c-.57,0-.94-.38-.94-.96,0-.71.49-.97.94-.97.54,0,.94.4.94.96s-.39.97-.94.97Z"/>
                <path class="cls-2" d="M285.23,60.42c0,.47-.33.82-.8.83h-.02c-.25,0-.45-.07-.59-.21-.14-.13-.21-.33-.21-.57v-1.5h-.4v1.51c0,.71.47,1.16,1.2,1.16.33,0,.61-.12.81-.33v.29h.39v-2.63h-.4v1.45h.02Z"/>
                <path class="cls-2" d="M287.32,59.32c.26,0,.51.1.69.27l.05.05.26-.26-.05-.05c-.26-.26-.6-.4-.95-.4-.79,0-1.35.55-1.35,1.34s.57,1.34,1.35,1.34c.36,0,.7-.14.95-.4l.05-.05-.27-.27-.05.05c-.18.18-.43.29-.68.29-.48,0-.96-.29-.96-.96s.48-.96.96-.96v.02Z"/>
                <path class="cls-2" d="M290.79,59.34c-.23-.26-.57-.41-.94-.41-.76,0-1.34.57-1.34,1.34s.57,1.35,1.34,1.35c.37,0,.7-.15.94-.42v.38h.4v-2.62h-.4v.38ZM289.85,59.31c.66,0,.96.5.96.96,0,.26-.09.49-.24.67-.17.19-.43.3-.72.3-.54,0-.94-.4-.94-.96s.4-.96.94-.96h0Z"/>
                <path class="cls-2" d="M293.04,61.16c-.12.06-.25.09-.35.09-.29,0-.38-.12-.38-.5v-1.44h.85v-.35h-.85v-.75l-.39.04v.71h-.53v.35h.53v1.44c0,.59.25.87.77.87.15,0,.31-.05.5-.13l.06-.03-.14-.33s-.07.03-.07.03Z"/>
                <rect class="cls-2" x="293.58" y="58.96" width=".4" height="2.64"/>
                <path class="cls-2" d="M293.51,58.23c0,.18.14.27.27.27s.27-.09.27-.27c0-.36-.54-.36-.54,0Z"/>
                <path class="cls-2" d="M295.8,58.92c-.77,0-1.34.57-1.34,1.37s.55,1.34,1.34,1.34,1.34-.55,1.34-1.34-.56-1.37-1.34-1.37ZM295.8,61.24c-.56,0-.95-.4-.95-.95s.4-.99.95-.99.95.41.95.99-.39.95-.95.95Z"/>
                <path class="cls-2" d="M298.75,58.92c-.33,0-.61.12-.81.33v-.29h-.39v2.62h.4v-1.45c0-.47.33-.82.8-.83h.02c.25,0,.45.07.59.21.14.13.21.33.21.57v1.5h.4v-1.51c0-.71-.47-1.16-1.2-1.16h-.02Z"/>
              </g>
            </g>
            <g>
              <path class="cls-2" d="M139.88,17.58c.99-.8,1.46-2.2,1.46-4.35v-7.34h-3.03v2.22h-3.75c-.02-.42-.06-.85-.11-1.29l-.04-.33h-9.12v2.67h6.18c-.02,3.46-2.27,5.73-6.72,6.75l-.45.1.19.42c.13.28.26.59.39.91.14.35.29.7.44,1.02l.13.28.29-.07c4.35-1.05,7.12-3.17,8.24-6.33v2.16h4.26c-.11,1.06-.49,1.51-1.45,1.82-.58-.09-1.06-.14-1.55-.14-3.69,0-6.26,2.07-6.26,5.04s2.58,4.91,6.26,4.91c4.11,0,6.26-2.47,6.26-4.91,0-1.37-.58-2.6-1.65-3.52h.02ZM135.3,23.49c-1.89,0-3.15-.99-3.15-2.45s1.27-2.41,3.15-2.41,3.15.96,3.15,2.41-1.27,2.45-3.15,2.45ZM134.41,10.72h3.91v1.1h-4.18c.11-.36.19-.72.26-1.1Z"/>
              <rect class="cls-2" x="158.06" y="5.89" width="2.98" height="19.34"/>
              <path class="cls-2" d="M154.87,6.47h-9.53v2.63h6.71c.35,4.36-2.17,7.75-7.13,9.58l-.41.16,1.41,2.48.29-.12c6.7-2.54,9.55-7.25,8.69-14.41l-.04-.33Z"/>
              <polygon class="cls-2" points="181.89 20.15 174.36 20.15 174.36 16.63 180.18 16.63 180.58 14 168.77 14 168.77 8.92 180.05 8.92 180.48 6.29 165.54 6.29 165.54 16.63 171.34 16.63 171.34 20.15 163.98 20.15 163.98 22.84 181.37 22.84 181.89 20.15"/>
              <path class="cls-2" d="M201.18,22.45c.13-.66.23-1.15.36-1.86l.07-.43h-6.6v-6.71h-3.03v6.71h-1.39v-6.71h-3.03v6.71h-3.92v2.69h17.44l.08-.4h.02Z"/>
              <path class="cls-2" d="M195.62,17.55l-.17.38,2.76.85.15-.26c1.52-2.73,2.13-8.19,1.33-11.91l-.06-.29h-14.62v2.67h11.8c.37,2.82-.07,6.06-1.18,8.55h0Z"/>
              <g>
                <path class="cls-2" d="M207.66,18.41h-3.28v2.67h10.9c.51,0,.85.09,1.01.27s.22.53.16,1.08l-.36,3.31h3.09l.39-3.44c.15-1.38-.04-2.31-.58-2.93-.5-.57-1.29-.87-2.53-.95v-.86h4.21l.51-2.72h-17.96v2.72h4.43v.85h.02ZM213.44,17.57v.85h-2.76v-.85h2.76Z"/>
                <path class="cls-2" d="M212.11,14.53c4.9,0,7.09-2.13,7.09-4.23,0-2.65-2.78-4.37-7.09-4.37s-7.09,1.72-7.09,4.37c0,1.95,1.86,4.23,7.09,4.23ZM212.14,11.92c-2.2,0-3.63-.65-3.63-1.66s1.42-1.66,3.63-1.66,3.65.65,3.65,1.66-1.43,1.66-3.65,1.66Z"/>
              </g>
              <g>
                <path class="cls-2" d="M224.7,18.53c2.64-.5,4.69-1.46,6.09-2.86l2.76,1.58c-3.07.27-5.15,2-5.15,4.39,0,2.54,2.47,4.31,6.01,4.31s6.03-1.82,6.03-4.31c0-1.29-.64-2.45-1.79-3.26,1.17-.75,1.77-2.18,1.77-4.26V5.87h-2.98v4.99h-4.11v2.69h4.11v.46c0,2.03-.19,2.84-2.18,3.23-.25-.02-.49-.03-.74-.04l1.29-2.1-3.46-1.76c.51-1.2.71-2.55.59-4.01l-.03-.34h-8.47v2.67h5.45c-.26,2.03-2.71,3.81-6.04,4.29l-.47.07,1.02,2.55.3-.05h0ZM234.43,23.43c-1.81,0-2.92-.95-2.92-1.82s1.09-1.82,2.92-1.82,2.94.95,2.94,1.82-1.13,1.82-2.94,1.82Z"/>
                <path class="cls-2" d="M228.96,8.52h2.84l.49-2.67h-3.08c-1.12,0-1.74-.21-2.51-.6l-.39-.2-.86,2.58.28.15c.92.49,2.03.75,3.22.75h0Z"/>
              </g>
              <path class="cls-2" d="M136.02,31.64h-3.1c-1.66,0-2.64.47-3.38,1.65l-3.5,5.47c-.85,1.36-1.03,1.96-1.03,3.39v1.12c0,1.08.45,2.36,2.61,2.36h5.37v3.03h3.04v-3.03h1.96l.73-2.57h-2.69v-11.42ZM131.69,34.71c.16-.27.36-.38.68-.38h.62v8.73h-4.21c-.5,0-.75-.23-.75-.68v-.87c0-.56.1-.98.34-1.36,0,0,3.31-5.43,3.31-5.43Z"/>
              <rect class="cls-2" x="140.06" y="45.36" width="3.23" height="3.17"/>
              <polygon class="cls-2" points="142.69 34.22 145.34 34.15 145.34 48.53 148.59 48.53 148.59 31.64 142.69 31.66 142.69 34.22"/>
              <path class="cls-2" d="M157.59,37.49c-1.13,0-2.24.38-3.05,1.01v-1.46c0-.65.23-2.78,3.09-2.78h3.91l.7-2.59h-4.24c-4.07,0-6.59,1.11-6.59,6.65v4.31c0,4.23,1.86,6.03,6.24,6.03,3.69,0,5.72-2.01,5.72-5.66s-2-5.51-5.78-5.51h0ZM154.54,42.54c0-1.2.84-2.48,2.67-2.48,2.19,0,3,.82,3,3.03s-.84,3.1-2.63,3.1c-2.31,0-3.05-.77-3.05-3.17v-.47h0Z"/>
              <path class="cls-2" d="M182.72,38.98v-7.83h-2.94v3.94h-1.27v-3.81h-2.92v7.99l-4.21-3.13c.19-.9.29-1.89.29-3.02v-1.39h-2.98v1.43c0,3.9-1.1,5.23-3.42,6.56l-.37.22,1.82,2.3.28-.17c1.53-.94,2.65-2.02,3.39-3.3l3.46,3.01,1.74-2.11v1.79h2.92v-3.73h1.27v1.37c0,1.75-.09,2.45-1,2.86-.68-.18-1.43-.27-2.21-.27-3.66,0-6.22,1.99-6.22,4.85s2.55,4.7,6.22,4.7c4.1,0,6.24-2.37,6.24-4.7,0-1.25-.52-2.39-1.48-3.26,1.22-.94,1.4-2.61,1.4-4.28v.02ZM176.58,48.82c-1.9,0-3.13-.92-3.13-2.34s1.23-2.34,3.13-2.34,3.19.92,3.19,2.34-1.25,2.34-3.19,2.34Z"/>
              <path class="cls-2" d="M198.89,33.34h-3.36c-.08-.53-.17-1.02-.27-1.49l-.06-.29h-9.71v10.03h6.5c1.2,0,2.83-.19,3.46-1.82h3.38c-.13,1.08-.53,1.53-1.58,1.86-.52-.1-1.06-.16-1.6-.16-3.65,0-6.19,2.04-6.19,4.98,0,2.41,2.13,4.85,6.19,4.85s6.22-2.44,6.22-4.85c0-1.37-.6-2.61-1.67-3.5,1.47-.91,1.67-2.72,1.67-4.25v-7.55h-2.98v2.2h0ZM192.71,38.25c-.1.61-.36.78-1.13.78h-3.13v-4.91h4.18c.19,1.18.23,3.17.06,4.13h0ZM195.76,36.03h3.13v1.04h-3.12c0-.36,0-.71,0-1.04ZM195.67,48.8c-1.92,0-3.15-.95-3.15-2.41s1.23-2.41,3.15-2.41,3.17.95,3.17,2.41-1.27,2.41-3.17,2.41Z"/>
              <path class="cls-2" d="M215.53,47.92c-1.77,0-3.53,0-5.33,0-.22,0-.81,0-.91-.12s-.05-.69-.02-.95l.47-3.82h-3.13l-.05.33c-.14,1.02-.29,2.36-.41,3.41l-.02.23c-.16,1.3,0,2.13.49,2.69.62.7,1.7.84,3.14.84h11.03l.06-.29c.15-.64.25-1.17.37-1.84l.09-.44h-.45c-1.79,0-3.56,0-5.33,0h0Z"/>
              <polygon class="cls-2" points="220.28 31.14 217.29 31.14 217.29 45.46 220.28 45.46 220.28 38.46 222.63 38.46 223.03 35.81 220.28 35.81 220.28 31.14"/>
              <path class="cls-2" d="M215.65,37.01c0-3.16-2.25-5.29-5.6-5.29s-5.64,2.07-5.64,5.29,2.27,5.19,5.64,5.19,5.6-2.13,5.6-5.19ZM210.09,39.58c-1.68,0-2.53-.86-2.53-2.57s.88-2.57,2.53-2.57,2.51.88,2.51,2.57-.82,2.57-2.51,2.57Z"/>
              <path class="cls-2" d="M235.23,43.28l1.85-2.48-4.2-2.93c.57-1.18.85-2.49.85-3.9,0-.61-.02-1.28-.15-2.02l-.05-.3h-8.62v2.72h5.67c-.03,3.17-2.14,5.29-6.27,6.31l-.45.11,1.27,2.59.29-.07c2.48-.62,4.46-1.68,5.88-3.13l3.95,3.11h0Z"/>
              <polygon class="cls-2" points="237.85 45.59 240.84 45.59 240.84 31.14 237.85 31.14 237.85 35.35 234.27 35.35 234.27 37.96 237.85 37.96 237.85 45.59"/>
              <path class="cls-2" d="M235.7,47.94c-1.77,0-3.53,0-5.35,0-.48,0-.78-.07-.92-.22-.11-.12-.14-.36-.1-.73l.26-3.51-3.15-.02-.23,3.58c-.1,1.26.09,2.1.58,2.65.63.68,1.65.83,3,.85h11.21l.5-2.57h-.45c-1.82,0-3.58,0-5.35,0h0Z"/>
              <path class="cls-2" d="M255.53,42.83l-.17.38,2.76.85.15-.26c1.52-2.73,2.13-8.19,1.33-11.91l-.06-.29h-14.62v2.67h11.8c.37,2.82-.07,6.06-1.18,8.55h0Z"/>
              <path class="cls-2" d="M254.92,38.71h-3.03v6.71h-1.39v-6.71h-3.03v6.71h-3.92v2.69h17.44l.08-.4c.13-.66.23-1.15.36-1.86l.07-.43h-6.6v-6.71h.02Z"/>
              <path class="cls-2" d="M271.98,39.81c4.9,0,7.09-2.13,7.09-4.23,0-2.65-2.78-4.37-7.09-4.37s-7.09,1.72-7.09,4.37c0,1.95,1.86,4.23,7.09,4.23ZM272,37.2c-2.2,0-3.63-.65-3.63-1.66s1.42-1.66,3.63-1.66,3.65.65,3.65,1.66-1.43,1.66-3.65,1.66Z"/>
              <path class="cls-2" d="M263.09,42.83h4.43v.85h-3.28v2.67h10.9c.51,0,.85.09,1.01.27.16.19.22.53.16,1.08l-.36,3.31h3.09l.39-3.44c.15-1.38-.04-2.31-.58-2.93-.5-.57-1.29-.87-2.53-.95v-.86h4.21l.51-2.72h-17.96v2.72h.02ZM273.3,42.83v.85h-2.76v-.85h2.76Z"/>
              <polygon class="cls-2" points="292.04 44.91 296.36 44.91 296.36 46.57 299.34 46.57 299.34 31.14 296.36 31.14 296.36 42.31 292.04 42.31 292.04 44.91"/>
              <polygon class="cls-2" points="288.07 45.78 291.03 45.78 291.03 41.94 295.51 41.94 296.02 39.29 282.24 39.29 282.24 41.94 288.07 41.94 288.07 45.78"/>
              <path class="cls-2" d="M288.21,48.06c-.54,0-.84-.05-.95-.19-.12-.13-.15-.44-.1-.95l.33-3.42h-3.07l-.34,3.45c-.14,1.39.03,2.27.56,2.84.56.62,1.49.88,3.11.88h11.73l.52-2.61h-11.79Z"/>
              <path class="cls-2" d="M288.95,39.12c3.28,0,5.5-1.66,5.5-4.12s-2.2-4.23-5.5-4.23-5.5,1.66-5.5,4.23,2.2,4.12,5.5,4.12ZM288.99,36.7c-1.22,0-2.53-.45-2.53-1.7s1.3-1.7,2.53-1.7,2.55.45,2.55,1.7-1.32,1.7-2.55,1.7Z"/>
            </g>
          </g>
        </g>
      </g>
    </g>
  </g>
</svg>