<?xml version="1.0" encoding="UTF-8"?>
<svg id="_레이어_2" data-name="레이어 2" xmlns="http://www.w3.org/2000/svg" xmlns:xlink="http://www.w3.org/1999/xlink" viewBox="0 0 300 100">
  <defs>
    <style>
      .cls-1 {
        fill: none;
      }

      .cls-1, .cls-2 {
        stroke-width: 0px;
      }

      .cls-3 {
        clip-path: url(#clippath);
      }

      .cls-2 {
        fill: #fff;
      }
    </style>
    <clipPath id="clippath">
      <rect class="cls-1" width="300" height="100"/>
    </clipPath>
  </defs>
  <g id="_레이어_2-2" data-name=" 레이어 2">
    <g class="cls-3">
      <g id="Layer_1-2" data-name="Layer 1-2">
        <g>
          <path class="cls-2" d="M189.05,14.84v-2.34h12.57v2.34h-5.33l5.56,5.65-1.76,1.63-4.64-4.86-4.55,5.03-1.86-1.63,5.51-5.81-5.48-.02h-.01ZM191.11,23.29h17.19v5.99h-14.48v1.86h14.73v2.21h-17.44v-6.12h14.48v-1.81h-14.48v-2.13ZM205.58,11.87h2.71v10.38h-2.71v-10.38Z"/>
          <path class="cls-2" d="M224.28,22.95h-11.42v-10.61h2.69v2.87h6.1v-2.87h2.64l-.02,10.61ZM221.64,17.5h-6.1v3.19h6.1v-3.19ZM229.36,29.11c0,.71-.15,1.43-.45,2.08-.29.63-.7,1.21-1.21,1.7-.53.49-1.15.88-1.82,1.15-.69.29-1.45.43-2.2.43-1.51,0-2.97-.56-4.08-1.58-.5-.48-.91-1.07-1.21-1.7-.3-.65-.45-1.36-.45-2.08s.15-1.43.45-2.08c.29-.64.7-1.23,1.21-1.71.53-.49,1.16-.88,1.84-1.16.7-.28,1.46-.43,2.21-.42.75,0,1.51.14,2.2.42.67.27,1.29.66,1.82,1.16.5.49.91,1.08,1.21,1.71.31.65.48,1.36.49,2.08h-.01ZM226.69,29.11c0-.39-.07-.79-.23-1.16-.16-.36-.38-.69-.67-.97-.28-.28-.61-.51-.98-.66-.37-.15-.76-.23-1.16-.22-.79,0-1.56.31-2.12.87-.56.56-.87,1.33-.87,2.12s.31,1.56.87,2.12c.56.56,1.33.87,2.12.87.4,0,.8-.07,1.18-.23.37-.15.71-.38,1-.67.28-.27.51-.6.65-.97.15-.36.22-.75.21-1.15v.02h0ZM228.5,11.87h2.71v11.61h-2.71v-2.64h-3.2v-2.21h3.2v-2.31h-3.2v-2.24h3.2v-2.21h0Z"/>
          <path class="cls-2" d="M248.82,22.6v2.39h-14.2v-2.39h4.44v-4.9h2.69v4.9h7.07ZM244.92,20.51v-5.83h-9.31v-2.35h12.01v8.15s-2.7.03-2.7.03ZM236.17,33.38v-6.52h2.7v4.17h14.73v2.38s-17.43-.03-17.43-.03ZM253.21,26.24h-2.71v-14.38h2.71v5.88h2.79v2.49h-2.82l.03,6Z"/>
          <path class="cls-2" d="M270.36,30.75h-11.66v-10.01h8.73v-5.13h-8.73v-2.38h11.42v9.88h-8.73v5.26h8.97v2.39h0ZM274.37,11.87h2.71v21.9h-2.71V11.87Z"/>
          <path class="cls-2" d="M280.67,16.04v-2.29h5.13v-2.14h2.9v2.14h4.9v2.29h-5.29l5.47,5.61-1.81,1.63-4.72-4.9-4.64,5.3-1.86-1.74,5.47-5.91h-5.53ZM298.14,29.09c0,.71-.15,1.43-.45,2.08-.29.63-.7,1.21-1.21,1.7-.53.49-1.15.88-1.82,1.15-.7.29-1.45.43-2.2.43-1.51,0-2.97-.56-4.08-1.58-.5-.48-.91-1.07-1.21-1.7-.3-.65-.46-1.36-.45-2.08,0-.71.15-1.43.45-2.08.29-.64.7-1.23,1.21-1.71.82-.76,1.85-1.28,2.96-1.48s2.25-.09,3.29.32c.67.27,1.29.66,1.82,1.16.5.49.91,1.08,1.21,1.71.32.65.48,1.37.49,2.1v-.02h0ZM295.48,29.09c0-.39-.07-.79-.23-1.16-.15-.36-.38-.69-.67-.97-.28-.28-.61-.51-.98-.66s-.76-.23-1.16-.22c-.39,0-.78.07-1.16.22-.36.15-.69.38-.97.66-.28.27-.51.6-.66.97-.15.36-.23.75-.23,1.16s.07.78.23,1.15c.15.36.38.69.67.97.27.28.6.51.97.66s.75.23,1.16.22c.4,0,.79-.07,1.16-.22.37-.15.7-.37.98-.65.29-.27.52-.6.68-.97.15-.36.23-.76.23-1.16h-.02ZM297.29,24.12v-4.98h-3.83v-2.38h3.83v-4.9h2.71v12.23l-2.71.02Z"/>
          <path class="cls-2" d="M143.9,7.13c3.56-3.07,8.17-4.95,13.25-4.99,4.21-.04,8.14,1.2,11.43,3.35-3.99-3.43-9.19-5.49-14.86-5.49-12.63,0-22.86,10.23-22.86,22.85,0,3.43.75,6.68,2.1,9.59,3.08,6.69,9.84,11.33,17.68,11.33s14.59-4.85,17.34-11.72c.5-1.27.78-2.65.78-4.1,0-4.48-3.63-8.11-8.11-8.11-2.89,0-5.41,1.5-6.86,3.77-1.44,2.26-3.97,3.77-6.85,3.77s-5.62-1.6-7.08-4.15c-.55-.96-.86-1.98-1-3.19-.06-.5-.09-1.03-.1-1.6-.04-4.5,1.95-8.57,5.12-11.3"/>
          <path class="cls-2" d="M157.38,3.32c9.74,0,19.17,7.6,19.17,19.49,0,9.9-6.29,18.37-15.11,21.54,6.85-3.4,11.56-10.46,11.56-18.63,0-10.4-8.43-18.84-18.84-18.84-4.5,0-8.62,1.68-11.74,4.44-.36.32-.69.66-1.01,1.03.84-1.73,2.04-3.26,3.5-4.49,3.36-2.83,7.71-4.54,12.47-4.54"/>
        </g>
      </g>
    </g>
  </g>
</svg>