<?xml version="1.0" encoding="UTF-8"?>
<svg id="_레이어_2" data-name="레이어 2" xmlns="http://www.w3.org/2000/svg" xmlns:xlink="http://www.w3.org/1999/xlink" viewBox="0 0 300 100">
  <defs>
    <style>
      .cls-1 {
        fill: none;
      }

      .cls-1, .cls-2 {
        stroke-width: 0px;
      }

      .cls-3 {
        clip-path: url(#clippath);
      }

      .cls-2 {
        fill: #fff;
      }
    </style>
    <clipPath id="clippath">
      <rect class="cls-1" width="300" height="100"/>
    </clipPath>
  </defs>
  <g id="_레이어_2-2" data-name=" 레이어 2">
    <g class="cls-3">
      <g id="_레이어_1-2" data-name=" 레이어 1">
        <g>
          <path class="cls-2" d="M160.76,27.11c3.24-5.78,1.16-13.15-4.62-16.38-1.97-1.1-4.12-1.57-6.23-1.51h0s-15.92-.01-15.92-.01l-4.64,8.28h9.2l-4.4,7.85c-3.24,5.78-1.16,13.15,4.62,16.38,1.86,1.04,3.89,1.52,5.88,1.52h0,16.26s4.31-7.89,4.31-7.89h-9.08l4.62-8.25h0ZM142.7,34.73c-1.92-1.08-2.62-3.54-1.54-5.46l5.6-10c1.08-1.92,3.54-2.62,5.46-1.54s2.62,3.54,1.54,5.46l-5.6,10c-1.08,1.92-3.54,2.62-5.46,1.54Z"/>
          <path class="cls-2" d="M199.21,16.12c-7.21,0-13.07,5.87-13.07,13.07s5.87,13.07,13.07,13.07,13.07-5.87,13.07-13.07-5.87-13.07-13.07-13.07ZM206.71,29.18c0,4.13-3.36,7.49-7.49,7.49s-7.49-3.36-7.49-7.49,3.36-7.49,7.49-7.49c2,0,3.89.79,5.31,2.21,1.42,1.42,2.19,3.3,2.18,5.29h0Z"/>
          <path class="cls-2" d="M240.47,0h-5.54v18.5c-3.17-2.24-7.37-3.1-11.74-1.72-3.89,1.23-6.99,4.34-8.21,8.24-2.8,8.97,3.86,17.24,12.43,17.24,2.8,0,5.39-.88,7.52-2.38v2.38h5.54v-12.36c.01-.24.02-.47.02-.71s0-.48-.02-.71V0ZM234.91,29.37c0,2.84-1.63,5.48-4.23,6.6-6.24,2.69-12.26-2.87-10.42-9.06.65-2.2,2.33-4,4.5-4.76,2.93-1.02,5.93-.3,7.96,1.75,1.42,1.42,2.19,3.3,2.18,5.29v.19h0Z"/>
          <path class="cls-2" d="M268.94,16.05h-5.54v2.45c-3.17-2.24-7.37-3.1-11.74-1.72-3.89,1.23-6.99,4.34-8.21,8.24-2.8,8.97,3.86,17.24,12.43,17.24,2.8,0,5.39-.88,7.52-2.38v2.38h5.54v-12.36c.01-.24.02-.47.02-.71s0-.48-.02-.71v-12.43h0ZM263.38,29.38c0,2.84-1.63,5.48-4.23,6.6-6.24,2.69-12.26-2.87-10.42-9.06.65-2.2,2.33-4,4.5-4.76,2.93-1.02,5.93-.3,7.96,1.75,1.42,1.42,2.19,3.3,2.18,5.29v.19h0Z"/>
          <path class="cls-2" d="M184.56,37.23h-1.98c-.56,0-1-.21-1.31-.61-.31-.42-.48-1.03-.48-1.77v-13.18h4.84v-4.98h-4.86v-6.54h-5.52v6.54h-3.96v4.98h3.96v14.16c0,2.03.53,3.62,1.58,4.72,1.07,1.13,2.64,1.7,4.65,1.7,1.45,0,2.09,0,2.61.01h1.56v-5.05h-1.11Z"/>
          <polygon class="cls-2" points="293.58 16.23 285.45 30.32 277.31 16.23 270.89 16.23 282.24 35.88 270.13 56.86 276.54 56.86 300 16.23 293.58 16.23"/>
        </g>
      </g>
    </g>
  </g>
</svg>