<?xml version="1.0" encoding="UTF-8"?>
<svg id="_레이어_2" data-name="레이어 2" xmlns="http://www.w3.org/2000/svg" xmlns:xlink="http://www.w3.org/1999/xlink" viewBox="0 0 300 100">
  <defs>
    <style>
      .cls-1 {
        fill: none;
      }

      .cls-1, .cls-2 {
        stroke-width: 0px;
      }

      .cls-3 {
        clip-path: url(#clippath);
      }

      .cls-2 {
        fill: #fff;
      }
    </style>
    <clipPath id="clippath">
      <rect class="cls-1" width="300" height="100"/>
    </clipPath>
  </defs>
  <g id="_레이어_2-2" data-name=" 레이어 2">
    <g class="cls-3">
      <g id="Layer_1-2" data-name="Layer 1-2">
        <g id="_레이어_2-3" data-name=" 레이어 2">
          <g id="Layer_1-3" data-name="Layer 1-3">
            <path class="cls-2" d="M55.11,16.17h9.12v22.78h-9.12v-22.78Z"/>
            <path class="cls-2" d="M68.59,16.17h8.57v4.29c.42-.67.92-1.29,1.5-1.84.61-.6,1.29-1.12,2.03-1.55.76-.45,1.57-.8,2.41-1.07.84-.27,1.71-.4,2.59-.4.69,0,1.37.1,2.03.3.68.2,1.32.5,1.91.89.63.41,1.19.9,1.68,1.46.53.61.97,1.3,1.31,2.03.47-.71,1.04-1.34,1.7-1.88.71-.58,1.49-1.08,2.31-1.48.86-.42,1.76-.75,2.69-.97.93-.23,1.88-.35,2.84-.35,1.52,0,2.81.22,3.88.65,1,.39,1.89,1.03,2.58,1.86.68.85,1.16,1.84,1.43,2.89.31,1.22.46,2.48.44,3.74v14.21h-9.13v-12.88c0-.47-.05-.94-.14-1.41-.09-.52-.27-1.03-.52-1.5-.25-.47-.61-.88-1.05-1.19-.44-.32-1.03-.48-1.74-.49-.49,0-.97.12-1.39.36-.44.24-.83.57-1.16.95-.34.4-.61.86-.8,1.35-.2.5-.3,1.03-.3,1.56v13.24h-9.12v-12.88c0-.57-.05-1.13-.16-1.69-.09-.52-.28-1.01-.54-1.47-.25-.43-.61-.78-1.03-1.03-.5-.28-1.07-.41-1.65-.39-.49,0-.97.09-1.43.26-.47.17-.91.41-1.31.72-.38.3-.71.67-.95,1.09-.25.42-.37.89-.37,1.37v14.02h-9.12v-22.79Z"/>
            <path class="cls-2" d="M64.56,6.13c0,2.75-2.23,4.97-4.97,4.97s-4.97-2.23-4.97-4.97,2.23-4.97,4.97-4.97h0c2.74,0,4.97,2.23,4.97,4.97h0Z"/>
            <path class="cls-2" d="M50.61,26.19V0h-9.14v14.67c-1.13-.32-2.31-.47-3.48-.47-3.69,0-6.8,1.22-9.31,3.66-2.51,2.44-3.77,5.45-3.78,9.03,0,3.51,1.26,6.51,3.78,9.01,2.52,2.49,5.55,3.74,9.09,3.74s6.57-1.24,9.08-3.73c2.51-2.48,3.76-5.49,3.75-9.02v-.71ZM37.66,31.35c-2.47,0-4.47-2-4.47-4.47,0-2.47,2-4.47,4.47-4.47,2.47,0,4.47,2,4.47,4.47h0c0,2.47-2,4.47-4.47,4.47Z"/>
            <path class="cls-2" d="M138.71,20.58h0c-.57-.95-1.26-1.82-2.05-2.6-2.51-2.48-5.53-3.72-9.08-3.72s-6.58,1.25-9.09,3.74c-2.52,2.49-3.78,5.49-3.78,9.01,0,3.58,1.26,6.59,3.78,9.03,2.52,2.44,5.62,3.66,9.31,3.66,3.46,0,6.43-1.25,8.91-3.74.28-.28.55-.58.8-.88l3.11,4.58,7.58-5.07-9.49-14.02ZM127.47,31.5c-2.47,0-4.47-2-4.47-4.48,0-2.47,2-4.47,4.48-4.47s4.47,2,4.47,4.48h0c0,2.47-2.01,4.47-4.48,4.47h0Z"/>
            <path class="cls-2" d="M162.47,37.28v-7.01h1.74c.61,0,1.08.16,1.41.47.33.31.5.76.5,1.35v3.38c0,.59-.17,1.04-.5,1.35s-.8.46-1.41.47h-1.74s0,0,0,0ZM163.36,36.6h.85c.27.01.54-.08.75-.27.19-.18.3-.44.29-.7v-3.71c.01-.27-.09-.52-.29-.7-.2-.18-.47-.28-.75-.27h-.85v5.65h0Z"/>
            <path class="cls-2" d="M170.83,35.55c0,.57-.16,1.01-.49,1.33s-.8.47-1.43.47c-.63,0-1.1-.16-1.43-.47s-.49-.75-.49-1.33v-3.54c0-.57.16-1.01.49-1.33s.8-.47,1.43-.47,1.09.16,1.43.47.49.76.49,1.33v3.54ZM167.87,35.72c-.02.27.09.53.3.72.21.17.47.26.74.26.27,0,.53-.08.74-.26.21-.18.32-.44.3-.72v-3.88c.02-.27-.1-.54-.3-.72-.21-.17-.47-.26-.74-.25-.27,0-.53.08-.74.25-.2.18-.31.45-.3.72v3.88Z"/>
            <path class="cls-2" d="M175.9,37.28h-1.26l-1.85-6.37v6.37h-.88v-7.01h1.47l1.63,6.06v-6.06h.89v7.01Z"/>
            <path class="cls-2" d="M180.67,37.28h-1.77c-.61,0-1.08-.16-1.41-.47-.33-.31-.5-.76-.5-1.35v-3.39c0-.59.18-1.03.54-1.34s.85-.47,1.47-.47h1.47v.68h-1.58c-.27-.01-.54.08-.75.27-.19.18-.3.44-.29.71v3.73c-.01.26.08.52.27.71.2.18.45.27.72.26h.94v-2.75h-.9v-.66h1.78v4.08s0,0,0,0Z"/>
            <path class="cls-2" d="M181.41,33.84v-.66h2.32v.66h-2.32Z"/>
            <path class="cls-2" d="M185.38,30.27h1.33l1.52,7.01h-.81l-.49-2.06h-1.82l-.45,2.06h-.85l1.57-7.01ZM186.77,34.54l-.72-3.6h-.07l-.73,3.59h1.52Z"/>
            <path class="cls-2" d="M192.04,33.9h-1.99v3.38h-.88v-7.01h.88v2.97h1.99v-2.97h.88v7.01h-.88v-3.38Z"/>
            <path class="cls-2" d="M195.88,37.28v-7.01h.88v7.01h-.88Z"/>
            <path class="cls-2" d="M202.14,37.28h-1.26l-1.85-6.37v6.37h-.88v-7.01h1.47l1.63,6.06v-6.06h.89v7.01Z"/>
            <path class="cls-2" d="M205.32,36.28c.17-.23.26-.51.25-.79.01-.26-.04-.53-.16-.77-.1-.2-.24-.37-.42-.5-.17-.12-.35-.26-.54-.4-.19-.15-.38-.29-.54-.43-.18-.15-.32-.34-.42-.56-.11-.25-.17-.53-.17-.8-.02-.48.15-.94.48-1.28.31-.32.76-.48,1.33-.48h.81v.67h-.77c-.28-.02-.55.1-.73.31-.16.19-.25.43-.25.67,0,.22.05.44.16.63.11.17.25.32.42.43.17.11.35.25.55.4s.38.31.55.47c.18.18.32.4.42.64.11.29.16.6.16.91,0,.63-.18,1.1-.53,1.42s-.85.48-1.47.48h-1.05v-.66h1.09c.38-.01.66-.13.83-.36h0Z"/>
            <path class="cls-2" d="M208.31,37.28v-6.34h-1.41v-.66h3.68v.66h-1.41v6.35h-.87Z"/>
            <path class="cls-2" d="M211.52,37.28v-7.01h.88v7.01h-.88Z"/>
            <path class="cls-2" d="M214.74,37.28v-6.34h-1.41v-.66h3.69v.66h-1.41v6.35h-.87Z"/>
            <path class="cls-2" d="M217.65,30.27h.88v5.45c-.02.26.07.53.24.73.17.17.41.26.66.25.25.01.48-.08.66-.25.17-.2.26-.46.24-.73v-5.45h.88v5.28c0,1.2-.59,1.8-1.78,1.8-1.18,0-1.78-.6-1.78-1.8v-5.28Z"/>
            <path class="cls-2" d="M223.24,37.28v-6.34h-1.41v-.66h3.68v.66h-1.41v6.35h-.87Z"/>
            <path class="cls-2" d="M226.45,37.28v-7.01h3.05v.68h-2.17v2.24h1.76v.68h-1.76v2.72h2.27v.68h-3.15Z"/>
            <path class="cls-2" d="M235.78,35.55c0,.57-.16,1.01-.49,1.33s-.8.47-1.43.47c-.63,0-1.1-.16-1.43-.47s-.49-.75-.49-1.33v-3.54c0-.57.16-1.01.49-1.33s.8-.47,1.43-.47,1.09.16,1.43.47.49.76.49,1.33v3.54ZM232.82,35.72c-.02.27.09.53.3.72.21.17.47.26.74.26.27,0,.53-.08.74-.26.21-.18.32-.44.3-.72v-3.88c.02-.27-.1-.54-.3-.72-.21-.17-.47-.26-.74-.25-.27,0-.53.08-.74.25-.2.18-.31.45-.3.72v3.88Z"/>
            <path class="cls-2" d="M236.94,37.28v-7.01h2.95v.68h-2.07v2.4h1.56v.68h-1.56v3.24h-.88Z"/>
            <path class="cls-2" d="M243.11,37.28h-.88v-7.01h1.33l1.34,4.15h.07l1.37-4.15h1.28v7.01h-.88v-5.96l-1.34,4.1h-.95l-1.34-4.11v5.97s0,0,0,0Z"/>
            <path class="cls-2" d="M248.98,37.28v-7.01h3.05v.68h-2.17v2.24h1.76v.68h-1.76v2.72h2.27v.68h-3.15Z"/>
            <path class="cls-2" d="M253.26,37.28v-7.01h1.74c.61,0,1.08.16,1.41.47.33.31.5.76.5,1.35v3.38c0,.59-.17,1.04-.5,1.35s-.8.46-1.41.47h-1.74s0,0,0,0ZM254.16,36.6h.85c.27.01.54-.08.75-.27.19-.18.3-.44.28-.7v-3.71c.01-.27-.09-.52-.28-.7-.2-.18-.47-.28-.75-.27h-.85v5.65h0Z"/>
            <path class="cls-2" d="M258.08,37.28v-7.01h.88v7.01h-.88Z"/>
            <path class="cls-2" d="M261.47,30.27h1.33l1.52,7.01h-.82l-.49-2.06h-1.82l-.45,2.06h-.85l1.58-7.01ZM262.87,34.54l-.72-3.6h-.07l-.73,3.59h1.52Z"/>
            <path class="cls-2" d="M267.81,30.27h1.33l1.52,7.01h-.82l-.49-2.06h-1.82l-.45,2.06h-.85l1.58-7.01ZM269.21,34.54l-.72-3.6h-.07l-.73,3.59h1.52Z"/>
            <path class="cls-2" d="M275.51,37.28h-1.26l-1.85-6.37v6.37h-.88v-7.01h1.47l1.63,6.06v-6.06h.89v7.01Z"/>
            <path class="cls-2" d="M276.89,37.28v-7.01h1.74c.61,0,1.08.16,1.41.47.33.31.5.76.5,1.35v3.38c0,.59-.17,1.04-.5,1.35s-.8.46-1.41.47h-1.74s0,0,0,0ZM277.78,36.6h.85c.27.01.54-.08.75-.27.19-.18.3-.44.28-.7v-3.71c.01-.27-.09-.52-.28-.7-.2-.18-.47-.28-.75-.27h-.85v5.65h0Z"/>
            <path class="cls-2" d="M284.26,30.27h1.33l1.52,7.01h-.82l-.49-2.06h-1.82l-.45,2.06h-.85l1.58-7.01ZM285.65,34.54l-.72-3.6h-.07l-.73,3.59h1.52Z"/>
            <path class="cls-2" d="M288.9,34.21v3.07h-.85v-7.01h1.85c1.2,0,1.8.62,1.8,1.86,0,.42-.08.84-.27,1.22-.16.33-.43.58-.77.72l1.39,3.2h-.86l-1.36-3.07h-.93ZM288.92,30.93v2.61h.71c.34.02.67-.13.89-.4.22-.29.33-.65.31-1.02,0-.8-.4-1.2-1.2-1.2h-.71Z"/>
            <path class="cls-2" d="M293.85,37.28v-6.34h-1.41v-.66h3.68v.66h-1.41v6.35h-.87Z"/>
            <path class="cls-2" d="M298.86,36.28c.17-.23.26-.51.25-.79,0-.27-.05-.53-.17-.77-.1-.2-.24-.37-.42-.5-.17-.12-.35-.26-.54-.4s-.37-.29-.54-.43c-.18-.15-.32-.34-.42-.56-.11-.25-.17-.53-.17-.8-.02-.48.15-.94.48-1.28.31-.32.76-.48,1.33-.48h.81v.67h-.77c-.28-.02-.55.1-.73.31-.16.19-.25.43-.25.67,0,.22.05.44.17.63.11.17.25.32.42.43.17.11.35.25.55.4s.38.31.55.47c.18.18.32.4.42.64.12.29.17.6.17.91,0,.63-.18,1.1-.54,1.42-.36.32-.85.48-1.47.48h-1.05v-.66h1.09c.38-.02.65-.13.83-.36h0Z"/>
            <path class="cls-2" d="M170.77,15.94s0-.04,0-.06v-1.49h4.21v-1.92h-8.5s-.07,0-.11,0c0-.03,0-.06,0-.09v-1.88s0-.06,0-.09c.02,0,.04,0,.06,0h8.48v-1.96h-9.13c-.47,0-.82.14-1.05.42-.25.3-.38.69-.35,1.08v2.92c-.02.41.12.82.4,1.12.32.28.73.42,1.15.39h2.85v1.52h-.01s0,.03,0,.03h-6.2v1.88h5.24c-.29.16-.56.36-.8.58-.77.69-1.2,1.67-1.2,2.7,0,1,.41,1.88,1.21,2.6,1.58,1.44,3.99,1.44,5.57,0,.82-.73,1.23-1.61,1.23-2.6,0-1.05-.45-2.04-1.25-2.72-.25-.23-.51-.42-.8-.58h5.24v-1.86h-6.21,0ZM171.2,22.34c-.83.73-2.07.73-2.9,0-.38-.32-.6-.8-.6-1.3,0-.5.2-.98.57-1.32.4-.36.93-.56,1.47-.55.54,0,1.06.19,1.47.55.38.33.6.81.61,1.32,0,.5-.22.97-.61,1.29h0s0,0,0,0Z"/>
            <path class="cls-2" d="M181.79,9.39c-1.17-.01-2.3.45-3.13,1.28-.86.82-1.34,1.96-1.33,3.15,0,1.18.48,2.3,1.35,3.1.83.83,1.95,1.3,3.13,1.29,1.16,0,2.28-.46,3.09-1.29.88-.79,1.38-1.92,1.37-3.1.01-1.19-.48-2.34-1.35-3.15-.83-.83-1.96-1.28-3.13-1.27ZM183.53,15.48c-.95.96-2.49.97-3.45.02,0,0-.02-.02-.02-.02-.47-.43-.73-1.04-.72-1.68,0-1.33,1.07-2.42,2.4-2.43h.05c.65,0,1.27.25,1.72.71.49.44.77,1.06.76,1.72,0,.63-.26,1.23-.72,1.66h0s0,.01,0,.01Z"/>
            <path class="cls-2" d="M189.69,12.71s-.01-.09,0-.14v-4.15h-2.06v16.04h2.06v-9.71c0-.05,0-.1,0-.16h2.55v-1.88h-2.47s-.05,0-.08-.01h0Z"/>
            <path class="cls-2" d="M204.24,18.38c-1.58-1.45-4-1.45-5.57,0-.77.69-1.21,1.68-1.2,2.72,0,1,.41,1.88,1.21,2.6,1.58,1.44,3.99,1.44,5.57,0,.82-.73,1.23-1.61,1.23-2.6,0-1.05-.45-2.04-1.25-2.72ZM202.89,22.33c-.83.73-2.07.73-2.9,0-.38-.32-.6-.8-.6-1.3,0-.5.2-.98.57-1.32.4-.36.93-.56,1.47-.55.54,0,1.06.19,1.47.55.38.33.6.81.61,1.32,0,.5-.22.98-.61,1.3Z"/>
            <path class="cls-2" d="M205.56,11.56s0-.09,0-.14v-3.01h-2.02v8.79h2.02v-3.76h2.42v-1.88h-2.29s-.08,0-.13,0h0Z"/>
            <path class="cls-2" d="M201.17,16.15c.23-.32.35-.7.33-1.09v-6.23h-1.97v2.02s0,.07,0,.11c-.02,0-.04,0-.05,0h-3.48s-.07,0-.11,0c0-.02,0-.05,0-.07v-2.05h-1.99v6.31c-.02.39.11.77.35,1.08.28.3.67.46,1.08.44h4.83c.4.02.79-.17,1.02-.49h0ZM199.53,14.62s-.01.09-.04.13c0,0-.02,0-.03,0h-3.45s-.07,0-.1-.01l-.02-.02s-.02-.07-.01-.1v-1.67s0-.07,0-.11h3.64s.01.09,0,.13v1.65Z"/>
            <path class="cls-2" d="M216.67,15.9v-2.45h-2.01v2.44h-6.22v1.89h5.3c-.3.17-.58.37-.84.6-.77.69-1.2,1.68-1.19,2.72,0,1,.41,1.88,1.21,2.6,1.58,1.44,3.99,1.44,5.57,0,.82-.73,1.23-1.61,1.23-2.6,0-1.05-.45-2.04-1.25-2.72-.25-.23-.54-.43-.84-.6h5.24v-1.88h-6.22,0,0ZM217.14,22.33c-.83.73-2.07.73-2.9,0-.38-.32-.61-.8-.6-1.3,0-.5.2-.98.57-1.32.4-.37.92-.56,1.46-.55.54,0,1.06.19,1.47.55.38.33.6.81.61,1.32,0,.5-.22.98-.61,1.3h0Z"/>
            <path class="cls-2" d="M278.26,16.37c.82-.73,1.23-1.61,1.23-2.6,0-.78-.25-1.54-.72-2.15h1.56v-1.88h-3.89v-1.75h-2.01v1.74h-3.89v1.89h1.64c-.46.62-.71,1.38-.7,2.15,0,1,.41,1.88,1.21,2.6,1.58,1.44,3.99,1.44,5.57,0h0ZM274,15c-.38-.32-.61-.8-.6-1.3,0-.5.2-.98.57-1.32.4-.37.92-.56,1.46-.55.54,0,1.06.19,1.47.55.38.33.6.81.6,1.32,0,.5-.22.98-.6,1.3-.83.73-2.07.73-2.9,0h0Z"/>
            <rect class="cls-2" x="236.3" y="8.42" width="1.95" height="16.04"/>
            <path class="cls-2" d="M239.79,16.83h6.08l.03-.02s.04,0,.06.01v.95h-4.48v1.65h8.86s.07,0,.1.03h0s.03.06.03.1v.56s0,.1-.02.14h0l-.02.03s-.05.01-.07.01h-8.24c-.4,0-.8.21-.8.84v1.88c-.01.37.1.73.33,1.02.27.31.67.49,1.08.47h10.06v-1.64h-9.51s-.01-.08-.01-.11v-.67c0-.05,0-.1,0-.16.02,0,.04,0,.05,0h7.89c.41,0,1.29-.2,1.29-1.43v-1.89c0-.39-.16-.82-.89-.82h-3.63v-.9s0-.04,0-.06h.09s6.19.01,6.19.01v-1.64h-14.44v1.64h0Z"/>
            <path class="cls-2" d="M266.95,12.94h-1.34v-4.4h-1.91v9.67c-.63.06-1.54.11-2.03.14-.6.05-1.19.07-1.74.07h-1.86s-.06,0-.09,0v-6.96h4.07v-1.92h-4.69c-.36-.02-.72.1-1,.34-.26.26-.4.62-.38.98v7.87c-.01.41.13.81.41,1.11.3.32.72.49,1.16.47h2.37c.52,0,1.11-.03,1.74-.09.58-.04,1.49-.1,2.03-.17v4.39h1.92v-9.68h1.33v9.67h1.94V8.42h-1.94v4.52h0Z"/>
            <path class="cls-2" d="M281.98,18.37h-9.22v1.92h8.39c.14,0,.19.03.19.03s.03.03.03.17v3.95h2.03v-4.55c.02-.39-.1-.77-.33-1.08-.28-.3-.68-.47-1.09-.44Z"/>
            <path class="cls-2" d="M285.82,11.92h-2.3s-.07,0-.1,0h-.01c-.02-.05-.03-.1-.02-.14v-3.35h-2.03v9.06h2.03v-3.69h2.42v-1.88s0,0,0,0Z"/>
            <path class="cls-2" d="M295.85,11.25c.02.06.03.12.02.18v6.91h2.04v-7.59c0-.35-.13-.68-.37-.94-.23-.28-.58-.44-.94-.44h-9.53v1.87h8.74s.04,0,.04,0h0Z"/>
            <path class="cls-2" d="M294.41,20.83s-.04,0-.06,0v-6.08h-1.99v6.08s-.03,0-.04,0h-1.67s0-.04,0-.06v-6.02h-2.01v6.02s0,.04,0,.06c-.01,0-.03,0-.04,0h-2.9v1.88h13.84v-1.88h-5.14,0Z"/>
            <path class="cls-2" d="M233.23,10.92v.02h-2.34c-.07-.08-.15-.16-.23-.24-1.67-1.63-4.34-1.63-6.01,0-.83.79-1.29,1.88-1.28,3.03,0,1.13.46,2.21,1.3,2.97.79.8,1.88,1.25,3.01,1.24,1.12,0,2.19-.44,2.97-1.24l.1-.1h2.48s0,.06,0,.1v7.75h1.92v-15.91h-1.92v2.38s0,0,0,0ZM229.32,15.34c-.91.92-2.39.93-3.31.03,0,0-.02-.02-.03-.03-.45-.42-.7-1-.7-1.62-.01-.62.24-1.22.68-1.65.92-.91,2.4-.91,3.32,0,.47.42.73,1.02.73,1.65,0,.61-.25,1.2-.69,1.62h0ZM233.23,14.77h0s-1.41,0-1.41,0c.09-.34.13-.69.13-1.05,0-.32-.03-.64-.1-.96h1.36s.02.06.01.1v1.9h0Z"/>
            <polygon class="cls-2" points="215.67 11.02 219.89 15.14 221.37 13.83 215.65 8.26 210.06 13.78 211.52 15.17 215.67 11.02"/>
            <polygon class="cls-2" points="246.97 10.66 251.19 14.46 252.52 13.11 246.95 8.13 241.52 13.11 242.82 14.48 246.97 10.66"/>
            <rect class="cls-2" x="154.7" y="6.5" width=".34" height="30.93"/>
          </g>
        </g>
      </g>
    </g>
  </g>
</svg>