<?xml version="1.0" encoding="UTF-8"?>
<svg id="_레이어_2" data-name="레이어 2" xmlns="http://www.w3.org/2000/svg" xmlns:xlink="http://www.w3.org/1999/xlink" viewBox="0 0 300 100">
  <defs>
    <style>
      .cls-1 {
        fill: none;
      }

      .cls-1, .cls-2 {
        stroke-width: 0px;
      }

      .cls-2 {
        fill: #fff;
      }

      .cls-3 {
        clip-path: url(#clippath);
      }
    </style>
    <clipPath id="clippath">
      <rect class="cls-1" width="300" height="100"/>
    </clipPath>
  </defs>
  <g id="_레이어_2-2" data-name=" 레이어 2">
    <g class="cls-3">
      <g id="CI">
        <g>
          <polygon class="cls-2" points="218.6 2.38 219.44 2.38 219.44 1.61 218.6 1.61 218.6 .27 217.76 .27 217.76 3.71 218.6 3.71 218.6 2.38"/>
          <polygon class="cls-2" points="214.53 4.8 217.76 4.8 217.76 6.32 218.6 6.32 218.6 4.8 218.6 4.03 217.76 4.03 214.53 4.03 214.53 4.8"/>
          <polygon class="cls-2" points="214.01 3.59 215.35 2.25 216.69 3.59 217.23 3.05 215.57 1.39 216.97 1.39 216.97 .62 213.73 .62 213.73 1.39 215.12 1.39 213.46 3.05 214.01 3.59"/>
          <polygon class="cls-2" points="278.71 3.55 279.56 3.55 279.56 .27 278.71 .27 278.71 1.52 277.87 1.52 277.87 2.29 278.71 2.29 278.71 3.55"/>
          <rect class="cls-2" x="292.28" y=".27" width=".84" height="6.05"/>
          <rect class="cls-2" x="285.98" y=".27" width=".84" height="6.05"/>
          <path class="cls-2" d="m282.44,4.46c.4,0,.78-.14,1.06-.38h1.08v1.99h.84V.52h-.84v1h-1.06c-.29-.25-.67-.4-1.09-.4-.92,0-1.67.75-1.67,1.67s.75,1.67,1.67,1.67Zm1.6-2.16h.55v1.01h-.56c.05-.16.08-.33.08-.52s-.03-.34-.07-.5h0Zm-1.6-.33c.46,0,.83.37.83.83s-.37.83-.83.83-.83-.37-.83-.83.37-.83.83-.83Z"/>
          <polygon class="cls-2" points="274.07 3.05 274.61 3.59 275.95 2.25 277.29 3.59 277.84 3.05 276.34 1.55 276.34 1.39 277.57 1.39 277.57 .62 276.34 .62 275.5 .62 274.33 .62 274.33 1.39 275.5 1.39 275.5 1.62 274.07 3.05"/>
          <polygon class="cls-2" points="261.42 2.41 263.06 4.05 263.6 3.51 261.8 1.71 261.8 .77 260.96 .77 260.96 1.78 259.23 3.51 259.77 4.05 261.42 2.41"/>
          <polygon class="cls-2" points="242.89 4.58 243.43 5.13 244.77 3.79 246.11 5.13 246.65 4.58 245.16 3.08 245.16 2.45 246.39 2.45 246.39 1.68 243.15 1.68 243.15 2.45 244.31 2.45 244.31 3.15 242.89 4.58"/>
          <rect class="cls-2" x="224.91" y=".27" width=".84" height="6.05"/>
          <path class="cls-2" d="m229.79,3.8h.84V.62h-2.94v3.18h2.1Zm-1.26-2.41h1.26v1.64h-1.26v-1.64Z"/>
          <polygon class="cls-2" points="252.92 4.04 250.7 4.04 250.7 1.8 252.79 1.8 252.79 1.03 250.7 1.03 249.85 1.03 249.85 1.8 249.85 4.04 249.85 4.21 249.85 4.81 252.92 4.81 252.92 4.04"/>
          <polygon class="cls-2" points="232.53 2.67 233.37 2.67 233.37 1.9 232.53 1.9 232.53 .27 231.68 .27 231.68 4.3 232.53 4.3 232.53 2.67"/>
          <polygon class="cls-2" points="228.45 4.3 228.45 5.55 228.45 6.32 229.3 6.32 232.65 6.32 232.65 5.55 229.3 5.55 229.3 4.3 228.45 4.3"/>
          <polygon class="cls-2" points="241.08 2.17 241.92 2.17 241.92 1.4 241.08 1.4 241.08 .27 240.23 .27 240.23 3.3 241.08 3.3 241.08 2.17"/>
          <polygon class="cls-2" points="241.33 5.66 237.92 5.66 237.92 5.32 240.36 5.32 241.2 5.32 241.2 4.65 241.2 4.31 241.2 3.65 240.36 3.65 237.08 3.65 237.08 4.31 240.36 4.31 240.36 4.65 237.92 4.65 237.08 4.65 237.08 5.32 237.08 5.66 237.08 6.32 237.92 6.32 241.33 6.32 241.33 5.66"/>
          <polygon class="cls-2" points="248.04 3.3 248.89 3.3 248.89 2.53 248.04 2.53 248.04 .27 247.2 .27 247.2 6.32 248.04 6.32 248.04 3.3"/>
          <polygon class="cls-2" points="254.68 .27 253.83 .27 253.83 6.32 254.68 6.32 254.68 3.3 255.52 3.3 255.52 2.53 254.68 2.53 254.68 .27"/>
          <polygon class="cls-2" points="261.8 3.8 260.96 3.8 260.96 5.05 258.42 5.05 258.42 5.82 260.96 5.82 261.8 5.82 264.34 5.82 264.34 5.05 261.8 5.05 261.8 3.8"/>
          <polygon class="cls-2" points="268.23 1.73 270.11 3.3 270.6 2.7 268.65 1.08 268.65 .27 267.81 .27 267.81 1.08 265.86 2.7 266.36 3.3 268.23 1.73"/>
          <polygon class="cls-2" points="271.17 3.55 268.65 3.55 267.81 3.55 265.26 3.55 265.26 4.32 267.81 4.32 267.81 6.32 268.65 6.32 268.65 4.32 271.17 4.32 271.17 3.55"/>
          <polygon class="cls-2" points="297.4 4.04 295.18 4.04 295.18 1.8 297.27 1.8 297.27 1.03 295.18 1.03 294.33 1.03 294.33 1.8 294.33 4.04 294.33 4.21 294.33 4.81 297.4 4.81 297.4 4.04"/>
          <polygon class="cls-2" points="299.16 2.53 299.16 .27 298.31 .27 298.31 6.32 299.16 6.32 299.16 3.3 300 3.3 300 2.53 299.16 2.53"/>
          <rect class="cls-2" x="243.51" y=".52" width="2.11" height=".77"/>
          <polygon class="cls-2" points="220.41 4.59 221.04 5.03 222.18 3.39 222.33 3.39 223.46 5.03 224.1 4.59 222.68 2.53 222.68 1.39 223.91 1.39 223.91 .62 222.68 .62 221.83 .62 220.67 .62 220.67 1.39 221.83 1.39 221.83 2.53 220.41 4.59"/>
          <path class="cls-2" d="m239.3,1.78c0-.84-.68-1.51-1.51-1.51s-1.51.68-1.51,1.51.68,1.51,1.51,1.51,1.51-.68,1.51-1.51Zm-2.18,0c0-.37.3-.67.67-.67s.67.3.67.67-.3.67-.67.67-.67-.3-.67-.67Z"/>
          <path class="cls-2" d="m289.58,4.46c.92,0,1.67-.75,1.67-1.67s-.75-1.67-1.67-1.67-1.67.75-1.67,1.67.75,1.67,1.67,1.67Zm0-2.49c.46,0,.83.37.83.83s-.37.83-.83.83-.83-.37-.83-.83.37-.83.83-.83Z"/>
          <path class="cls-2" d="m276.53,5.06c0,.84.68,1.51,1.51,1.51s1.51-.68,1.51-1.51-.68-1.51-1.51-1.51-1.51.68-1.51,1.51Zm2.18,0c0,.37-.3.67-.67.67s-.67-.3-.67-.67.3-.67.67-.67.67.3.67.67Z"/>
          <path class="cls-2" d="m297.41,12.61l-6.19,6.2c-.79.8-.79,2.08,0,2.87s2.08.79,2.87,0l.99-.99v7.11c0,1.13.91,2.04,2.04,2.04,1.13,0,2.04-.91,2.04-2.04v-14.47c0-.91-1.11-1.37-1.75-.72h0Z"/>
          <path class="cls-2" d="m222.84,18.07l9.13,9.13c.8.8,2.09.8,2.88,0s.8-2.09,0-2.88l-12.01-12.01-12.01,12.01c-.8.8-.8,2.09,0,2.88h0c.8.8,2.09.8,2.88,0l9.13-9.13h0Z"/>
          <path class="cls-2" d="m288.55,29.25c.79-.8.79-2.08,0-2.88l-8.53-8.53-8.53,8.53c-.8.8-.8,2.09,0,2.88h0c.8.8,2.09.8,2.88,0l5.65-5.65,5.65,5.65c.8.8,2.09.8,2.88,0h0Z"/>
          <path class="cls-2" d="m261.04,12.31h0c-1.13,0-2.04.91-2.04,2.04v22.98c0,1.13.91,2.04,2.04,2.04,1.13,0,2.04-.91,2.04-2.04V14.34c0-1.13-.91-2.04-2.04-2.04h0Z"/>
          <path class="cls-2" d="m270.91,14.34c0,1.13.91,2.04,2.04,2.04h14.14c1.13,0,2.04-.91,2.04-2.04,0-1.13-.91-2.04-2.04-2.04h-14.14c-1.13,0-2.04.91-2.04,2.04h0Z"/>
          <path class="cls-2" d="m248.15,12.32c-4.51-.29-8.24,3.44-7.95,7.95.24,3.72,3.25,6.73,6.97,6.97,4.51.29,8.24-3.44,7.95-7.95-.24-3.73-3.25-6.73-6.97-6.97Zm2.9,7.74c-.13,1.65-1.47,2.98-3.11,3.11-2.09.17-3.84-1.58-3.67-3.67.13-1.65,1.47-2.98,3.11-3.11,2.09-.17,3.84,1.58,3.67,3.67Z"/>
          <path class="cls-2" d="m292.17,32.11c-4.51-.29-8.24,3.44-7.95,7.95.24,3.73,3.25,6.73,6.97,6.97,4.51.29,8.24-3.44,7.95-7.95-.24-3.72-3.25-6.73-6.97-6.97Zm-.77,10.85c-1.65-.13-2.98-1.47-3.11-3.11-.17-2.09,1.58-3.84,3.67-3.67,1.65.13,2.98,1.47,3.11,3.11.17,2.09-1.58,3.84-3.67,3.67Z"/>
          <path class="cls-2" d="m234.15,35.28h-13.27l3.42-3.42h0c.78-.78.78-2.05,0-2.83h0c-.81-.81-2.11-.81-2.92,0l-6.91,6.91-1.67,1.67c-.65.65-.19,1.75.73,1.75h20.63c1.11,0,2-.9,2-2.01h0v-.07c0-1.11-.9-2-2-2h0Z"/>
          <path class="cls-2" d="m174.31,14.19c3.91,0,7.1-3.18,7.1-7.1s-3.19-7.1-7.1-7.1-7.1,3.18-7.1,7.1,3.18,7.1,7.1,7.1h0Zm0-11.83c2.61,0,4.73,2.12,4.73,4.73s-2.12,4.73-4.73,4.73-4.73-2.12-4.73-4.73,2.12-4.73,4.73-4.73Z"/>
          <path class="cls-2" d="m152.7,14.19c3.91,0,7.1-3.18,7.1-7.1s-3.18-7.1-7.1-7.1-7.1,3.18-7.1,7.1,3.18,7.1,7.1,7.1h0Zm0-11.83c2.61,0,4.73,2.12,4.73,4.73s-2.12,4.73-4.73,4.73-4.73-2.12-4.73-4.73,2.12-4.73,4.73-4.73Z"/>
          <path class="cls-2" d="m195.01,0c-3.91,0-7.1,3.18-7.1,7.1s3.18,7.1,7.1,7.1,7.1-3.18,7.1-7.1-3.18-7.1-7.1-7.1Zm0,11.83c-2.61,0-4.73-2.12-4.73-4.73s2.12-4.73,4.73-4.73,4.73,2.12,4.73,4.73-2.12,4.73-4.73,4.73Z"/>
          <path class="cls-2" d="m195.01,16.39c-3.91,0-7.1,3.18-7.1,7.1v3.14h-1.78c-1.81,0-3.47.69-4.73,1.81v-4.96c0-3.91-3.18-7.1-7.1-7.1s-7.1,3.18-7.1,7.1v4.29l-9.17-9.17c-1.43-1.43-3.32-2.21-5.34-2.21s-3.91.79-5.34,2.21c0,0,0,0,0,0l-9.32,9.32c-1.43,1.43-2.21,3.32-2.21,5.34s.79,3.91,2.21,5.34c1.43,1.43,3.32,2.21,5.34,2.21s3.91-.79,5.34-2.21l3.99-3.99,3.99,3.99c1.43,1.43,3.32,2.21,5.34,2.21s3.91-.79,5.34-2.21c.35-.35.66-.73.93-1.12,1.26,2,3.48,3.34,6.01,3.34s4.64-1.26,5.91-3.18c1.27,1.91,3.45,3.18,5.91,3.18h8.87c3.91,0,7.1-3.18,7.1-7.1v-10.24c0-3.91-3.18-7.1-7.1-7.1h0Zm-4.73,7.1c0-2.61,2.12-4.73,4.73-4.73s4.73,2.12,4.73,4.73v4.96c-1.26-1.13-2.91-1.81-4.73-1.81h-4.73v-3.14Zm0,10.24v-4.73h4.73c2.61,0,4.73,2.12,4.73,4.73s-2.12,4.73-4.73,4.73-4.73-2.12-4.73-4.73Zm-32.39-9.78c0,1.39-.54,2.69-1.52,3.67l-3.67,3.67-3.67-3.67c-.98-.98-1.52-2.28-1.52-3.67s.54-2.69,1.52-3.67c.31-.31.64-.57,1.01-.79.8-.48,1.71-.73,2.66-.73s1.87.25,2.66.73c.36.22.7.48,1.01.79.98.98,1.52,2.28,1.52,3.67Zm-10.85,12.99c-.98.98-2.28,1.52-3.67,1.52s-2.69-.54-3.67-1.52c-2.02-2.02-2.02-5.31,0-7.33l5.45-5.45c.05,1.94.83,3.75,2.21,5.13l3.67,3.67-3.99,3.99h0Zm18.65,0c-.98.98-2.28,1.52-3.67,1.52s-2.69-.54-3.67-1.52l-3.99-3.99,3.67-3.67c1.42-1.42,2.15-3.27,2.2-5.13l5.45,5.45c.98.98,1.52,2.28,1.52,3.67s-.54,2.69-1.52,3.67h0Zm13.34-3.21c0,2.61-2.12,4.73-4.73,4.73s-4.73-2.12-4.73-4.73v-.45h0v-9.79c0-2.61,2.12-4.73,4.73-4.73s4.73,2.12,4.73,4.73v10.24Zm2.37,0c0-2.61,2.12-4.73,4.73-4.73h1.78v4.73c0,1.81.69,3.47,1.81,4.73h-3.59c-2.61,0-4.73-2.12-4.73-4.73h0Z"/>
        </g>
      </g>
    </g>
  </g>
</svg>