<?xml version="1.0" encoding="UTF-8"?>
<svg id="_레이어_2" data-name="레이어 2" xmlns="http://www.w3.org/2000/svg" viewBox="0 0 545.98 130.42">
  <defs>
    <style>
      .cls-1 {
        fill: #fff;
        stroke-width: 0px;
      }
    </style>
  </defs>
  <g id="Layer_1" data-name="Layer 1">
    <g>
      <g>
        <rect class="cls-1" x="124.7" y="22.21" width="19.05" height="85.99"/>
        <path class="cls-1" d="m455.1,44.36c-17.67,0-32.05,14.7-32.05,32.77s14.38,32.77,32.05,32.77c12.07,0,23.13-7,28.57-17.96h-18.09c-2.5,2.16-5.93,3.21-10.48,3.21-7.88,0-13.29-4.76-14.85-13.05l-.22-1.18h46.88c.17-1.39.25-2.61.25-3.78,0-18.07-14.38-32.77-32.05-32.77Zm13.24,26.51h-27.85l.42-1.3c2.15-6.74,7.19-10.46,14.19-10.46s12.04,3.71,14.19,10.46l.42,1.3h-1.37Z"/>
        <path class="cls-1" d="m187.28,45.63c-17.67,0-32.05,14.41-32.05,32.13s14.38,32.13,32.05,32.13c5.64,0,11.22-1.52,16.13-4.4l1.51-.88v3.6h19.05v-62.56h-19.05v5.27l-1.51-.88c-4.91-2.88-10.49-4.4-16.13-4.4Zm17.64,24v16.25l-.14.23c-2.97,5.12-8.48,8.3-14.36,8.3-9.16,0-16.62-7.47-16.62-16.66s7.46-16.66,16.62-16.66c5.88,0,11.39,3.18,14.36,8.3l.14.23Z"/>
        <path class="cls-1" d="m385.8,43.18c-7.09,0-13.93,2.44-19.79,7.05l-1.62,1.27v-5.86h-19.05v62.56h19.05v-33.47c.77-9.29,6.88-15.06,15.96-15.06,12.16,0,12.17,12.4,12.17,16.48v32.04h19.05v-36.28c0-8.03-2.38-15.27-6.71-20.39-4.62-5.47-11.21-8.36-19.07-8.36Z"/>
        <path class="cls-1" d="m538.91,92.42c-10.79,0-12.17-8.38-12.17-15.67v-1.74s0-3.62,0-3.62v-7.56h19.24v-16.5h-19.24v-25.11h-19.05v25.11h-11.9v16.5h11.9v17.19c0,8.03,2.38,15.27,6.71,20.39,4.62,5.47,11.21,8.36,19.07,8.36,3.77,0,6,.02,7.62.04.94,0,1.69.02,2.43.02.8,0,1.55,0,2.46-.03v-17.37h-7.07Z"/>
        <polygon class="cls-1" points="292.79 45.64 275.55 45.64 265 78.59 263.99 81.75 263.09 78.56 253.79 45.64 234.87 45.64 254.89 108.2 272.05 108.2 283.22 73.31 284.17 70.33 285.12 73.31 296.29 108.2 313.45 108.2 333.47 45.64 314.55 45.64 305.25 78.56 304.35 81.75 303.34 78.59 292.79 45.64"/>
      </g>
      <g>
        <path class="cls-1" d="m45.21,73.63c-20.33,0-36.81-16.48-36.81-36.81S24.88,0,45.21,0v73.63Z"/>
        <circle class="cls-1" cx="22.61" cy="107.76" r="22.61"/>
        <path class="cls-1" d="m58.59,130.42c20.33,0,36.81-16.48,36.81-36.81s-16.48-36.81-36.81-36.81v73.63Z"/>
        <path class="cls-1" d="m95.4,46.04c0-20.33-16.48-36.81-36.81-36.81v36.81h36.81Z"/>
      </g>
    </g>
  </g>
</svg>