<?xml version="1.0" encoding="UTF-8"?>
<svg id="Layer_2" data-name="Layer 2" xmlns="http://www.w3.org/2000/svg" viewBox="0 0 630.17 136.51">
  <defs>
    <style>
      .cls-1 {
        fill: #7244ed;
      }

      .cls-1, .cls-2, .cls-3, .cls-4 {
        stroke-width: 0px;
      }

      .cls-2 {
        fill: #fff;
      }

      .cls-3 {
        fill: #9c21d6;
      }

      .cls-4 {
        fill: #4924ff;
      }
    </style>
  </defs>
  <g id="Layer_1-2" data-name="Layer 1">
    <g>
      <g>
        <circle class="cls-1" cx="63.43" cy="22.28" r="22.28"/>
        <circle class="cls-1" cx="63.43" cy="104.59" r="22.28"/>
        <circle class="cls-3" cx="104.59" cy="63.43" r="22.28"/>
        <circle class="cls-4" cx="22.28" cy="63.43" r="22.28"/>
      </g>
      <g>
        <path class="cls-2" d="m197.19,20.35h-37.92v86.17h37.92c11.51,0,22.32-4.48,30.46-12.62,8.14-8.14,12.62-18.96,12.62-30.47,0-23.76-19.33-43.08-43.09-43.08Zm0,66.87h-18.61v-47.57h18.61c13.11,0,23.78,10.67,23.78,23.78s-10.67,23.78-23.78,23.78Z"/>
        <path class="cls-2" d="m315.1,62.68l-1.75-.65,1.63-.92c6.99-3.93,10.84-10.54,10.84-18.61,0-13.87-12.75-22.16-25.08-22.16h-45.28v86.17h48.4c14.56,0,25.55-9.83,25.55-22.88,0-10.1-5.08-17.54-14.31-20.96Zm-39.52-26.22h19.73c5.89,0,10.68,4.5,10.68,10.04s-4.79,10.04-10.68,10.04h-19.73v-20.08Zm23.62,53.95h-23.62v-20.02h23.62c5.89,0,10.68,4.49,10.68,10.01s-4.79,10.01-10.68,10.01Z"/>
        <polygon class="cls-2" points="419.66 20.67 397.92 20.67 362.25 61.47 362.25 20.35 343.5 20.35 343.5 106.52 362.25 106.52 362.25 86.34 374.31 72.54 397.98 106.52 419.91 106.52 386.51 58.58 419.66 20.67"/>
        <path class="cls-2" d="m449.59,42.47c-17.25,0-31.29,14.74-31.29,32.87s14.04,32.87,31.29,32.87c11.86,0,22.71-7.1,27.98-18.21h-17.83c-2.42,2.15-5.74,3.2-10.16,3.2-7.61,0-12.84-4.71-14.34-12.93l-.19-1.02h45.56c.17-1.45.26-2.71.26-3.91,0-18.12-14.04-32.87-31.29-32.87Zm-14.05,26.49l.35-1.12c2.07-6.68,6.94-10.36,13.71-10.36s11.63,3.68,13.7,10.36l.35,1.12h-28.11Z"/>
        <path class="cls-2" d="m521.73,42.47c-17.25,0-31.29,14.74-31.29,32.87s14.04,32.87,31.29,32.87c11.86,0,22.7-7.1,27.98-18.21h-17.83c-2.42,2.15-5.74,3.2-10.16,3.2-7.61,0-12.84-4.71-14.34-12.93l-.19-1.02h45.56c.17-1.45.26-2.71.26-3.91,0-18.12-14.04-32.87-31.29-32.87Zm-14.05,26.49l.35-1.12c2.07-6.68,6.94-10.36,13.71-10.36s11.63,3.68,13.7,10.36l.35,1.12h-28.11Z"/>
        <path class="cls-2" d="m598.88,43.74c-5.51,0-10.95,1.52-15.74,4.41l-1.31.79v-3.51h-18.75v91.08h18.75v-33.5l1.31.79c4.79,2.88,10.24,4.41,15.74,4.41,17.25,0,31.29-14.46,31.29-32.23s-14.04-32.23-31.29-32.23Zm-3.06,48.73c-5.69,0-11.01-3.15-13.88-8.23l-.11-.2v-16.15l.11-.2c2.87-5.08,8.19-8.23,13.88-8.23,8.86,0,16.06,7.4,16.06,16.5s-7.21,16.5-16.06,16.5Z"/>
      </g>
    </g>
  </g>
</svg>