<?xml version="1.0" encoding="UTF-8"?>
<svg id="Layer_2" data-name="Layer 2" xmlns="http://www.w3.org/2000/svg" viewBox="0 0 651.59 172.23">
  <defs>
    <style>
      .cls-1 {
        fill: #16bef2;
      }

      .cls-1, .cls-2, .cls-3, .cls-4, .cls-5, .cls-6 {
        stroke-width: 0px;
      }

      .cls-2 {
        fill: #32303b;
      }

      .cls-3 {
        fill: #475ece;
      }

      .cls-4 {
        fill: none;
      }

      .cls-5 {
        fill: #fff;
      }

      .cls-6 {
        fill: #2f9ffe;
      }
    </style>
  </defs>
  <g id="Layer_1-2" data-name="Layer 1">
    <g>
      <g>
        <path class="cls-3" d="m505.4,70.52h-53.5c-13.16,0-23.93,10.77-23.93,23.93s10.77,23.93,23.93,23.93h29.57v29.57c0,13.16,10.77,23.93,23.93,23.93h0c13.16,0,23.93-10.77,23.93-23.93v-53.5c0-13.16-10.77-23.93-23.93-23.93Z"/>
        <path class="cls-1" d="m529.33,70.5v-29.56c0-13.16-10.77-23.93-23.93-23.93h0c-13.16,0-23.93,10.77-23.93,23.93v19.63h23.93c9.34,0,17.8,3.8,23.93,9.93Z"/>
        <path class="cls-6" d="m558.9,70.52h-29.56c6.13,6.13,9.92,14.6,9.92,23.93v23.93h19.63c13.16,0,23.93-10.77,23.93-23.93s-10.77-23.93-23.93-23.93Z"/>
      </g>
      <g>
        <path class="cls-6" d="m113.23,15.99c-3.75,0-5.57,2.46-5.57,7.52s1.82,7.52,5.57,7.52,5.57-2.46,5.57-7.52-1.82-7.52-5.57-7.52Z"/>
        <path class="cls-6" d="m49.04,15.99c-3.75,0-5.57,2.46-5.57,7.52s1.82,7.52,5.57,7.52,5.57-2.46,5.57-7.52-1.82-7.52-5.57-7.52Z"/>
        <path class="cls-6" d="m165.67,0H23.51C10.52,0,0,10.52,0,23.51h0c0,12.98,10.52,23.51,23.51,23.51h142.16c12.98,0,23.51-10.52,23.51-23.51h0c0-12.98-10.52-23.51-23.51-23.51ZM33.27,33.38c-1.51,1-3.51,1.56-5.61,1.56h-.18c-2.13,0-4.14-.65-5.67-1.83-1.46-1.13-2.33-2.63-2.45-4.23l-.02-.2h4.22l.03.14c.31,1.36,2.26,2.2,3.88,2.2h.18c3.11,0,4.24-1.61,4.24-2.69,0-1.56-1.45-2.29-3.02-2.86l-4.15-1.49c-3.26-1.17-4.91-3.11-4.91-5.76,0-3.56,3.22-6.15,7.65-6.15h.18c2.08,0,4.06.65,5.56,1.83,1.43,1.13,2.28,2.63,2.4,4.23v.2s-4.2,0-4.2,0l-.03-.15c-.26-1.25-1.86-2.2-3.72-2.2h-.18c-1.71,0-3.44.69-3.44,2.24,0,1.09.81,1.6,2.22,2.11l4.15,1.49c3.79,1.37,5.71,3.56,5.71,6.51,0,2.04-1.01,3.83-2.84,5.05Zm23.27-1.4c-1.62,1.99-4.08,2.96-7.51,2.96-6.6,0-9.81-3.74-9.81-11.43s3.21-11.43,9.81-11.43c3.43,0,5.88.97,7.51,2.96,1.55,1.9,2.3,4.67,2.3,8.47s-.75,6.58-2.3,8.47Zm10.64,2.4h-4.36V12.64h4.36v21.74Zm13.34-6.78c0,4.05-3.29,7.34-7.32,7.34-.15,0-1.36-.05-1.76-.09v-3.98c.31.03.88.08.95.09.21.02.46.03.71.03.38,0,.71-.04,1-.13,1.22-.37,2.08-1.52,2.08-2.8v-15.43h4.36v14.97Zm18.9-11.01h-10.41v4.94h9.85v3.96h-9.85v4.94h10.41v3.96h-14.65V12.64h14.65v3.96Zm21.3,15.39c-1.62,1.99-4.08,2.96-7.51,2.96-6.6,0-9.81-3.74-9.81-11.43s3.21-11.43,9.81-11.43c3.43,0,5.88.97,7.51,2.96,1.55,1.9,2.3,4.67,2.3,8.47s-.75,6.58-2.3,8.47Zm25.46,2.4h-4.32l-10.61-15.42v15.42h-4.23V12.64h4.32l10.62,15.42v-15.42h4.23v21.74Zm22.6-1.62c-1.03.72-2.29,1.27-3.75,1.64-1.46.36-3.17.55-5.06.55-6.6,0-9.81-3.74-9.81-11.43s3.21-11.43,9.81-11.43c3.35,0,5.35.23,8.11,1.58l-1.52,3.52c-2.44-1.03-5.17-1.19-6.59-1.19-3.75,0-5.57,2.46-5.57,7.52s1.82,7.52,5.57,7.52c1.94,0,3.4-.25,4.46-.76l.11-.05v-4.73h-4.38v-3.96h8.62v11.23Z"/>
        <path class="cls-2" d="m76.18,28.06c0,1.28-.85,2.43-2.08,2.8-.29.09-.62.13-1,.13-.25,0-.5-.02-.71-.03-.07,0-.63-.06-.95-.09v3.98c.4.04,1.61.09,1.76.09,4.04,0,7.32-3.29,7.32-7.34v-14.97h-4.36v15.43Z"/>
        <rect class="cls-2" x="62.84" y="12.64" width="4.36" height="21.74"/>
        <polygon class="cls-2" points="141.96 28.06 131.34 12.64 127.02 12.64 127.02 34.38 131.25 34.38 131.25 18.96 141.87 34.38 146.19 34.38 146.19 12.64 141.96 12.64 141.96 28.06"/>
        <polygon class="cls-2" points="84.78 34.38 99.43 34.38 99.43 30.42 89.02 30.42 89.02 25.49 98.87 25.49 98.87 21.53 89.02 21.53 89.02 16.59 99.43 16.59 99.43 12.64 84.78 12.64 84.78 34.38"/>
        <path class="cls-2" d="m113.23,12.07c-6.6,0-9.81,3.74-9.81,11.43s3.21,11.43,9.81,11.43c3.43,0,5.88-.97,7.51-2.96,1.55-1.9,2.3-4.67,2.3-8.47s-.75-6.58-2.3-8.47c-1.62-1.99-4.08-2.96-7.51-2.96Zm0,18.95c-3.75,0-5.57-2.46-5.57-7.52s1.82-7.52,5.57-7.52,5.57,2.46,5.57,7.52-1.82,7.52-5.57,7.52Z"/>
        <path class="cls-2" d="m49.04,12.07c-6.6,0-9.81,3.74-9.81,11.43s3.21,11.43,9.81,11.43c3.43,0,5.88-.97,7.51-2.96,1.55-1.9,2.3-4.67,2.3-8.47s-.75-6.58-2.3-8.47c-1.62-1.99-4.08-2.96-7.51-2.96Zm0,18.95c-3.75,0-5.57-2.46-5.57-7.52s1.82-7.52,5.57-7.52,5.57,2.46,5.57,7.52-1.82,7.52-5.57,7.52Z"/>
        <path class="cls-2" d="m160.18,25.49h4.38v4.73l-.11.05c-1.07.51-2.53.76-4.46.76-3.75,0-5.57-2.46-5.57-7.52s1.82-7.52,5.57-7.52c1.42,0,4.15.16,6.59,1.19l1.52-3.52c-2.76-1.35-4.75-1.58-8.11-1.58-6.6,0-9.81,3.74-9.81,11.43s3.21,11.43,9.81,11.43c1.89,0,3.59-.18,5.06-.55,1.45-.36,2.71-.91,3.75-1.64v-11.23h-8.62v3.96Z"/>
        <path class="cls-2" d="m30.4,21.83l-4.15-1.49c-1.41-.51-2.22-1.01-2.22-2.11,0-1.55,1.73-2.24,3.44-2.24h.18c1.86,0,3.47.95,3.72,2.2l.03.15h4.22v-.2c-.13-1.6-.99-3.11-2.42-4.23-1.5-1.18-3.47-1.83-5.56-1.83h-.18c-4.43,0-7.65,2.59-7.65,6.15,0,2.65,1.65,4.58,4.91,5.76l4.15,1.49c1.57.57,3.02,1.3,3.02,2.86,0,1.08-1.13,2.69-4.24,2.69h-.18c-1.63,0-3.57-.84-3.88-2.2l-.03-.14h-4.22l.02.2c.12,1.6.99,3.11,2.45,4.23,1.53,1.18,3.54,1.83,5.67,1.83h.18c2.11,0,4.1-.55,5.61-1.56,1.83-1.22,2.84-3.01,2.84-5.05,0-2.95-1.92-5.14-5.71-6.51Z"/>
      </g>
      <g>
        <path class="cls-4" d="m307.97,87.43c-14.22,0-22.87,11.82-22.87,26.4s8.65,26.4,22.87,26.4,22.87-11.82,22.87-26.4-8.65-26.4-22.87-26.4Z"/>
        <path class="cls-4" d="m206.23,86.96c-10.9,0-17.33,7.11-19.62,17.05h39.24c-2.28-9.93-8.73-17.05-19.62-17.05Z"/>
        <rect class="cls-5" x="378.61" y="70.16" width="21.69" height="87.33"/>
        <path class="cls-5" d="m307.97,68.05c-27.16,0-46.13,18.82-46.13,45.78s18.97,45.78,46.13,45.78,47.78-19.25,47.78-45.78V31.44h-21.69v49.74l-2.11-2.41c-6.34-7.22-14.19-10.73-23.98-10.73Zm0,73.38c-14.18,0-24.08-11.35-24.08-27.6s9.9-27.6,24.08-27.6,24.08,11.35,24.08,27.6-9.9,27.6-24.08,27.6Z"/>
        <path class="cls-5" d="m107.04,68.05h-3.23c-11,0-21.35,4.37-29.13,12.31l-.86.88-.86-.88c-7.78-7.94-18.12-12.31-29.13-12.31h-3.23c-21.72,0-39.39,17.67-39.39,39.39v50.05h21.69v-51.52c0-10.87,8.85-19.72,19.72-19.72s20.35,9.13,20.35,20.35v50.88h21.69v-50.88c0-11.22,9.13-20.35,20.35-20.35s19.72,8.85,19.72,19.72v51.52h21.69v-52.11c-1.07-20.9-18.37-37.33-39.39-37.33Z"/>
        <path class="cls-5" d="m389.46,56.48c7.68,0,13.93-6.25,13.93-13.93s-6.25-13.93-13.93-13.93-13.93,6.25-13.93,13.93,6.25,13.93,13.93,13.93Z"/>
        <path class="cls-5" d="m206.23,68.05c-13.29,0-24.41,4.51-32.14,13.06-7.19,7.94-11.15,19.18-11.15,31.67s3.96,23.73,11.15,31.67c7.74,8.54,18.85,13.06,32.14,13.06h0c16.16,0,28.97-3.57,37.15-10.35l-13.77-12.34c-5.11,3.3-12.97,4.97-23.39,4.97s-18.23-6.6-20.82-18.11l-.33-1.47h63.95c.33-2.49.5-4.98.5-7.42,0-2.28-.17-4.68-.51-7.31-2.98-23.07-19.38-37.41-42.78-37.41Zm19.62,37.17h-40.75l.34-1.48c2.63-11.43,10.21-17.98,20.79-17.98s18.17,6.55,20.8,17.98l.34,1.48h-1.52Z"/>
      </g>
      <g>
        <path class="cls-5" d="m586.71,141.7l-10.71,30.19h-9.2l-10.71-30.19h7.83l7.48,22.79,7.53-22.79h7.78Z"/>
        <path class="cls-5" d="m591.82,164.92c2.81-2.32,5.02-4.23,6.64-5.72,1.62-1.49,2.99-3.05,4.11-4.69,1.12-1.63,1.68-3.22,1.68-4.77,0-1.18-.27-2.09-.82-2.75-.54-.66-1.36-.99-2.45-.99s-1.94.41-2.56,1.23c-.62.82-.93,1.97-.93,3.46h-7.09c.06-2.44.58-4.47,1.57-6.11.99-1.63,2.29-2.84,3.91-3.61,1.62-.77,3.42-1.16,5.4-1.16,3.41,0,5.98.88,7.72,2.62,1.73,1.75,2.6,4.03,2.6,6.84,0,3.07-1.05,5.91-3.14,8.54-2.09,2.62-4.76,5.18-8,7.67h11.61v5.98h-21.59v-5.46c.97-.77,1.42-1.13,1.33-1.08Z"/>
        <path class="cls-5" d="m616.31,171.09c-.82-.76-1.23-1.7-1.23-2.82s.41-2.11,1.23-2.88c.82-.77,1.87-1.16,3.16-1.16s2.3.39,3.12,1.16c.82.77,1.23,1.74,1.23,2.88s-.41,2.06-1.23,2.82c-.82.76-1.86,1.14-3.12,1.14s-2.34-.38-3.16-1.14Z"/>
        <path class="cls-5" d="m630.29,144.11c1.91-2.84,4.98-4.26,9.22-4.26s7.32,1.42,9.22,4.26,2.86,6.72,2.86,11.65-.95,8.9-2.86,11.74-4.98,4.26-9.22,4.26-7.32-1.42-9.22-4.26-2.86-6.75-2.86-11.74.95-8.82,2.86-11.65Zm13.14,4.97c-.63-1.56-1.94-2.34-3.91-2.34s-3.28.78-3.91,2.34-.95,3.79-.95,6.69c0,1.95.11,3.56.34,4.84.23,1.28.69,2.31,1.4,3.1.7.79,1.74,1.18,3.12,1.18s2.42-.39,3.12-1.18c.7-.79,1.17-1.82,1.4-3.1.23-1.28.34-2.89.34-4.84,0-2.9-.31-5.12-.95-6.69Z"/>
      </g>
    </g>
  </g>
</svg>