<svg xmlns="http://www.w3.org/2000/svg" xmlns:xlink="http://www.w3.org/1999/xlink" width="440" height="149" viewBox="0 0 440 149">
  <defs>
    <clipPath id="clip-path">
      <rect id="사각형_1189" data-name="사각형 1189" width="440" height="149" transform="translate(0.17 0.477)" fill="none"/>
    </clipPath>
  </defs>
  <g id="S-CMS_로고" data-name="S-CMS 로고" transform="translate(40.83 35.523)">
    <g id="그룹_5271" data-name="그룹 5271" transform="translate(-41 -36)" clip-path="url(#clip-path)">
      <path id="패스_4143" data-name="패스 4143" d="M193.8,38.777c-10.161,0-18.312,4.821-23,12-4.335-6.955-11.654-12-21-12a27.525,27.525,0,0,0-18,7v-7h-20v66h20v-33h0v-4c0-7.468,4.532-14,12-14,7.221,0,12,6.779,12,14v4h0v33h19v-37c0-7.468,5.532-14,13-14,7.221,0,11,6.779,11,14v6h0v31h20v-38h0c-.581-15.156-9.659-28-25-28" transform="translate(84.374 29.699)" fill="#fff"/>
      <path id="패스_4144" data-name="패스 4144" d="M1.986,76.8h0a47.691,47.691,0,0,1,48-48,47.691,47.691,0,0,1,48,48c0,26.754-21.246,49-48,49s-48-22.246-48-49" transform="translate(1.183 21.673)" fill="#ff9967"/>
      <path id="패스_4145" data-name="패스 4145" d="M22.169,107.988c-23.157-23.157-29.214-55.786-13-72s47.841-10.157,71,13,29.212,54.788,13,71-47.843,11.157-71-12" transform="translate(0 20.49)" fill="#ff9967"/>
      <path id="패스_4146" data-name="패스 4146" d="M22.169,48.988c23.157-23.157,54.786-29.214,71-13s10.157,48.841-13,72-54.788,28.212-71,12-10.157-47.843,13-71" transform="translate(0 20.489)" fill="#ff9967"/>
      <path id="패스_4147" data-name="패스 4147" d="M49.006,67.117l-13-5c-4.393-1.584-7-3.582-7-7,0-4.837,5.648-7,11-7h1c5.83,0,10.19,3.081,11,7v1h14v-1c-.372-5.011-3.53-9.478-8-13a27.239,27.239,0,0,0-17-6h-1c-13.86,0-24,7.85-24,19,0,8.273,5.818,14.331,16,18l13,5c4.909,1.769,9,4.135,9,9,0,3.381-3.266,8-13,8h-1c-5.083,0-11.032-2.746-12-7h-13v1a17.364,17.364,0,0,0,7,13,30.058,30.058,0,0,0,18,6h1a30.2,30.2,0,0,0,17-5,19.132,19.132,0,0,0,9-16c0-9.234-6.148-15.728-18-20" transform="translate(11.164 27.36)" fill="#fff"/>
      <path id="패스_4148" data-name="패스 4148" d="M102.574,91.08c-9.855,0-13-8.677-13-19s3.145-18,13-18c6.313,0,10.15,2.926,12,8h20c-3.794-13.507-15.454-23-32-23-20.4,0-33,14.624-33,33s12.6,33,33,33c16.546,0,28.206-9.491,32-23h-20c-1.837,5.239-5.645,9-12,9" transform="translate(52.595 29.397)" fill="#fff"/>
      <path id="패스_4149" data-name="패스 4149" d="M208.8,91.059c5.594,0,9-2.269,9-5,0-2.211-2.837-3.348-7-4l-13-2c-10.8-1.82-18-8.943-18-20,0-13.27,11.219-21,28-21,14.96,0,28.088,5.349,29,22h-18c-.392-4.683-5.148-7-11-7-5.464,0-8,1.657-8,4,0,2.211,1.926,5.088,7,6l11,2c11.707,2.211,20,7.813,20,19,0,14.568-12.481,20-29,20-16.263,0-29.568-5.219-31-22h19c.912,5.462,5.366,8,12,8" transform="translate(134.369 29.419)" fill="#fff"/>
      <path id="패스_4150" data-name="패스 4150" d="M206.562,24.773h0c0-2.777,3.223-5,6-5h16a5,5,0,0,1,0,10h-16c-2.777,0-6-2.223-6-5" transform="translate(156.608 14.704)" fill="#ff9967"/>
      <path id="패스_4151" data-name="패스 4151" d="M229.57,32.783h-16c-4.075,0-8-2.925-8-7a8.484,8.484,0,0,1,8-8h16a8.484,8.484,0,0,1,8,8c0,4.075-3.925,7-8,7m-16-10a3.241,3.241,0,0,0-3,3c0,1.491,1.509,2,3,2h16c1.49,0,3-.509,3-2a3.242,3.242,0,0,0-3-3Z" transform="translate(155.599 13.695)" fill="#ff9967"/>
      <path id="패스_4152" data-name="패스 4152" d="M233.4,24.773h0a4.98,4.98,0,0,1,5-5h17a5,5,0,0,1,0,10h-17a4.98,4.98,0,0,1-5-5" transform="translate(176.77 14.704)" fill="#ff9967"/>
      <path id="패스_4153" data-name="패스 4153" d="M256.408,32.783h-17a6.748,6.748,0,0,1-7-7c0-4.075,2.923-8,7-8h17a8.483,8.483,0,0,1,8,8c0,4.075-3.923,7-8,7m-17-10c-1.493,0-2,1.509-2,3s.507,2,2,2h17c1.491,0,3-.509,3-2a3.241,3.241,0,0,0-3-3Z" transform="translate(175.761 13.695)" fill="#ff9967"/>
      <path id="패스_4154" data-name="패스 4154" d="M229.866,1.468h0a4.98,4.98,0,0,1,5,5v17a5,5,0,0,1-10,0v-17a4.98,4.98,0,0,1,5-5" transform="translate(170.304 1.009)" fill="#ff9967"/>
      <path id="패스_4155" data-name="패스 4155" d="M230.876,31.477a6.748,6.748,0,0,1-7-7v-17a6.748,6.748,0,0,1,7-7c4.075,0,8,2.925,8,7v17c0,4.075-3.925,7-8,7m0-27c-1.493,0-2,1.509-2,3v17c0,1.489.507,2,2,2s3-.511,3-2v-17a3.241,3.241,0,0,0-3-3" transform="translate(169.294 0)" fill="#ff9967"/>
      <path id="패스_4156" data-name="패스 4156" d="M229.866,28.307h0a4.98,4.98,0,0,1,5,5v17a5,5,0,0,1-10,0v-17a4.98,4.98,0,0,1,5-5" transform="translate(170.304 21.171)" fill="#ff9967"/>
      <path id="패스_4157" data-name="패스 4157" d="M230.876,58.316a6.747,6.747,0,0,1-7-7v-17c0-4.077,2.923-8,7-8a8.483,8.483,0,0,1,8,8v17c0,4.077-3.925,7-8,7m0-27c-1.493,0-2,1.507-2,3v17c0,1.491.507,2,2,2s3-.509,3-2v-17a3.239,3.239,0,0,0-3-3" transform="translate(169.294 20.161)" fill="#ff9967"/>
    </g>
  </g>
</svg>
