<?xml version="1.0" encoding="UTF-8"?>
<svg id="Layer_2" data-name="Layer 2" xmlns="http://www.w3.org/2000/svg" viewBox="0 0 300 300">
  <defs>
    <style>
      .cls-1 {
        fill: #e0e0e0;
      }

      .cls-1, .cls-2 {
        stroke-width: 0px;
      }

      .cls-2 {
        fill: none;
      }

      .cls-3 {
        fill: #ff5f00;
        font-family: SegoeUIVariable, 'Segoe UI Variable';
        font-size: 15px;
        font-variation-settings: 'wght' 400, 'opsz' 10;
      }
    </style>
  </defs>
  <g id="Layer_1-2" data-name="Layer 1">
    <g>
      <g>
        <g>
          <text class="cls-3" transform="translate(145.7 31.07) rotate(-.93)"><tspan x="0" y="0">P</tspan></text>
          <text class="cls-3" transform="translate(154.54 31.06) rotate(3.39)"><tspan x="0" y="0">r</tspan></text>
          <text class="cls-3" transform="translate(160.19 31.35) rotate(6.95)"><tspan x="0" y="0">o</tspan></text>
          <text class="cls-3" transform="translate(169.35 32.55) rotate(10.16)"><tspan x="0" y="0">j</tspan></text>
          <text class="cls-3" transform="translate(173.39 33.23) rotate(13.17)"><tspan x="0" y="0">e</tspan></text>
          <text class="cls-3" transform="translate(181.44 35.14) rotate(16.96)"><tspan x="0" y="0">c</tspan></text>
          <text class="cls-3" transform="translate(188.49 37.33) rotate(20.09)"><tspan x="0" y="0">t</tspan></text>
          <text class="cls-3" transform="translate(193.71 39.27) rotate(22.55)"><tspan x="0" y="0"> </tspan></text>
          <text class="cls-3" transform="translate(197.98 41.05) rotate(24.77)"><tspan x="0" y="0">I</tspan></text>
          <text class="cls-3" transform="translate(202.02 42.86) rotate(27.99)"><tspan x="0" y="0">n</tspan></text>
          <text class="cls-3" transform="translate(209.88 47.05) rotate(32.36)"><tspan x="0" y="0">q</tspan></text>
          <text class="cls-3" transform="translate(217.69 52.02) rotate(36.73)"><tspan x="0" y="0">u</tspan></text>
          <text class="cls-3" transform="translate(224.8 57.42) rotate(39.84)"><tspan x="0" y="0">i</tspan></text>
          <text class="cls-3" transform="translate(227.98 60.07) rotate(42.2)"><tspan x="0" y="0">r</tspan></text>
          <text class="cls-3" transform="translate(232.2 63.87) rotate(45.41)"><tspan x="0" y="0">y</tspan></text>
          <text class="cls-3" transform="translate(237.57 69.4) rotate(48.34)"><tspan x="0" y="0"> </tspan></text>
          <text class="cls-3" transform="translate(240.63 72.86) rotate(50.55)"><tspan x="0" y="0"> </tspan></text>
          <text class="cls-3" transform="translate(243.55 76.42) rotate(52.76)"><tspan x="0" y="0"> </tspan></text>
          <text class="cls-3" transform="translate(246.33 80.09) rotate(54.97)"><tspan x="0" y="0"> </tspan></text>
          <text class="cls-3" transform="translate(248.97 83.87) rotate(57.18)"><tspan x="0" y="0"> </tspan></text>
          <text class="cls-3" transform="translate(251.46 87.76) rotate(59.41)"><tspan x="0" y="0"> </tspan></text>
          <text class="cls-3" transform="translate(253.79 91.71) rotate(61.62)"><tspan x="0" y="0"> </tspan></text>
          <text class="cls-3" transform="translate(255.97 95.77) rotate(63.85)"><tspan x="0" y="0"> </tspan></text>
          <text class="cls-3" transform="translate(258.01 99.93) rotate(66.09)"><tspan x="0" y="0"> </tspan></text>
          <text class="cls-3" transform="translate(259.86 104.14) rotate(68.32)"><tspan x="0" y="0"> </tspan></text>
          <text class="cls-3" transform="translate(261.59 108.37) rotate(71.57)"><tspan x="0" y="0">P</tspan></text>
          <text class="cls-3" transform="translate(264.33 116.76) rotate(75.08)"><tspan x="0" y="0">r</tspan></text>
          <text class="cls-3" transform="translate(265.82 122.21) rotate(78.68)"><tspan x="0" y="0">o</tspan></text>
          <text class="cls-3" transform="translate(267.56 131.31) rotate(81.91)"><tspan x="0" y="0">j</tspan></text>
          <text class="cls-3" transform="translate(268.17 135.36) rotate(84.89)"><tspan x="0" y="0">e</tspan></text>
          <text class="cls-3" transform="translate(268.88 143.61) rotate(88.62)"><tspan x="0" y="0">c</tspan></text>
          <text class="cls-3" transform="translate(269.02 150.99) rotate(91.67)"><tspan x="0" y="0">t</tspan></text>
          <text class="cls-3" transform="translate(268.84 156.57) rotate(94.09)"><tspan x="0" y="0"> </tspan></text>
          <text class="cls-3" transform="translate(268.5 161.17) rotate(96.27)"><tspan x="0" y="0">I</tspan></text>
          <text class="cls-3" transform="translate(268.06 165.6) rotate(99.5)"><tspan x="0" y="0">n</tspan></text>
          <text class="cls-3" transform="translate(266.59 174.36) rotate(103.88)"><tspan x="0" y="0">q</tspan></text>
          <text class="cls-3" transform="translate(264.35 183.32) rotate(108.28)"><tspan x="0" y="0">u</tspan></text>
          <text class="cls-3" transform="translate(261.48 191.78) rotate(111.43)"><tspan x="0" y="0">i</tspan></text>
          <text class="cls-3" transform="translate(259.97 195.64) rotate(113.83)"><tspan x="0" y="0">r</tspan></text>
          <text class="cls-3" transform="translate(257.69 200.82) rotate(117.06)"><tspan x="0" y="0">y</tspan></text>
          <text class="cls-3" transform="translate(254.13 207.69) rotate(120.03)"><tspan x="0" y="0"> </tspan></text>
          <text class="cls-3" transform="translate(251.82 211.67) rotate(122.24)"><tspan x="0" y="0"> </tspan></text>
          <text class="cls-3" transform="translate(249.36 215.54) rotate(124.45)"><tspan x="0" y="0"> </tspan></text>
          <text class="cls-3" transform="translate(246.73 219.36) rotate(126.67)"><tspan x="0" y="0"> </tspan></text>
          <text class="cls-3" transform="translate(243.98 223.04) rotate(128.88)"><tspan x="0" y="0"> </tspan></text>
          <text class="cls-3" transform="translate(241.07 226.63) rotate(131.09)"><tspan x="0" y="0"> </tspan></text>
          <text class="cls-3" transform="translate(238.04 230.09) rotate(133.29)"><tspan x="0" y="0"> </tspan></text>
          <text class="cls-3" transform="translate(234.88 233.43) rotate(135.49)"><tspan x="0" y="0"> </tspan></text>
          <text class="cls-3" transform="translate(231.57 236.68) rotate(137.71)"><tspan x="0" y="0"> </tspan></text>
          <text class="cls-3" transform="translate(228.16 239.76) rotate(139.91)"><tspan x="0" y="0"> </tspan></text>
          <text class="cls-3" transform="translate(224.7 242.73) rotate(143.12)"><tspan x="0" y="0">P</tspan></text>
          <text class="cls-3" transform="translate(217.59 247.99) rotate(146.6)"><tspan x="0" y="0">r</tspan></text>
          <text class="cls-3" transform="translate(212.89 251.14) rotate(150.19)"><tspan x="0" y="0">o</tspan></text>
          <text class="cls-3" transform="translate(204.83 255.66) rotate(153.4)"><tspan x="0" y="0">j</tspan></text>
          <text class="cls-3" transform="translate(201.18 257.53) rotate(156.41)"><tspan x="0" y="0">e</tspan></text>
          <text class="cls-3" transform="translate(193.58 260.82) rotate(160.2)"><tspan x="0" y="0">c</tspan></text>
          <text class="cls-3" transform="translate(186.62 263.29) rotate(163.33)"><tspan x="0" y="0">t</tspan></text>
          <text class="cls-3" transform="translate(181.29 264.86) rotate(165.79)"><tspan x="0" y="0"> </tspan></text>
          <text class="cls-3" transform="translate(176.8 265.99) rotate(168.01)"><tspan x="0" y="0">I</tspan></text>
          <text class="cls-3" transform="translate(172.46 266.96) rotate(171.25)"><tspan x="0" y="0">n</tspan></text>
          <text class="cls-3" transform="translate(163.68 268.31) rotate(175.59)"><tspan x="0" y="0">q</tspan></text>
          <text class="cls-3" transform="translate(154.48 268.93) rotate(179.07)"><tspan x="0" y="0">u</tspan></text>
          <text class="cls-3" transform="translate(145.5 268.93) rotate(-177.01)"><tspan x="0" y="0">i</tspan></text>
          <text class="cls-3" transform="translate(141.39 268.72) rotate(-174.66)"><tspan x="0" y="0">r</tspan></text>
          <text class="cls-3" transform="translate(135.74 268.21) rotate(-171.45)"><tspan x="0" y="0">y</tspan></text>
          <text class="cls-3" transform="translate(128.12 267.01) rotate(-168.48)"><tspan x="0" y="0"> </tspan></text>
          <text class="cls-3" transform="translate(123.6 266.08) rotate(-166.24)"><tspan x="0" y="0"> </tspan></text>
          <text class="cls-3" transform="translate(119.13 264.98) rotate(-164.01)"><tspan x="0" y="0"> </tspan></text>
          <text class="cls-3" transform="translate(114.69 263.69) rotate(-161.77)"><tspan x="0" y="0"> </tspan></text>
          <text class="cls-3" transform="translate(110.33 262.25) rotate(-159.54)"><tspan x="0" y="0"> </tspan></text>
          <text class="cls-3" transform="translate(106.01 260.63) rotate(-157.3)"><tspan x="0" y="0"> </tspan></text>
          <text class="cls-3" transform="translate(101.76 258.84) rotate(-155.07)"><tspan x="0" y="0"> </tspan></text>
          <text class="cls-3" transform="translate(97.59 256.89) rotate(-152.85)"><tspan x="0" y="0"> </tspan></text>
          <text class="cls-3" transform="translate(93.49 254.78) rotate(-150.62)"><tspan x="0" y="0"> </tspan></text>
          <text class="cls-3" transform="translate(89.47 252.5) rotate(-148.39)"><tspan x="0" y="0"> </tspan></text>
          <text class="cls-3" transform="translate(85.57 250.15) rotate(-145.17)"><tspan x="0" y="0">P</tspan></text>
          <text class="cls-3" transform="translate(78.35 245.06) rotate(-141.7)"><tspan x="0" y="0">r</tspan></text>
          <text class="cls-3" transform="translate(73.89 241.59) rotate(-138.14)"><tspan x="0" y="0">o</tspan></text>
          <text class="cls-3" transform="translate(67.04 235.34) rotate(-134.94)"><tspan x="0" y="0">j</tspan></text>
          <text class="cls-3" transform="translate(64.12 232.47) rotate(-131.97)"><tspan x="0" y="0">e</tspan></text>
          <text class="cls-3" transform="translate(58.61 226.3) rotate(-128.23)"><tspan x="0" y="0">c</tspan></text>
          <text class="cls-3" transform="translate(54.07 220.47) rotate(-125.13)"><tspan x="0" y="0">t</tspan></text>
          <text class="cls-3" transform="translate(50.88 215.91) rotate(-122.69)"><tspan x="0" y="0"> </tspan></text>
          <text class="cls-3" transform="translate(48.4 212.02) rotate(-120.49)"><tspan x="0" y="0">I</tspan></text>
          <text class="cls-3" transform="translate(46.1 208.21) rotate(-117.26)"><tspan x="0" y="0">n</tspan></text>
          <text class="cls-3" transform="translate(42.03 200.31) rotate(-112.88)"><tspan x="0" y="0">q</tspan></text>
          <text class="cls-3" transform="translate(38.46 191.78) rotate(-108.49)"><tspan x="0" y="0">u</tspan></text>
          <text class="cls-3" transform="translate(35.7 183.27) rotate(-105.32)"><tspan x="0" y="0">i</tspan></text>
          <text class="cls-3" transform="translate(34.61 179.3) rotate(-102.94)"><tspan x="0" y="0">r</tspan></text>
          <text class="cls-3" transform="translate(33.32 173.77) rotate(-99.7)"><tspan x="0" y="0">y</tspan></text>
          <text class="cls-3" transform="translate(32.07 166.15) rotate(-96.74)"><tspan x="0" y="0"> </tspan></text>
          <text class="cls-3" transform="translate(31.54 161.58) rotate(-94.53)"><tspan x="0" y="0"> </tspan></text>
          <text class="cls-3" transform="translate(31.18 156.99) rotate(-92.34)"><tspan x="0" y="0"> </tspan></text>
          <text class="cls-3" transform="translate(31.03 152.37) rotate(-90.93)"><tspan x="0" y="0"> </tspan></text>
          <text class="cls-3" transform="translate(31 147.76) rotate(-87.97)"><tspan x="0" y="0"> </tspan></text>
          <text class="cls-3" transform="translate(31.18 143.15) rotate(-85.77)"><tspan x="0" y="0"> </tspan></text>
          <text class="cls-3" transform="translate(31.52 138.56) rotate(-83.57)"><tspan x="0" y="0"> </tspan></text>
          <text class="cls-3" transform="translate(32.05 133.98) rotate(-81.35)"><tspan x="0" y="0"> </tspan></text>
          <text class="cls-3" transform="translate(32.75 129.42) rotate(-79.12)"><tspan x="0" y="0"> </tspan></text>
          <text class="cls-3" transform="translate(33.63 124.9) rotate(-76.89)"><tspan x="0" y="0"> </tspan></text>
          <text class="cls-3" transform="translate(34.62 120.44) rotate(-73.63)"><tspan x="0" y="0">P</tspan></text>
          <text class="cls-3" transform="translate(37.17 111.99) rotate(-70.12)"><tspan x="0" y="0">r</tspan></text>
          <text class="cls-3" transform="translate(39.06 106.65) rotate(-66.51)"><tspan x="0" y="0">o</tspan></text>
          <text class="cls-3" transform="translate(42.82 98.21) rotate(-63.29)"><tspan x="0" y="0">j</tspan></text>
          <text class="cls-3" transform="translate(44.62 94.53) rotate(-60.3)"><tspan x="0" y="0">e</tspan></text>
          <text class="cls-3" transform="translate(48.74 87.36) rotate(-56.54)"><tspan x="0" y="0">c</tspan></text>
          <text class="cls-3" transform="translate(52.86 81.2) rotate(-53.42)"><tspan x="0" y="0">t</tspan></text>
          <text class="cls-3" transform="translate(56.19 76.75) rotate(-50.99)"><tspan x="0" y="0"> </tspan></text>
          <text class="cls-3" transform="translate(59.1 73.17) rotate(-48.81)"><tspan x="0" y="0">I</tspan></text>
          <text class="cls-3" transform="translate(61.99 69.79) rotate(-45.61)"><tspan x="0" y="0">n</tspan></text>
          <text class="cls-3" transform="translate(68.23 63.43) rotate(-41.26)"><tspan x="0" y="0">q</tspan></text>
          <text class="cls-3" transform="translate(75.19 57.35) rotate(-36.92)"><tspan x="0" y="0">u</tspan></text>
          <text class="cls-3" transform="translate(82.38 52.05) rotate(-33.8)"><tspan x="0" y="0">i</tspan></text>
          <text class="cls-3" transform="translate(85.8 49.75) rotate(-31.43)"><tspan x="0" y="0">r</tspan></text>
          <text class="cls-3" transform="translate(90.63 46.78) rotate(-28.21)"><tspan x="0" y="0">y</tspan></text>
          <text class="cls-3" transform="translate(97.47 43.17) rotate(-25.24)"><tspan x="0" y="0"> </tspan></text>
          <text class="cls-3" transform="translate(101.64 41.22) rotate(-23)"><tspan x="0" y="0"> </tspan></text>
          <text class="cls-3" transform="translate(105.89 39.43) rotate(-20.77)"><tspan x="0" y="0"> </tspan></text>
          <text class="cls-3" transform="translate(110.19 37.8) rotate(-18.54)"><tspan x="0" y="0"> </tspan></text>
          <text class="cls-3" transform="translate(114.57 36.34) rotate(-16.3)"><tspan x="0" y="0"> </tspan></text>
          <text class="cls-3" transform="translate(118.98 35.06) rotate(-14.07)"><tspan x="0" y="0"> </tspan></text>
          <text class="cls-3" transform="translate(123.46 33.95) rotate(-11.83)"><tspan x="0" y="0"> </tspan></text>
          <text class="cls-3" transform="translate(127.96 33.02) rotate(-9.61)"><tspan x="0" y="0"> </tspan></text>
          <text class="cls-3" transform="translate(132.53 32.26) rotate(-7.38)"><tspan x="0" y="0"> </tspan></text>
          <text class="cls-3" transform="translate(137.1 31.67) rotate(-5.17)"><tspan x="0" y="0"> </tspan></text>
          <text class="cls-3" transform="translate(141.68 31.27) rotate(-2.97)"><tspan x="0" y="0"> </tspan></text>
        </g>
        <circle id="_타원_8" data-name="타원 8" class="cls-1" cx="253.11" cy="85.5" r="2"/>
        <circle id="_타원_8-2" data-name="타원 8" class="cls-1" cx="119.08" cy="32.4" r="2"/>
        <circle id="_타원_8-3" data-name="타원 8" class="cls-1" cx="28.09" cy="142.36" r="2"/>
        <circle id="_타원_8-4" data-name="타원 8" class="cls-1" cx="105.07" cy="263.47" r="2"/>
        <circle id="_타원_8-5" data-name="타원 8" class="cls-1" cx="243.72" cy="227.55" r="2"/>
      </g>
      <circle class="cls-2" cx="150" cy="150" r="150"/>
    </g>
  </g>
</svg>