<svg xmlns="http://www.w3.org/2000/svg" xmlns:xlink="http://www.w3.org/1999/xlink" width="164" height="177" viewBox="0 0 164 177">
  <defs>
    <style>
      .cls-1 {
        fill: #a366f7;
      }

      .cls-2 {
        clip-path: url(#clip-PC_-_홈_인덱스_-_메인_8);
      }

      .cls-3 {
        clip-path: url(#clip-path);
      }

      .cls-4 {
        fill: #fff;
      }
    </style>
    <clipPath id="clip-path">
      <rect id="사각형_1158" data-name="사각형 1158" class="cls-1" width="132.22" height="132.824"/>
    </clipPath>
    <clipPath id="clip-PC_-_홈_인덱스_-_메인_8">
      <rect width="164" height="177"/>
    </clipPath>
  </defs>
  <g id="PC_-_홈_인덱스_-_메인_8" data-name="PC - 홈 / 인덱스 - 메인 – 8" class="cls-2">
    <rect class="cls-4" width="164" height="177"/>
    <g id="그룹_615" data-name="그룹 615" transform="translate(15.889 19.457)">
      <g id="그룹_596" data-name="그룹 596" class="cls-3" transform="translate(0.001)">
        <path id="패스_416" data-name="패스 416" class="cls-1" d="M121.889,22.127c-11.619-7-28.842-4.1-35.077,10.7-2.7,6.4-6.3,12.361-9.458,18.542-.235.459-.383,1.086-.967,1.176-.671.1-.834-.56-1.058-1.008-4.983-9.993-10.65-19.651-14.821-30.041A38.919,38.919,0,0,0,54.85,11.76a30.021,30.021,0,0,0-47.616-.052C-3.515,25.282-3.487,49.589,15.554,60.818c6.107,3.6,11.738,7.889,17.539,11.931C40.36,77.811,47.6,82.917,54.846,88a2.016,2.016,0,0,0,.371.242c1.562,1.109,1.467,2.424.493,4.192-3.024,5.484-5.874,11.063-8.769,16.617-.3.577-.841,1.137-.6,1.931a4.014,4.014,0,0,0,1.811-.99c5.638-3.9,11.3-7.777,16.887-11.749a3,3,0,0,1,4.074,0,59.477,59.477,0,0,0,7.162,4.926h0c.5.424.981.887,1.517,1.268q18.187,12.922,36.393,25.819c.5.358.946.94,1.7.813.258-.536-.094-.919-.293-1.305-2.51-4.879-5.042-9.746-7.556-14.622Q99.674,98.926,91.315,82.709c-.629-1.216-.742-2.17.567-3.044,9.232-6.166,18-13.026,27.615-18.617a28.727,28.727,0,0,0,7.07-5.695c9.172-10.259,6.879-26.262-4.678-33.226M88.264,82.055c-4.3,2.939-8.717,5.726-12.777,9.01-.354.183-.7.379-1.044.579-2,1.167-3.819,2.594-5.7,3.933a2.443,2.443,0,0,1-3.365-.078,57.4,57.4,0,0,0-5.652-4.006c-1.539-.924-2.242-1.94-1.745-3.35a4.565,4.565,0,0,1,.473-.946c2.45-4.526,4.928-9.038,7.343-13.582,3.069-5.771,6.08-11.572,9.139-17.348.321-.605.452-1.553,1.339-1.537.766.014.908.875,1.2,1.436,3.889,7.5,7.725,15.033,11.665,22.508.823,1.561.57,2.391-.879,3.381" transform="translate(0 0)"/>
        <path id="패스_417" data-name="패스 417" class="cls-1" d="M52.91,284.128c-7.026-6.013-14.024-12.059-21.1-18.015-3.841-3.234-7.486-6.693-11.337-9.9a10.586,10.586,0,0,0-14.152.1,10.966,10.966,0,0,0-3.158,11.587,10.873,10.873,0,0,0,8.846,8.365c11.4,2.316,22.675,5.162,34.018,7.713,2.559.576,5.12,1.141,7.86,1.751a1.861,1.861,0,0,0-.98-1.594" transform="translate(-1.608 -152.898)"/>
      </g>
    </g>
  </g>
</svg>
