<svg id="그룹_692" data-name="그룹 692" xmlns="http://www.w3.org/2000/svg" xmlns:xlink="http://www.w3.org/1999/xlink" width="30" height="30" viewBox="0 0 30 30">
  <defs>
    <clipPath id="clip-path">
      <rect id="사각형_1251" data-name="사각형 1251" width="30" height="30" fill="none"/>
    </clipPath>
  </defs>
  <g id="그룹_691" data-name="그룹 691" clip-path="url(#clip-path)">
    <path id="패스_504" data-name="패스 504" d="M61.615,49.8a3.264,3.264,0,0,0-.87-1.713,3.219,3.219,0,0,0-1.491-.821,8.253,8.253,0,0,0-2.109-.206c-1.982-.015-3.964.018-5.946.024a7.684,7.684,0,0,0-1.635.149,3.11,3.11,0,0,0-1.976,1.256,3.773,3.773,0,0,0-.631,1.913c-.055.7-.064,1.414-.077,2.121-.012.657-.01,1.315,0,1.972q.028,1.947.072,3.894a4.243,4.243,0,0,0,.355,1.619,2.978,2.978,0,0,0,1.4,1.47,4.058,4.058,0,0,0,1.586.41c.579.045,1.16.071,1.741.074,1.789.009,3.578,0,5.367,0,0-.006,0-.011,0-.017l1.142-.091a3.764,3.764,0,0,0,1.568-.465,2.945,2.945,0,0,0,1.208-1.277,4.223,4.223,0,0,0,.4-1.553c.046-.53.074-1.064.074-1.6,0-1.789-.022-3.578-.032-5.367a9.45,9.45,0,0,0-.143-1.8m-7.357,9.4a4.7,4.7,0,1,1,4.776-4.578A4.667,4.667,0,0,1,54.258,59.2m4.918-8.454a1.113,1.113,0,0,1,.071-2.225,1.113,1.113,0,0,1-.071,2.225" transform="translate(-39.336 -39.49)"/>
    <path id="패스_505" data-name="패스 505" d="M15,0A15,15,0,1,0,30,15,15,15,0,0,0,15,0m9.121,18.239c-.012.024-.034.048-.035.073-.015.269-.017.538-.04.807a7.132,7.132,0,0,1-.115.971,4.883,4.883,0,0,1-1.491,2.68,4.833,4.833,0,0,1-1.638.969,7.477,7.477,0,0,1-2.472.365,1.306,1.306,0,0,0-.217.036H11.887a.461.461,0,0,0-.109-.036c-.511-.038-1.024-.06-1.533-.114a4.817,4.817,0,0,1-1.539-.448,4.671,4.671,0,0,1-1.548-1.174,4.445,4.445,0,0,1-.765-1.233,6.686,6.686,0,0,1-.479-2.624.761.761,0,0,0-.036-.163v-6.7a.837.837,0,0,0,.036-.145c.015-.22.028-.441.037-.662a5.89,5.89,0,0,1,.378-1.8A4.573,4.573,0,0,1,7.847,7,5.2,5.2,0,0,1,10.6,5.978c.63-.063,1.268-.058,1.9-.079.223-.007.446,0,.669,0a.84.84,0,0,0,.163-.036h3.33a.4.4,0,0,0,.109.036c.606.014,1.213.015,1.819.041.409.018.818.06,1.226.107a4.771,4.771,0,0,1,1.628.512A4.527,4.527,0,0,1,22.868,7.7a4.815,4.815,0,0,1,.82,1.421,7.1,7.1,0,0,1,.4,2.463,1.376,1.376,0,0,0,.036.217Z" transform="translate(0 0)"/>
    <path id="패스_506" data-name="패스 506" d="M77.484,74.556A3.02,3.02,0,1,0,80.5,77.582a2.993,2.993,0,0,0-3.012-3.026" transform="translate(-62.491 -62.568)"/>
  </g>
</svg>
