<svg xmlns="http://www.w3.org/2000/svg" width="38" height="42" viewBox="0 0 38 42">
  <path id="합치기_1" data-name="합치기 1" d="M18,41V3.434L1.712,19.919A1,1,0,1,1,.289,18.513L18.289.3l0,0,0,0h0l0,0,0,0,0,0,.024-.023h0l.018-.016,0,0,.015-.013,0,0,.014-.011.006,0L18.4.2l.007-.006.011-.008.009-.007.007,0a.991.991,0,0,1,.188-.1l.05-.018.014,0,0,0A.989.989,0,0,1,18.975,0h.1L19.1,0h0l.023,0h0l.024,0h0l.023,0h0l.022,0h0l.019,0h.005l.017,0,.008,0,.013,0,.013,0,.008,0,.02.006h0q.04.012.078.028A1,1,0,0,1,19.7.286h0l0,0h0l0,0,0,0,18,18.216a1,1,0,0,1-1.423,1.406L20,3.434V41a1,1,0,1,1-2,0Z" fill="#fff"/>
</svg>
