<?xml version="1.0" encoding="UTF-8"?>
<svg id="_디자인" data-name="디자인" xmlns="http://www.w3.org/2000/svg" version="1.1" viewBox="0 0 542.15 116.29">
  <!-- Generator: Adobe Illustrator 29.2.1, SVG Export Plug-In . SVG Version: 2.1.0 Build 116)  -->
  <defs>
    <style>
      .st0 {
        fill: #00c376;
      }

      .st1 {
        fill: #ffcc26;
      }

      .st2 {
        fill: #ff4e8f;
      }

      .st3 {
        fill: #a366f7;
      }

      .st4 {
        fill: #0094ff;
      }
    </style>
  </defs>
  <g>
    <polygon points="403.51 75.27 391.71 75.27 391.71 59.74 405.25 59.74 405.25 50.01 380.38 50.01 380.38 114.93 391.71 114.93 391.71 84.9 403.51 84.9 403.51 75.27"/>
    <polygon points="483.21 114.93 495.56 114.93 495.56 43.61 506.09 43.61 506.09 33.28 472.4 33.28 472.4 43.61 483.21 43.61 483.21 114.93"/>
    <polygon class="st4" points="421.26 54.15 435.81 54.15 435.81 44.04 409.44 44.04 409.44 114.93 435.81 114.93 435.81 104.61 421.26 104.61 421.26 54.15"/>
    <rect class="st4" x="426.65" y="71.98" width="12.6" height="12.6" transform="translate(71.44 329.06) rotate(-45)"/>
    <path d="M455.73,37.46c-11.74,0-15.91,8.53-15.91,15.83v4.72c0,6.59,2.97,12.89,8.37,17.73.18.16.4.36.67.61l.45.4c2.67,2.39,7.59,7.36,8.79,8.98,1.18,1.6,1.78,4.36,1.78,8.19v6.35c0,3.74-1.4,5.63-4.16,5.63-3.3,0-4.65-1.67-4.65-5.75v-8h-11.25v9.18c0,7.21,4.98,14.96,15.91,14.96,14.67,0,15.41-13.69,15.41-16.43v-8.16c0-5.22-1.24-7.91-3.84-11.65-2-2.87-11.1-11.31-11.19-11.39-3.71-3.37-5.03-6.23-5.03-10.91v-3.78c0-5.48,2.66-6.12,4.65-6.12,3.73,0,4.16,3.12,4.16,5.46v6.97h11.25v-6.79c0-4.29-1.41-8.31-3.97-11.32-2.58-3.04-6.64-4.71-11.45-4.71Z"/>
    <polygon points="511.96 26.86 502.74 114.93 515.75 114.93 521.87 42.23 523.12 42.23 523.15 42.51 529.14 114.93 542.15 114.93 532.69 26.86 511.96 26.86"/>
    <polygon class="st3" points="186.35 25.97 181.06 25.97 181.06 9.03 176.86 9.03 176.86 25.97 171.07 25.97 171.07 35.89 166.42 35.89 166.42 49.56 172.75 49.56 172.75 114.93 184.68 114.93 184.68 49.56 191.01 49.56 191.01 35.89 186.35 35.89 186.35 25.97"/>
    <path d="M17.33,26.35C5.36,26.35,0,34.59,0,42.75v6.73c0,8.92,2.79,15.43,9.06,21.12l.19.17c2.21,2.01,8.94,8.12,10.45,10.16,1.29,1.75,1.95,3.5,1.95,8.19v9.87c0,3.96-1.53,6.14-4.31,6.14-2.24,0-4.85-1.54-4.85-5.87v-12.42H0v13c0,7.91,5.42,16.43,17.33,16.43,5.05,0,16.79-1.71,16.79-17.5v-9.46c0-6.17-1.26-10.85-3.96-14.73-1.89-2.71-9.97-10.13-12.4-12.33-4.64-4.22-5.28-8.64-5.28-12.78v-5.9c0-4.05,1.63-6.1,4.85-6.1,4.31,0,4.31,4.25,4.31,5.64v9h12.48v-8.5c0-8.59-5.77-17.28-16.79-17.28Z"/>
    <path d="M145.55,100.95v-47.79h-11.87v45.54c0,11.01,6.02,17.58,16.11,17.58s16.11-6.57,16.11-17.58v-42.6h-11.92v44.85c0,3.28-1.46,5.02-4.22,5.02s-4.22-1.74-4.22-5.02Z"/>
    <path d="M111.9,46.99c-10.24,0-16.11,6.41-16.11,17.58v34.13c0,11.01,6.02,17.58,16.11,17.58s16.11-6.57,16.11-17.58v-34.13c0-11.17-5.87-17.58-16.11-17.58ZM116.09,100.95c0,3.28-1.46,5.02-4.22,5.02s-4.22-1.74-4.22-5.02l-.24-38.65c0-3.05,1.75-5.02,4.47-5.02s4.22,1.83,4.22,5.02v38.65Z"/>
    <path class="st0" d="M84.95,85.31h-40.81l-.02,10.83-6.87,18.79h20.3v-9.58c0-3.85,3.13-6.99,6.99-6.99s6.99,3.13,6.99,6.99v9.58h20.3l-6.88-18.89v-10.73Z"/>
    <path class="st0" d="M53.65,57.41h21.79c5.2,0,11.63-4.19,11.83-9.11-1.54-.28-10.46-2.08-12.44-6.17h-20.58c-1.99,4.09-10.9,5.88-12.44,6.17.21,4.92,6.63,9.11,11.83,9.11Z"/>
    <path class="st0" d="M79.21,79.15c5.29,0,11.74-4.32,11.92-9.71-1.45-.32-9.77-2.33-12.06-6.54h-29.04c-2.29,4.21-10.62,6.22-12.06,6.54.18,5.39,6.63,9.71,11.92,9.71h29.32Z"/>
    <rect class="st2" x="291.37" y="58.27" width="9.69" height="56.65"/>
    <path d="M241.11,56.05h-12.05v58.87h9.71v-22.18h2.57c12.39,0,14.88-7.16,14.88-18.72s-2.47-17.97-15.11-17.97ZM242.13,83.29h-3.35v-18.13h3.35c3.63,0,4.24,2.19,4.24,8.77s-.38,9.36-4.24,9.36Z"/>
    <path d="M281.48,91.16c4.25-2.81,5.9-7.19,5.9-15.66,0-9.47-1.74-18.23-14.32-18.23h-13.2v57.65h9.71v-21.73h2.62l.06.23,5.49,21.51h10.31l-6.76-23.64.18-.12ZM272.51,83.86h-2.94v-17.39h2.94c4.26,0,5.02,2.23,5.02,8.5s-.75,8.89-5.02,8.89Z"/>
    <polygon points="306.16 57.5 306.16 114.92 315.6 114.92 315.6 83.4 327.32 114.92 336.12 114.92 336.12 55.98 326.69 55.98 326.69 93.97 315.01 57.5 306.16 57.5"/>
    <path d="M354.03,53.64c-9.07,0-13.67,5.25-13.67,15.59v30.95c0,10.05,4.85,15.59,13.67,15.59s13.67-5.54,13.67-15.59v-16.32h-14.03v7.64h4.05v10.28c0,3.12-1.28,4.76-3.71,4.76s-3.71-1.65-3.71-4.76l-.21-34.16c0-2.89,1.54-4.76,3.92-4.76s3.71,1.74,3.71,4.76v7.22h9.98v-5.61c0-10.35-4.6-15.59-13.67-15.59Z"/>
    <path d="M211.24,54.17c-9.83,0-14.23,7.11-14.23,14.16v1.52c0,6.07,2.03,10.17,7.74,15.66.47.45,1.45,1.3,2.48,2.2,1.64,1.42,5.56,4.87,6.52,6.25,1.13,1.62,1.55,3.21,1.55,5.9v1.5c0,.21-.05,5.19-4.06,5.19-1.67,0-4.49-1.12-4.49-5.3v-5.36h-9.74v6.19c0,8.9,7.33,13.71,14.23,13.71,10.18,0,13.8-7.47,13.8-14.47v-1.59c0-4.17-.96-7.5-3.12-10.78-1.1-1.67-5.18-5.44-7.88-7.94-.71-.66-1.33-1.23-1.79-1.67l-.72-.68c-3.37-3.25-4.78-5.15-4.78-8.55v-1.17c0-3.61,1.55-5.52,4.49-5.52,3.95,0,4.06,4.52,4.06,5.03v3.48h9.74v-3.07c0-8.64-5.68-14.68-13.8-14.68Z"/>
    <path class="st2" d="M305.28,44.42c0-2.02-1.63-3.65-3.65-3.65-.69,0-1.33.2-1.88.54.06-.27.1-.54.1-.83,0-2.01-1.63-3.65-3.65-3.65s-3.65,1.63-3.65,3.65c0,.29.04.56.1.83-.55-.33-1.19-.54-1.88-.54-2.01,0-3.65,1.63-3.65,3.65s1.48,3.47,3.36,3.62c-.78.67-1.29,1.65-1.29,2.76,0,2.01,1.63,3.65,3.65,3.65,1.5,0,2.78-.9,3.34-2.19.56,1.29,1.85,2.19,3.34,2.19,2.01,0,3.65-1.63,3.65-3.65,0-1.11-.51-2.09-1.29-2.76,1.89-.14,3.38-1.7,3.38-3.62Z"/>
  </g>
  <path class="st1" d="M385.33,16.59c0-9.16-7.43-16.59-16.59-16.59s-16.59,7.43-16.59,16.59c0,7.28,4.7,13.45,11.22,15.68l.91,4.27.52,5.1h7.87l.52-5.1.91-4.27c6.53-2.23,11.22-8.4,11.22-15.68ZM370.93,36.54h-4.38l-.78-3.65c.96.17,1.95.28,2.97.28s2-.11,2.97-.28l-.78,3.65Z"/>
</svg>